<?xml version="1.0" encoding="UTF-8"?>
<!DOCTYPE svg PUBLIC "-//W3C//DTD SVG 1.1//EN" "http://www.w3.org/Graphics/SVG/1.1/DTD/svg11.dtd">
<svg xmlns="http://www.w3.org/2000/svg" version="1.1" width="265px" height="279px"
    style="shape-rendering:geometricPrecision; text-rendering:geometricPrecision; image-rendering:optimizeQuality; fill-rule:evenodd; clip-rule:evenodd"
    xmlns:xlink="http://www.w3.org/1999/xlink">
    <g>
        <path style="opacity:0.997" fill="#0e0b6c"
            d="M 238.5,27.5 C 238.833,27.5 239.167,27.5 239.5,27.5C 239.5,28.1667 239.833,28.5 240.5,28.5C 240.5,28.8333 240.5,29.1667 240.5,29.5C 241.419,32.0892 243.086,34.0892 245.5,35.5C 245.427,37.0269 246.094,38.0269 247.5,38.5C 247.833,38.5 248.167,38.5 248.5,38.5C 248.66,40.153 249.326,41.4863 250.5,42.5C 250.5,43.1667 250.5,43.8333 250.5,44.5C 250.5,45.1667 250.833,45.5 251.5,45.5C 251.5,45.8333 251.5,46.1667 251.5,46.5C 251.328,47.4916 251.662,48.1583 252.5,48.5C 252.5,48.8333 252.5,49.1667 252.5,49.5C 252.328,50.4916 252.662,51.1583 253.5,51.5C 253.5,51.8333 253.5,52.1667 253.5,52.5C 253.328,53.4916 253.662,54.1583 254.5,54.5C 254.5,55.1667 254.5,55.8333 254.5,56.5C 254.263,57.791 254.596,58.791 255.5,59.5C 255.5,61.1667 255.5,62.8333 255.5,64.5C 255.5,68.5 255.5,72.5 255.5,76.5C 254.532,78.6074 254.198,80.9407 254.5,83.5C 253.549,84.9187 253.216,86.5853 253.5,88.5C 252.566,89.5676 252.232,90.901 252.5,92.5C 252.5,92.8333 252.5,93.1667 252.5,93.5C 251.833,93.5 251.5,93.8333 251.5,94.5C 251.5,94.8333 251.5,95.1667 251.5,95.5C 250.662,95.8417 250.328,96.5084 250.5,97.5C 250.5,98.1667 250.5,98.8333 250.5,99.5C 249.662,99.8417 249.328,100.508 249.5,101.5C 248.662,101.842 248.328,102.508 248.5,103.5C 248.167,103.5 247.833,103.5 247.5,103.5C 246.662,103.842 246.328,104.508 246.5,105.5C 245.094,105.973 244.427,106.973 244.5,108.5C 244.5,108.833 244.5,109.167 244.5,109.5C 244.167,109.5 243.833,109.5 243.5,109.5C 242.094,109.973 241.427,110.973 241.5,112.5C 241.5,112.833 241.5,113.167 241.5,113.5C 240.833,113.5 240.5,113.833 240.5,114.5C 240.167,114.5 239.833,114.5 239.5,114.5C 237.833,115.5 236.5,116.833 235.5,118.5C 232.883,119.786 230.55,121.453 228.5,123.5C 216.142,129.171 203.142,131.505 189.5,130.5C 189.167,130.5 188.833,130.5 188.5,130.5C 186.562,128.837 184.228,128.171 181.5,128.5C 180.791,127.596 179.791,127.263 178.5,127.5C 178.158,126.662 177.492,126.328 176.5,126.5C 175.833,126.5 175.167,126.5 174.5,126.5C 174.158,125.662 173.492,125.328 172.5,125.5C 172.5,125.167 172.5,124.833 172.5,124.5C 172.158,123.662 171.492,123.328 170.5,123.5C 169.738,121.738 168.404,120.738 166.5,120.5C 164.761,117.757 162.427,115.757 159.5,114.5C 157.984,111.467 155.984,108.8 153.5,106.5C 153.5,106.167 153.5,105.833 153.5,105.5C 151.863,100.885 149.863,96.5514 147.5,92.5C 147.451,88.9219 146.785,85.5885 145.5,82.5C 145.5,82.1667 145.5,81.8333 145.5,81.5C 145.5,75.8333 145.5,70.1667 145.5,64.5C 145.5,62.8333 145.5,61.1667 145.5,59.5C 145.833,59.5 146.167,59.5 146.5,59.5C 147.924,57.4855 148.59,55.1522 148.5,52.5C 148.5,51.8333 148.5,51.1667 148.5,50.5C 148.5,49.8333 148.5,49.1667 148.5,48.5C 149.167,48.5 149.5,48.1667 149.5,47.5C 150.338,47.1583 150.672,46.4916 150.5,45.5C 151.338,45.1583 151.672,44.4916 151.5,43.5C 152.338,43.1583 152.672,42.4916 152.5,41.5C 152.5,41.1667 152.5,40.8333 152.5,40.5C 153.167,40.5 153.5,40.1667 153.5,39.5C 154.167,39.5 154.5,39.1667 154.5,38.5C 155.878,37.4549 156.878,36.1216 157.5,34.5C 160.167,32.5 162.5,30.1667 164.5,27.5C 166.749,26.9202 168.415,25.5869 169.5,23.5C 186.453,14.556 204.119,13.056 222.5,19C 228.332,21.08 233.665,23.9134 238.5,27.5 Z M 221.5,114.5 C 209.86,119.795 198.193,119.795 186.5,114.5C 185.738,112.738 184.404,111.738 182.5,111.5C 181.167,109.5 179.5,107.833 177.5,106.5C 177.25,104.326 176.25,102.659 174.5,101.5C 173.736,98.9823 172.736,96.649 171.5,94.5C 171.125,92.3024 170.458,90.3024 169.5,88.5C 166.133,71.5309 167.133,54.8642 172.5,38.5C 174.409,36.3512 176.076,34.0179 177.5,31.5C 202.57,19.8039 220.07,26.8039 230,52.5C 234.601,68.4897 234.601,84.4897 230,100.5C 227.909,105.694 225.076,110.361 221.5,114.5 Z" />
    </g>
    <g>
        <path style="opacity:0.011" fill="currentColor"
            d="M 120.5,22.5 C 117.5,22.5 114.5,22.5 111.5,22.5C 109.708,21.6909 107.708,21.1909 105.5,21C 110.434,19.8399 115.434,19.3399 120.5,19.5C 120.5,20.5 120.5,21.5 120.5,22.5 Z" />
    </g>
    <g>
        <path style="opacity:0.129" fill=""
            d="M 238.5,26.5 C 238.5,26.8333 238.5,27.1667 238.5,27.5C 233.665,23.9134 228.332,21.08 222.5,19C 204.119,13.056 186.453,14.556 169.5,23.5C 170.048,22.3115 170.381,21.1448 170.5,20C 171.549,19.5078 172.549,19.6744 173.5,20.5C 178.242,17.9747 183.242,16.1413 188.5,15C 184.148,14.5811 183.815,13.9145 187.5,13C 198.639,11.8849 209.639,12.5516 220.5,15C 219.167,15.3333 217.833,15.6667 216.5,16C 219.332,17.294 222.165,17.4607 225,16.5C 226.225,16.8623 227.391,17.3623 228.5,18C 226.205,18.9836 226.539,19.8169 229.5,20.5C 230.451,19.6744 231.451,19.5078 232.5,20C 233.833,20.6667 233.833,21.3333 232.5,22C 234.66,23.332 236.66,24.832 238.5,26.5 Z" />
    </g>
    <g>
        <path style="opacity:0.998" fill="#07076a"
            d="M 111.5,22.5 C 114.5,22.5 117.5,22.5 120.5,22.5C 120.5,24.8333 120.5,27.1667 120.5,29.5C 121.879,37.7589 122.546,46.0922 122.5,54.5C 119.772,54.1706 117.438,54.8372 115.5,56.5C 89.0267,60.5639 68.6934,73.8972 54.5,96.5C 49.5992,102.301 46.2659,108.968 44.5,116.5C 44.5,116.833 44.5,117.167 44.5,117.5C 43.0687,118.78 42.4021,120.447 42.5,122.5C 39.7401,130.301 38.4067,138.467 38.5,147C 38.3437,152.09 39.0103,156.923 40.5,161.5C 40.5,161.833 40.5,162.167 40.5,162.5C 40.5,162.833 40.5,163.167 40.5,163.5C 40.2322,165.099 40.5655,166.432 41.5,167.5C 41.2627,168.791 41.596,169.791 42.5,170.5C 42.5,170.833 42.5,171.167 42.5,171.5C 42.5,171.833 42.5,172.167 42.5,172.5C 42.3284,173.492 42.6618,174.158 43.5,174.5C 43.2627,175.791 43.596,176.791 44.5,177.5C 44.5,177.833 44.5,178.167 44.5,178.5C 44.3284,179.492 44.6618,180.158 45.5,180.5C 45.3284,181.492 45.6618,182.158 46.5,182.5C 46.5,182.833 46.5,183.167 46.5,183.5C 46.3284,184.492 46.6618,185.158 47.5,185.5C 47.3284,186.492 47.6618,187.158 48.5,187.5C 48.3284,188.492 48.6618,189.158 49.5,189.5C 49.3284,190.492 49.6618,191.158 50.5,191.5C 50.3284,192.492 50.6618,193.158 51.5,193.5C 51.427,195.027 52.0937,196.027 53.5,196.5C 53.427,198.027 54.0937,199.027 55.5,199.5C 55.427,201.027 56.0937,202.027 57.5,202.5C 57.7376,204.404 58.7376,205.738 60.5,206.5C 61.7573,209.427 63.7573,211.761 66.5,213.5C 69.0435,216.78 72.0435,219.613 75.5,222C 77.0779,223.094 78.7446,223.928 80.5,224.5C 80.9731,225.906 81.9731,226.573 83.5,226.5C 88.4893,230.493 94.156,233.16 100.5,234.5C 103.251,236.975 106.584,237.975 110.5,237.5C 116.792,239.989 123.458,240.989 130.5,240.5C 136.018,240.41 141.518,240.076 147,239.5C 151.179,239.288 155.013,238.288 158.5,236.5C 163.232,236.373 167.232,234.707 170.5,231.5C 174.085,231.708 176.751,230.375 178.5,227.5C 180.663,225.917 182.996,224.584 185.5,223.5C 189.127,221.206 192.461,218.54 195.5,215.5C 195.5,215.167 195.5,214.833 195.5,214.5C 196.167,214.5 196.5,214.167 196.5,213.5C 197.167,213.5 197.5,213.167 197.5,212.5C 198.167,212.5 198.5,212.167 198.5,211.5C 199.167,211.5 199.5,211.167 199.5,210.5C 200.167,210.5 200.5,210.167 200.5,209.5C 201.167,209.5 201.5,209.167 201.5,208.5C 201.5,208.167 201.5,207.833 201.5,207.5C 202.167,207.5 202.5,207.167 202.5,206.5C 203.167,206.5 203.5,206.167 203.5,205.5C 204.167,205.5 204.5,205.167 204.5,204.5C 205.167,204.5 205.5,204.167 205.5,203.5C 206.5,203.167 207.167,202.5 207.5,201.5C 208.401,200.71 209.068,199.71 209.5,198.5C 210.401,197.71 211.068,196.71 211.5,195.5C 212.401,194.71 213.068,193.71 213.5,192.5C 213.5,192.167 213.5,191.833 213.5,191.5C 214.338,191.158 214.672,190.492 214.5,189.5C 216.293,187.574 217.293,185.241 217.5,182.5C 218.338,182.158 218.672,181.492 218.5,180.5C 219.404,179.791 219.737,178.791 219.5,177.5C 220.404,176.791 220.737,175.791 220.5,174.5C 223.218,168.245 224.551,161.578 224.5,154.5C 225.461,152.735 225.795,150.735 225.5,148.5C 236.5,148.5 247.5,148.5 258.5,148.5C 258.5,151.167 258.5,153.833 258.5,156.5C 257.407,161.306 256.741,166.306 256.5,171.5C 255.232,173.905 254.565,176.572 254.5,179.5C 252.72,180.99 252.054,182.99 252.5,185.5C 252.5,185.833 252.5,186.167 252.5,186.5C 252.5,187.5 252.5,188.5 252.5,189.5C 252.167,189.5 251.833,189.5 251.5,189.5C 250.662,189.842 250.328,190.508 250.5,191.5C 250.5,191.833 250.5,192.167 250.5,192.5C 249.662,192.842 249.328,193.508 249.5,194.5C 248.596,195.209 248.263,196.209 248.5,197.5C 248.5,197.833 248.5,198.167 248.5,198.5C 247.833,198.5 247.5,198.833 247.5,199.5C 246.662,199.842 246.328,200.508 246.5,201.5C 245.662,201.842 245.328,202.508 245.5,203.5C 244.662,203.842 244.328,204.508 244.5,205.5C 243.662,205.842 243.328,206.508 243.5,207.5C 242.662,207.842 242.328,208.508 242.5,209.5C 241.662,209.842 241.328,210.508 241.5,211.5C 241.5,211.833 241.5,212.167 241.5,212.5C 241.167,212.5 240.833,212.5 240.5,212.5C 239.662,212.842 239.328,213.508 239.5,214.5C 238.662,214.842 238.328,215.508 238.5,216.5C 238.5,216.833 238.5,217.167 238.5,217.5C 238.167,217.5 237.833,217.5 237.5,217.5C 236.094,217.973 235.427,218.973 235.5,220.5C 234.5,220.833 233.833,221.5 233.5,222.5C 233.5,222.833 233.5,223.167 233.5,223.5C 232.833,223.5 232.5,223.833 232.5,224.5C 230.738,225.262 229.738,226.596 229.5,228.5C 229.5,228.833 229.5,229.167 229.5,229.5C 229.167,229.5 228.833,229.5 228.5,229.5C 226.833,230.5 225.5,231.833 224.5,233.5C 221.833,235.5 219.5,237.833 217.5,240.5C 217.5,240.833 217.5,241.167 217.5,241.5C 216.833,241.5 216.5,241.833 216.5,242.5C 216.167,242.5 215.833,242.5 215.5,242.5C 214.5,242.833 213.833,243.5 213.5,244.5C 213.167,244.5 212.833,244.5 212.5,244.5C 211.5,244.833 210.833,245.5 210.5,246.5C 209.5,246.833 208.833,247.5 208.5,248.5C 208.5,248.833 208.5,249.167 208.5,249.5C 207.508,249.328 206.842,249.662 206.5,250.5C 206.167,250.5 205.833,250.5 205.5,250.5C 202.489,251.669 199.822,253.336 197.5,255.5C 197.5,255.833 197.5,256.167 197.5,256.5C 197.167,256.5 196.833,256.5 196.5,256.5C 172.467,269.396 146.801,275.063 119.5,273.5C 118.5,273.5 117.5,273.5 116.5,273.5C 115.081,272.549 113.415,272.216 111.5,272.5C 109.5,272.5 107.5,272.5 105.5,272.5C 105.5,272.167 105.5,271.833 105.5,271.5C 104.432,270.566 103.099,270.232 101.5,270.5C 99.5615,268.837 97.2282,268.171 94.5,268.5C 92.7857,267.262 90.7857,266.595 88.5,266.5C 87.2196,265.069 85.5529,264.402 83.5,264.5C 78.4844,261.326 73.1511,258.659 67.5,256.5C 66.3406,254.75 64.674,253.75 62.5,253.5C 62.0269,252.094 61.0269,251.427 59.5,251.5C 58.7377,249.738 57.4044,248.738 55.5,248.5C 54.4154,246.413 52.7488,245.08 50.5,244.5C 46.1082,239.106 41.1082,234.439 35.5,230.5C 35.5,229.833 35.1667,229.5 34.5,229.5C 34.5,229.167 34.5,228.833 34.5,228.5C 34.5,226.5 33.5,225.5 31.5,225.5C 31.5,224.833 31.1667,224.5 30.5,224.5C 30.5,224.167 30.5,223.833 30.5,223.5C 30.5,222.167 29.8333,221.5 28.5,221.5C 28.5,220.833 28.1667,220.5 27.5,220.5C 27.5,219.833 27.1667,219.5 26.5,219.5C 26.5,218.833 26.5,218.167 26.5,217.5C 26.0679,216.29 25.4013,215.29 24.5,214.5C 23.8897,212.566 22.8897,210.899 21.5,209.5C 7.98576,183.418 2.98576,155.752 6.5,126.5C 7.43448,125.432 7.76781,124.099 7.5,122.5C 7.5,122.167 7.5,121.833 7.5,121.5C 8.43448,120.432 8.76781,119.099 8.5,117.5C 8.5,117.167 8.5,116.833 8.5,116.5C 9.40397,115.791 9.73731,114.791 9.5,113.5C 10.404,112.791 10.7373,111.791 10.5,110.5C 10.5,110.167 10.5,109.833 10.5,109.5C 11.404,108.791 11.7373,107.791 11.5,106.5C 12.3382,106.158 12.6716,105.492 12.5,104.5C 13.404,103.791 13.7373,102.791 13.5,101.5C 14.9313,100.22 15.5979,98.5529 15.5,96.5C 19.337,90.8302 22.6704,84.8302 25.5,78.5C 27.5224,76.4687 29.1891,74.1354 30.5,71.5C 30.5,71.1667 30.5,70.8333 30.5,70.5C 30.8333,70.5 31.1667,70.5 31.5,70.5C 32.4013,69.7095 33.0679,68.7095 33.5,67.5C 34.5,67.1667 35.1667,66.5 35.5,65.5C 35.5,65.1667 35.5,64.8333 35.5,64.5C 35.8333,64.5 36.1667,64.5 36.5,64.5C 37.3382,64.1583 37.6716,63.4916 37.5,62.5C 40.5,61.5 42.5,59.5 43.5,56.5C 47.4819,53.8482 51.1486,50.8482 54.5,47.5C 56.4044,47.2624 57.7377,46.2624 58.5,44.5C 62.4394,42.5538 66.106,40.2205 69.5,37.5C 71.674,37.2503 73.3406,36.2503 74.5,34.5C 78.5821,33.6236 82.2488,31.9569 85.5,29.5C 91.1313,28.4318 96.4646,26.7652 101.5,24.5C 101.5,24.1667 101.5,23.8333 101.5,23.5C 104.807,22.9492 108.14,22.6159 111.5,22.5 Z" />
    </g>
    <g>
        <path style="opacity:0.015" fill="currentColor"
            d="M 120.5,22.5 C 121.496,22.4142 122.329,22.7476 123,23.5C 124.191,28.7674 124.691,34.1007 124.5,39.5C 124.167,39.5 123.833,39.5 123.5,39.5C 124.113,34.6968 123.78,32.3635 122.5,32.5C 121.833,31.5 121.167,30.5 120.5,29.5C 120.5,27.1667 120.5,24.8333 120.5,22.5 Z" />
    </g>
    <g>
        <path style="opacity:0.017" fill="currentColor"
            d="M 215.5,28.5 C 217.404,28.7376 218.738,29.7376 219.5,31.5C 220.5,31.8333 221.167,32.5 221.5,33.5C 222.5,33.8333 223.167,34.5 223.5,35.5C 229.133,41.7617 232.967,49.095 235,57.5C 236.698,66.9558 236.864,76.2891 235.5,85.5C 235.802,88.0593 235.468,90.3926 234.5,92.5C 234.706,95.4951 234.04,98.1617 232.5,100.5C 231.873,104.42 230.207,107.753 227.5,110.5C 227.068,111.71 226.401,112.71 225.5,113.5C 222.539,116.948 218.873,119.448 214.5,121C 197.923,125.313 184.923,120.479 175.5,106.5C 175.833,106.5 176.167,106.5 176.5,106.5C 178.181,109.242 180.181,110.909 182.5,111.5C 184.404,111.738 185.738,112.738 186.5,114.5C 198.193,119.795 209.86,119.795 221.5,114.5C 225.076,110.361 227.909,105.694 230,100.5C 234.601,84.4897 234.601,68.4897 230,52.5C 220.07,26.8039 202.57,19.8039 177.5,31.5C 177.5,31.1667 177.5,30.8333 177.5,30.5C 178.167,30.5 178.5,30.1667 178.5,29.5C 179.833,29.1667 179.833,28.8333 178.5,28.5C 178.973,27.0937 179.973,26.427 181.5,26.5C 185.771,23.5544 190.604,22.2211 196,22.5C 199.888,22.5939 203.721,23.0939 207.5,24C 210.684,24.7542 213.351,26.2542 215.5,28.5 Z" />
    </g>
    <g>
        <path style="opacity:0.008" fill="currentColor"
            d="M 101.5,23.5 C 96.1667,23.8333 96.1667,24.1667 101.5,24.5C 96.4646,26.7652 91.1313,28.4318 85.5,29.5C 85.5,29.1667 85.5,28.8333 85.5,28.5C 88.1667,28.1667 88.1667,27.8333 85.5,27.5C 88.865,25.5377 92.5317,24.0377 96.5,23C 98.3869,22.2204 100.054,22.3871 101.5,23.5 Z" />
    </g>
    <g>
        <path style="opacity:0.006" fill="currentColor"
            d="M 238.5,26.5 C 240.268,25.4925 241.601,26.1592 242.5,28.5C 242.376,29.1067 242.043,29.44 241.5,29.5C 241.5,28.8333 241.167,28.5 240.5,28.5C 239.833,28.5 239.5,28.1667 239.5,27.5C 239.5,26.8333 239.167,26.5 238.5,26.5 Z" />
    </g>
    <g>
        <path style="opacity:0.596" fill="currentColor"
            d="M 169.5,23.5 C 168.415,25.5869 166.749,26.9202 164.5,27.5C 164.5,27.1667 164.5,26.8333 164.5,26.5C 165.167,26.5 165.5,26.1667 165.5,25.5C 166.605,24.3995 167.938,23.7329 169.5,23.5 Z" />
    </g>
    <g>
        <path style="opacity:0.01" fill="currentColor"
            d="M 165.5,25.5 C 164.833,25.5 164.5,25.8333 164.5,26.5C 163.167,26.8333 163.167,27.1667 164.5,27.5C 162.5,30.1667 160.167,32.5 157.5,34.5C 156.697,33.5768 156.53,32.5768 157,31.5C 159.167,29.3333 161.333,27.1667 163.5,25C 164.437,24.3083 165.103,24.475 165.5,25.5 Z" />
    </g>
    <g>
        <path style="opacity:0.624" fill="currentColor"
            d="M 240.5,29.5 C 240.833,29.5 241.167,29.5 241.5,29.5C 242.542,31.7914 244.042,32.7914 246,32.5C 247.039,33.2438 247.539,34.2438 247.5,35.5C 247.167,35.5 246.833,35.5 246.5,35.5C 246.167,34.1667 245.833,34.1667 245.5,35.5C 243.086,34.0892 241.419,32.0892 240.5,29.5 Z" />
    </g>
    <g>
        <path style="opacity:0.227" fill="currentColor"
            d="M 85.5,27.5 C 85.5,27.8333 85.5,28.1667 85.5,28.5C 82.8333,28.8333 82.8333,29.1667 85.5,29.5C 82.2488,31.9569 78.5821,33.6236 74.5,34.5C 76.9422,32.7742 79.6089,31.2742 82.5,30C 81.8333,29.6667 81.1667,29.3333 80.5,29C 82.0249,27.9914 83.6916,27.4914 85.5,27.5 Z" />
    </g>
    <g>
        <path style="opacity:0.009" fill="currentColor"
            d="M 70.5,35.5 C 69.8333,35.5 69.5,35.8333 69.5,36.5C 68.8333,36.5 68.1667,36.5 67.5,36.5C 68.221,34.6182 69.221,34.2848 70.5,35.5 Z" />
    </g>
    <g>
        <path style="opacity:0.006" fill="currentColor"
            d="M 157.5,34.5 C 156.878,36.1216 155.878,37.4549 154.5,38.5C 154.5,37.8333 154.167,37.5 153.5,37.5C 153.461,36.2438 153.961,35.2438 155,34.5C 155.77,35.5981 156.603,35.5981 157.5,34.5 Z" />
    </g>
    <g>
        <path style="opacity:0.231" fill="currentColor"
            d="M 74.5,34.5 C 73.3406,36.2503 71.674,37.2503 69.5,37.5C 69.5,37.1667 69.5,36.8333 69.5,36.5C 70.1667,36.5 70.5,36.1667 70.5,35.5C 71.8333,35.1667 73.1667,34.8333 74.5,34.5 Z" />
    </g>
    <g>
        <path style="opacity:0.011" fill="currentColor"
            d="M 245.5,35.5 C 245.833,35.5 246.167,35.5 246.5,35.5C 246.833,36.8333 247.167,36.8333 247.5,35.5C 249.382,36.221 249.715,37.221 248.5,38.5C 248.167,37.1667 247.833,37.1667 247.5,38.5C 246.094,38.0269 245.427,37.0269 245.5,35.5 Z" />
    </g>
    <g>
        <path style="opacity:0.008" fill="currentColor"
            d="M 153.5,37.5 C 154.167,37.5 154.5,37.8333 154.5,38.5C 154.5,39.1667 154.167,39.5 153.5,39.5C 152.833,39.5 152.5,39.8333 152.5,40.5C 152.167,40.5 151.833,40.5 151.5,40.5C 151.427,38.9731 152.094,37.9731 153.5,37.5 Z" />
    </g>
    <g>
        <path style="opacity:0.006" fill="currentColor"
            d="M 63.5,39.5 C 62.8333,39.5 62.5,39.8333 62.5,40.5C 61.8333,40.5 61.1667,40.5 60.5,40.5C 61.221,38.6182 62.221,38.2848 63.5,39.5 Z" />
    </g>
    <g>
        <path style="opacity:0.196" fill="currentColor"
            d="M 67.5,36.5 C 67.8417,37.3382 68.5084,37.6716 69.5,37.5C 66.106,40.2205 62.4394,42.5538 58.5,44.5C 58.5,44.1667 58.5,43.8333 58.5,43.5C 59.1667,43.5 59.5,43.1667 59.5,42.5C 60.1667,42.5 60.5,42.1667 60.5,41.5C 61.4916,41.6716 62.1583,41.3382 62.5,40.5C 63.1667,40.5 63.5,40.1667 63.5,39.5C 65.7785,38.8154 67.1118,37.8154 67.5,36.5 Z" />
    </g>
    <g>
        <path style="opacity:0.013" fill="currentColor"
            d="M 124.5,39.5 C 125.651,44.6503 125.817,49.9836 125,55.5C 124.501,50.1771 124.334,44.8437 124.5,39.5 Z" />
    </g>
    <g>
        <path style="opacity:0.009" fill="currentColor"
            d="M 60.5,40.5 C 60.5,40.8333 60.5,41.1667 60.5,41.5C 59.8333,41.5 59.5,41.8333 59.5,42.5C 58.8333,42.5 58.5,42.8333 58.5,43.5C 57.7611,43.631 57.0944,43.4643 56.5,43C 57.4709,41.5187 58.8042,40.6854 60.5,40.5 Z" />
    </g>
    <g>
        <path style="opacity:0.01" fill="currentColor"
            d="M 151.5,40.5 C 151.5,41.1667 151.833,41.5 152.5,41.5C 152.672,42.4916 152.338,43.1583 151.5,43.5C 151.672,44.4916 151.338,45.1583 150.5,45.5C 150.672,46.4916 150.338,47.1583 149.5,47.5C 148.794,46.4427 148.461,46.7761 148.5,48.5C 148.167,48.5 147.833,48.5 147.5,48.5C 147.794,45.2459 149.127,42.5792 151.5,40.5 Z" />
    </g>
    <g>
        <path style="opacity:0.008" fill="currentColor"
            d="M 246.5,108.5 C 246.167,107.167 245.833,107.167 245.5,108.5C 245.167,108.5 244.833,108.5 244.5,108.5C 244.427,106.973 245.094,105.973 246.5,105.5C 246.328,104.508 246.662,103.842 247.5,103.5C 247.833,104.833 248.167,104.833 248.5,103.5C 249.338,103.158 249.672,102.492 249.5,101.5C 250.338,101.158 250.672,100.492 250.5,99.5C 251.833,98.8333 251.833,98.1667 250.5,97.5C 250.328,96.5084 250.662,95.8417 251.5,95.5C 252.644,96.1826 252.644,95.8493 251.5,94.5C 251.5,93.8333 251.833,93.5 252.5,93.5C 253.833,93.1667 253.833,92.8333 252.5,92.5C 252.232,90.901 252.566,89.5676 253.5,88.5C 253.216,86.5853 253.549,84.9187 254.5,83.5C 254.198,80.9407 254.532,78.6074 255.5,76.5C 255.5,72.5 255.5,68.5 255.5,64.5C 256.822,61.3658 256.822,59.6991 255.5,59.5C 254.596,58.791 254.263,57.791 254.5,56.5C 255.734,54.9516 255.734,54.2849 254.5,54.5C 253.662,54.1583 253.328,53.4916 253.5,52.5C 254.644,51.1507 254.644,50.8174 253.5,51.5C 252.662,51.1583 252.328,50.4916 252.5,49.5C 253.644,48.1507 253.644,47.8174 252.5,48.5C 251.662,48.1583 251.328,47.4916 251.5,46.5C 252.833,46.1667 252.833,45.8333 251.5,45.5C 250.833,45.5 250.5,45.1667 250.5,44.5C 251.833,43.8333 251.833,43.1667 250.5,42.5C 250.369,41.7611 250.536,41.0944 251,40.5C 257.827,52.977 260.16,66.3104 258,80.5C 256.575,90.9721 252.741,100.305 246.5,108.5 Z" />
    </g>
    <g>
        <path style="opacity:0.008" fill="currentColor"
            d="M 55.5,45.5 C 54.8333,45.5 54.5,45.8333 54.5,46.5C 52.0248,46.2533 52.0248,45.5866 54.5,44.5C 55.1067,44.6236 55.44,44.9569 55.5,45.5 Z" />
    </g>
    <g>
        <path style="opacity:0.549" fill="#8b8ab9"
            d="M 58.5,44.5 C 57.7377,46.2624 56.4044,47.2624 54.5,47.5C 54.5,47.1667 54.5,46.8333 54.5,46.5C 55.1667,46.5 55.5,46.1667 55.5,45.5C 56.391,44.8902 57.391,44.5569 58.5,44.5 Z" />
    </g>
    <g>
        <path style="opacity:0.006" fill="#cccbe0"
            d="M 54.5,47.5 C 51.1486,50.8482 47.4819,53.8482 43.5,56.5C 42.5,59.5 40.5,61.5 37.5,62.5C 37.5,61.8333 37.1667,61.5 36.5,61.5C 36.9825,59.1299 38.1492,58.4632 40,59.5C 40.9669,58.3224 41.4669,56.989 41.5,55.5C 42.3569,54.5748 43.3569,53.9081 44.5,53.5C 44.8333,54.8333 45.1667,54.8333 45.5,53.5C 46.1667,53.5 46.5,53.1667 46.5,52.5C 47.4718,51.1316 48.4718,49.6316 49.5,48C 51.18,48.7712 52.8467,48.6045 54.5,47.5 Z" />
    </g>
    <g>
        <path style="opacity:0.01" fill="currentColor"
            d="M 147.5,48.5 C 147.328,49.4916 147.662,50.1583 148.5,50.5C 148.5,51.1667 148.5,51.8333 148.5,52.5C 148.167,52.5 147.833,52.5 147.5,52.5C 146.356,51.8174 146.356,52.1507 147.5,53.5C 147.672,54.4916 147.338,55.1583 146.5,55.5C 146.5,54.8333 146.167,54.5 145.5,54.5C 145.259,52.1016 145.926,50.1016 147.5,48.5 Z" />
    </g>
    <g>
        <path style="opacity:0.007" fill="currentColor"
            d="M 46.5,52.5 C 45.8333,52.5 45.5,52.8333 45.5,53.5C 45.1667,53.5 44.8333,53.5 44.5,53.5C 44.7107,51.5759 45.3774,51.2426 46.5,52.5 Z" />
    </g>
    <g>
        <path style="opacity:0.635" fill="#9291be"
            d="M 120.5,29.5 C 121.167,30.5 121.833,31.5 122.5,32.5C 122.198,35.0593 122.532,37.3926 123.5,39.5C 124.045,45.4632 123.379,51.1299 121.5,56.5C 119.5,56.5 117.5,56.5 115.5,56.5C 117.438,54.8372 119.772,54.1706 122.5,54.5C 122.546,46.0922 121.879,37.7589 120.5,29.5 Z" />
    </g>
    <g>
        <path style="opacity:0.009" fill="currentColor"
            d="M 145.5,54.5 C 145.263,55.791 145.596,56.791 146.5,57.5C 146.5,58.1667 146.5,58.8333 146.5,59.5C 146.167,59.5 145.833,59.5 145.5,59.5C 144.215,60.5202 144.215,62.1869 145.5,64.5C 145.5,70.1667 145.5,75.8333 145.5,81.5C 144.686,83.631 144.186,85.9644 144,88.5C 142,78.1667 142,67.8333 144,57.5C 144.232,56.2625 144.732,55.2625 145.5,54.5 Z" />
    </g>
    <g>
        <path style="opacity:0.006" fill="currentColor"
            d="M 121.5,57.5 C 121.5,57.1667 121.5,56.8333 121.5,56.5C 124.167,56.8333 124.167,57.1667 121.5,57.5 Z" />
    </g>
    <g>
        <path style="opacity:0.012" fill="currentColor"
            d="M 115.5,58.5 C 115.5,58.1667 115.5,57.8333 115.5,57.5C 117.5,57.5 119.5,57.5 121.5,57.5C 119.735,58.4614 117.735,58.7947 115.5,58.5 Z" />
    </g>
    <g>
        <path style="opacity:0.678" fill="#6363a1"
            d="M 147.5,52.5 C 147.833,52.5 148.167,52.5 148.5,52.5C 148.59,55.1522 147.924,57.4855 146.5,59.5C 146.5,58.8333 146.5,58.1667 146.5,57.5C 146.5,56.8333 146.5,56.1667 146.5,55.5C 147.338,55.1583 147.672,54.4916 147.5,53.5C 147.5,53.1667 147.5,52.8333 147.5,52.5 Z" />
    </g>
    <g>
        <path style="opacity:0.012" fill="currentColor"
            d="M 104.5,61.5 C 104.5,61.1667 104.5,60.8333 104.5,60.5C 105.833,60.5 107.167,60.5 108.5,60.5C 107.432,61.4345 106.099,61.7678 104.5,61.5 Z" />
    </g>
    <g>
        <path style="opacity:0.008" fill="currentColor"
            d="M 36.5,61.5 C 37.1667,61.5 37.5,61.8333 37.5,62.5C 37.6716,63.4916 37.3382,64.1583 36.5,64.5C 36.1667,63.1667 35.8333,63.1667 35.5,64.5C 34.1667,64.8333 34.1667,65.1667 35.5,65.5C 35.1667,66.5 34.5,67.1667 33.5,67.5C 33.0679,68.7095 32.4013,69.7095 31.5,70.5C 31.1667,69.1667 30.8333,69.1667 30.5,70.5C 29.1667,70.8333 29.1667,71.1667 30.5,71.5C 29.1891,74.1354 27.5224,76.4687 25.5,78.5C 22.6704,84.8302 19.337,90.8302 15.5,96.5C 15.6716,95.5084 15.3382,94.8417 14.5,94.5C 19.5874,81.9888 26.9207,70.9888 36.5,61.5 Z" />
    </g>
    <g>
        <path style="opacity:0.013" fill="currentColor"
            d="M 93.5,65.5 C 93.5,65.1667 93.5,64.8333 93.5,64.5C 94.5,64.5 95.5,64.5 96.5,64.5C 95.791,65.404 94.791,65.7373 93.5,65.5 Z" />
    </g>
    <g>
        <path style="opacity:0.16" fill="currentColor"
            d="M 176.5,30.5 C 176.5,31.1667 176.833,31.5 177.5,31.5C 176.076,34.0179 174.409,36.3512 172.5,38.5C 167.133,54.8642 166.133,71.5309 169.5,88.5C 170.458,90.3024 171.125,92.3024 171.5,94.5C 172.736,96.649 173.736,98.9823 174.5,101.5C 176.25,102.659 177.25,104.326 177.5,106.5C 177.167,106.5 176.833,106.5 176.5,106.5C 176.167,105.167 175.833,105.167 175.5,106.5C 170.777,101.055 167.611,94.7217 166,87.5C 161.69,70.3549 163.023,53.6882 170,37.5C 170.949,35.9069 172.115,34.5736 173.5,33.5C 173.856,31.8102 174.856,30.8102 176.5,30.5 Z" />
    </g>
    <g>
        <path style="opacity:0.008" fill="currentColor"
            d="M 92.5,65.5 C 92.8333,65.5 93.1667,65.5 93.5,65.5C 93.3147,66.1701 92.9813,66.1701 92.5,65.5 Z" />
    </g>
    <g>
        <path style="opacity:0.016" fill="currentColor"
            d="M 88.5,67.5 C 88.5,67.1667 88.5,66.8333 88.5,66.5C 89.8333,66.5 91.1667,66.5 92.5,66.5C 91.4324,67.4345 90.099,67.7678 88.5,67.5 Z" />
    </g>
    <g>
        <path style="opacity:0.016" fill="currentColor"
            d="M 87.5,67.5 C 87.8333,67.5 88.1667,67.5 88.5,67.5C 88.3147,68.1701 87.9813,68.1701 87.5,67.5 Z" />
    </g>
    <g>
        <path style="opacity:0.016" fill="currentColor"
            d="M 78.5,73.5 C 78.8333,73.5 79.1667,73.5 79.5,73.5C 79.3147,74.1701 78.9813,74.1701 78.5,73.5 Z" />
    </g>
    <g>
        <path style="opacity:0.184" fill="currentColor"
            d="M 115.5,56.5 C 115.5,56.8333 115.5,57.1667 115.5,57.5C 110.167,57.8333 110.167,58.1667 115.5,58.5C 113.401,59.6118 111.067,60.2785 108.5,60.5C 107.167,59.1667 105.833,59.1667 104.5,60.5C 101.833,60.8333 101.833,61.1667 104.5,61.5C 102.152,63.0972 99.4855,64.0972 96.5,64.5C 95.5,63.1667 94.5,63.1667 93.5,64.5C 92.8333,64.5 92.5,64.8333 92.5,65.5C 90.901,65.2322 89.5676,65.5655 88.5,66.5C 87.8333,66.5 87.5,66.8333 87.5,67.5C 86.1667,67.8333 86.1667,68.1667 87.5,68.5C 85.3709,70.9501 82.7043,72.6167 79.5,73.5C 79.1667,72.1667 78.8333,72.1667 78.5,73.5C 77.1667,73.8333 77.1667,74.1667 78.5,74.5C 76.1215,76.8777 73.4549,78.8777 70.5,80.5C 70.1667,79.1667 69.8333,79.1667 69.5,80.5C 68.1667,80.8333 68.1667,81.1667 69.5,81.5C 69.5,83.5 68.5,84.5 66.5,84.5C 66.1667,83.1667 65.8333,83.1667 65.5,84.5C 64.8333,84.5 64.5,84.8333 64.5,85.5C 63.1667,85.8333 63.1667,86.1667 64.5,86.5C 64.6716,87.4916 64.3382,88.1583 63.5,88.5C 63.1667,87.1667 62.8333,87.1667 62.5,88.5C 61.8333,88.5 61.5,88.8333 61.5,89.5C 60.8333,89.5 60.5,89.8333 60.5,90.5C 59.8333,90.5 59.5,90.8333 59.5,91.5C 58.1667,91.8333 58.1667,92.1667 59.5,92.5C 59.573,94.0269 58.9063,95.0269 57.5,95.5C 57.1667,94.1667 56.8333,94.1667 56.5,95.5C 55.8333,95.8333 55.1667,96.1667 54.5,96.5C 68.6934,73.8972 89.0267,60.5639 115.5,56.5 Z" />
    </g>
    <g>
        <path style="opacity:0.024" fill="currentColor"
            d="M 69.5,80.5 C 69.8333,80.5 70.1667,80.5 70.5,80.5C 70.3147,81.1701 69.9813,81.1701 69.5,80.5 Z" />
    </g>
    <g>
        <path style="opacity:0.012" fill="currentColor"
            d="M 116.5,81.5 C 118.966,80.3659 121.633,80.1993 124.5,81C 121.854,81.4974 119.187,81.6641 116.5,81.5 Z" />
    </g>
    <g>
        <path style="opacity:0.02" fill="currentColor"
            d="M 65.5,84.5 C 65.8333,84.5 66.1667,84.5 66.5,84.5C 66.3147,85.1701 65.9813,85.1701 65.5,84.5 Z" />
    </g>
    <g>
        <path style="opacity:0.999" fill="#fb7412"
            d="M 124.5,84.5 C 125.564,95.1399 126.231,105.807 126.5,116.5C 126.167,116.5 125.833,116.5 125.5,116.5C 121.327,116.667 117.66,118 114.5,120.5C 114.167,120.5 113.833,120.5 113.5,120.5C 111.77,121.026 110.436,122.026 109.5,123.5C 107.833,124.5 106.5,125.833 105.5,127.5C 105.5,127.833 105.5,128.167 105.5,128.5C 104.833,128.5 104.5,128.833 104.5,129.5C 103.833,129.5 103.5,129.833 103.5,130.5C 103.167,130.5 102.833,130.5 102.5,130.5C 96.1823,137.64 94.0156,145.973 96,155.5C 96.3392,158.036 96.8392,160.536 97.5,163C 97.8361,164.03 98.5028,164.53 99.5,164.5C 99.3284,165.492 99.6618,166.158 100.5,166.5C 100.5,166.833 100.5,167.167 100.5,167.5C 108.629,181.064 120.629,186.897 136.5,185C 139.79,184.275 142.79,183.108 145.5,181.5C 147.674,181.25 149.341,180.25 150.5,178.5C 154.895,176.438 157.895,173.104 159.5,168.5C 160.338,168.158 160.672,167.492 160.5,166.5C 161.338,166.158 161.672,165.492 161.5,164.5C 162.338,164.158 162.672,163.492 162.5,162.5C 162.5,162.167 162.5,161.833 162.5,161.5C 164.074,159.898 164.741,157.898 164.5,155.5C 165.434,154.432 165.768,153.099 165.5,151.5C 176.5,151.5 187.5,151.5 198.5,151.5C 197.859,160.373 196.192,169.04 193.5,177.5C 191.659,179.849 190.326,182.515 189.5,185.5C 188.094,185.973 187.427,186.973 187.5,188.5C 183.487,192.515 179.821,196.848 176.5,201.5C 176.167,201.5 175.833,201.5 175.5,201.5C 174.5,201.833 173.833,202.5 173.5,203.5C 173.5,203.833 173.5,204.167 173.5,204.5C 172.833,204.5 172.5,204.833 172.5,205.5C 172.167,205.5 171.833,205.5 171.5,205.5C 169.973,205.427 168.973,206.094 168.5,207.5C 167.833,207.5 167.5,207.833 167.5,208.5C 166.833,208.5 166.5,208.833 166.5,209.5C 165.508,209.328 164.842,209.662 164.5,210.5C 164.167,210.5 163.833,210.5 163.5,210.5C 163.167,210.5 162.833,210.5 162.5,210.5C 147.561,217.62 131.894,219.954 115.5,217.5C 113.485,216.076 111.152,215.41 108.5,215.5C 106.898,213.926 104.898,213.259 102.5,213.5C 102.158,212.662 101.492,212.328 100.5,212.5C 98.7969,209.368 96.1302,207.701 92.5,207.5C 92.0269,206.094 91.0269,205.427 89.5,205.5C 87.1002,202.097 84.1002,199.43 80.5,197.5C 79.5806,194.911 77.914,192.911 75.5,191.5C 75.573,189.973 74.9063,188.973 73.5,188.5C 69.5153,180.858 66.3486,172.858 64,164.5C 62.8583,156.875 62.3583,149.208 62.5,141.5C 64.9412,135.826 66.6079,129.826 67.5,123.5C 68.3382,123.158 68.6716,122.492 68.5,121.5C 69.3382,121.158 69.6716,120.492 69.5,119.5C 70.3382,119.158 70.6716,118.492 70.5,117.5C 71.3382,117.158 71.6716,116.492 71.5,115.5C 74.2085,112.792 76.5419,109.792 78.5,106.5C 80.5,105.167 82.1667,103.5 83.5,101.5C 86.4274,100.243 88.7607,98.2427 90.5,95.5C 92.4044,95.2624 93.7377,94.2624 94.5,92.5C 101.864,89.4921 109.197,86.4921 116.5,83.5C 117.622,82.8442 118.955,82.5108 120.5,82.5C 122.333,82.5854 123.666,83.2521 124.5,84.5 Z" />
    </g>
    <g>
        <path style="opacity:0.02" fill="currentColor"
            d="M 124.5,84.5 C 125.29,85.6085 125.79,86.9419 126,88.5C 126.667,83.1667 127.333,83.1667 128,88.5C 129.132,97.4803 129.466,106.48 129,115.5C 128.578,117.426 127.411,118.426 125.5,118.5C 125.5,118.167 125.5,117.833 125.5,117.5C 126.167,117.5 126.5,117.167 126.5,116.5C 126.231,105.807 125.564,95.1399 124.5,84.5 Z" />
    </g>
    <g>
        <path style="opacity:0.024" fill="currentColor"
            d="M 64.5,85.5 C 64.8333,85.5 65.1667,85.5 65.5,85.5C 65.3147,86.1701 64.9813,86.1701 64.5,85.5 Z" />
    </g>
    <g>
        <path style="opacity:0.267" fill="currentColor"
            d="M 145.5,82.5 C 146.785,85.5885 147.451,88.9219 147.5,92.5C 145.989,89.4557 145.322,86.1224 145.5,82.5 Z" />
    </g>
    <g>
        <path style="opacity:0.008" fill="currentColor"
            d="M 62.5,88.5 C 62.8333,88.5 63.1667,88.5 63.5,88.5C 63.3147,89.1701 62.9813,89.1701 62.5,88.5 Z" />
    </g>
    <g>
        <path style="opacity:0.016" fill="currentColor"
            d="M 61.5,89.5 C 61.8333,89.5 62.1667,89.5 62.5,89.5C 62.3147,90.1701 61.9813,90.1701 61.5,89.5 Z" />
    </g>
    <g>
        <path style="opacity:0.008" fill="currentColor"
            d="M 60.5,90.5 C 60.8333,90.5 61.1667,90.5 61.5,90.5C 61.3147,91.1701 60.9813,91.1701 60.5,90.5 Z" />
    </g>
    <g>
        <path style="opacity:0.012" fill="currentColor"
            d="M 59.5,91.5 C 59.8333,91.5 60.1667,91.5 60.5,91.5C 60.3147,92.1701 59.9813,92.1701 59.5,91.5 Z" />
    </g>
    <g>
        <path style="opacity:0.682" fill="currentColor"
            d="M 116.5,83.5 C 109.197,86.4921 101.864,89.4921 94.5,92.5C 94.5,91.8333 94.1667,91.5 93.5,91.5C 94.9142,89.9458 96.5808,88.6125 98.5,87.5C 99.1667,87.8333 99.8333,88.1667 100.5,88.5C 105.598,86.0226 110.931,84.3559 116.5,83.5 Z" />
    </g>
    <g>
        <path style="opacity:0.016" fill="currentColor"
            d="M 14.5,94.5 C 14.3284,95.4916 14.6618,96.1583 15.5,96.5C 15.5979,98.5529 14.9313,100.22 13.5,101.5C 13.7373,102.791 13.404,103.791 12.5,104.5C 12.6716,105.492 12.3382,106.158 11.5,106.5C 11.7373,107.791 11.404,108.791 10.5,109.5C 9.49314,107.523 9.49314,107.857 10.5,110.5C 10.7373,111.791 10.404,112.791 9.5,113.5C 9.73731,114.791 9.40397,115.791 8.5,116.5C 7.49314,114.523 7.49314,114.857 8.5,117.5C 8.76781,119.099 8.43448,120.432 7.5,121.5C 6.57719,118.194 6.57719,118.528 7.5,122.5C 7.76781,124.099 7.43448,125.432 6.5,126.5C 2.98576,155.752 7.98576,183.418 21.5,209.5C 22.8897,210.899 23.8897,212.566 24.5,214.5C 24.1667,214.5 23.8333,214.5 23.5,214.5C 23.5,213.833 23.1667,213.5 22.5,213.5C 22.1667,212.167 21.8333,212.167 21.5,213.5C 19.023,210.562 17.023,207.229 15.5,203.5C 16.6613,201.776 16.4947,200.11 15,198.5C 14.6667,199.167 14.3333,199.833 14,200.5C 0.641969,169.825 -1.0247,138.492 9,106.5C 10.3718,102.186 12.2051,98.1865 14.5,94.5 Z" />
    </g>
    <g>
        <path style="opacity:0.588" fill="currentColor"
            d="M 93.5,91.5 C 94.1667,91.5 94.5,91.8333 94.5,92.5C 93.7377,94.2624 92.4044,95.2624 90.5,95.5C 90.5,95.1667 90.5,94.8333 90.5,94.5C 92.2327,93.9924 92.566,93.159 91.5,92C 92.0944,91.5357 92.7611,91.369 93.5,91.5 Z" />
    </g>
    <g>
        <path style="opacity:0.02" fill="currentColor"
            d="M 56.5,95.5 C 56.8333,95.5 57.1667,95.5 57.5,95.5C 36.8922,131.267 37.5588,166.6 59.5,201.5C 59.3764,202.107 59.0431,202.44 58.5,202.5C 58.1667,201.167 57.8333,201.167 57.5,202.5C 56.0937,202.027 55.427,201.027 55.5,199.5C 54.0937,199.027 53.427,198.027 53.5,196.5C 52.0937,196.027 51.427,195.027 51.5,193.5C 50.6618,193.158 50.3284,192.492 50.5,191.5C 49.6618,191.158 49.3284,190.492 49.5,189.5C 48.6618,189.158 48.3284,188.492 48.5,187.5C 47.6618,187.158 47.3284,186.492 47.5,185.5C 46.6618,185.158 46.3284,184.492 46.5,183.5C 47.8333,183.167 47.8333,182.833 46.5,182.5C 45.6618,182.158 45.3284,181.492 45.5,180.5C 44.6618,180.158 44.3284,179.492 44.5,178.5C 45.8333,178.167 45.8333,177.833 44.5,177.5C 43.596,176.791 43.2627,175.791 43.5,174.5C 42.6618,174.158 42.3284,173.492 42.5,172.5C 43.8333,172.167 43.8333,171.833 42.5,171.5C 42.5,171.167 42.5,170.833 42.5,170.5C 41.596,169.791 41.2627,168.791 41.5,167.5C 40.5655,166.432 40.2322,165.099 40.5,163.5C 41.8333,163.167 41.8333,162.833 40.5,162.5C 40.5,162.167 40.5,161.833 40.5,161.5C 39.0103,156.923 38.3437,152.09 38.5,147C 38.4067,138.467 39.7401,130.301 42.5,122.5C 42.4021,120.447 43.0687,118.78 44.5,117.5C 45.8333,117.167 45.8333,116.833 44.5,116.5C 46.2659,108.968 49.5992,102.301 54.5,96.5C 55.1667,96.1667 55.8333,95.8333 56.5,95.5 Z" />
    </g>
    <g>
        <path style="opacity:0.525" fill="currentColor"
            d="M 90.5,94.5 C 89.1667,94.8333 89.1667,95.1667 90.5,95.5C 88.7607,98.2427 86.4274,100.243 83.5,101.5C 83.5,101.167 83.5,100.833 83.5,100.5C 84.1667,100.5 84.5,100.167 84.5,99.5C 87.0924,98.1486 88.4257,96.3153 88.5,94C 89.4368,93.3083 90.1034,93.475 90.5,94.5 Z" />
    </g>
    <g>
        <path style="opacity:0.329" fill="#9b99c2"
            d="M 147.5,92.5 C 149.863,96.5514 151.863,100.885 153.5,105.5C 153.167,105.5 152.833,105.5 152.5,105.5C 152.5,104.833 152.167,104.5 151.5,104.5C 149.601,100.698 148.267,96.6983 147.5,92.5 Z" />
    </g>
    <g>
        <path style="opacity:0.007" fill="currentColor"
            d="M 84.5,99.5 C 83.8333,99.5 83.5,99.8333 83.5,100.5C 82.1667,100.833 82.1667,101.167 83.5,101.5C 82.1667,103.5 80.5,105.167 78.5,106.5C 78.1667,105.167 77.8333,105.167 77.5,106.5C 76.8333,106.5 76.5,106.833 76.5,107.5C 75.475,107.103 75.3083,106.437 76,105.5C 78.1667,103.333 80.3333,101.167 82.5,99C 83.4368,98.3083 84.1034,98.475 84.5,99.5 Z" />
    </g>
    <g>
        <path style="opacity:0.009" fill="currentColor"
            d="M 151.5,104.5 C 152.167,104.5 152.5,104.833 152.5,105.5C 152.833,105.5 153.167,105.5 153.5,105.5C 153.5,105.833 153.5,106.167 153.5,106.5C 155.984,108.8 157.984,111.467 159.5,114.5C 158.603,113.402 157.77,113.402 157,114.5C 154.64,111.64 152.473,108.64 150.5,105.5C 150.624,104.893 150.957,104.56 151.5,104.5 Z" />
    </g>
    <g>
        <path style="opacity:0.051" fill="currentColor"
            d="M 245.5,108.5 C 245.833,108.5 246.167,108.5 246.5,108.5C 246.262,110.404 245.262,111.738 243.5,112.5C 243.167,111.167 242.833,111.167 242.5,112.5C 242.167,112.5 241.833,112.5 241.5,112.5C 241.427,110.973 242.094,109.973 243.5,109.5C 243.833,110.833 244.167,110.833 244.5,109.5C 245.167,109.5 245.5,109.167 245.5,108.5 Z" />
    </g>
    <g>
        <path style="opacity:0.007" fill="currentColor"
            d="M 77.5,106.5 C 77.8333,106.5 78.1667,106.5 78.5,106.5C 76.5419,109.792 74.2085,112.792 71.5,115.5C 71.6716,116.492 71.3382,117.158 70.5,117.5C 70.6716,118.492 70.3382,119.158 69.5,119.5C 69.6716,120.492 69.3382,121.158 68.5,121.5C 68.6716,122.492 68.3382,123.158 67.5,123.5C 66.6079,129.826 64.9412,135.826 62.5,141.5C 62.5079,138.455 62.8413,135.455 63.5,132.5C 64.404,131.791 64.7373,130.791 64.5,129.5C 65.8333,128.5 65.8333,127.5 64.5,126.5C 65.7632,121.968 67.5965,117.635 70,113.5C 71.7732,110.567 73.9399,108.567 76.5,107.5C 77.1667,107.5 77.5,107.167 77.5,106.5 Z" />
    </g>
    <g>
        <path style="opacity:0.008" fill="currentColor"
            d="M 242.5,112.5 C 242.833,112.5 243.167,112.5 243.5,112.5C 243.315,113.17 242.981,113.17 242.5,112.5 Z" />
    </g>
    <g>
        <path style="opacity:0.006" fill="currentColor"
            d="M 241.5,113.5 C 241.833,113.5 242.167,113.5 242.5,113.5C 241.167,116.833 238.833,119.167 235.5,120.5C 235.5,120.167 235.5,119.833 235.5,119.5C 236.833,119.167 236.833,118.833 235.5,118.5C 236.5,116.833 237.833,115.5 239.5,114.5C 239.833,115.833 240.167,115.833 240.5,114.5C 241.167,114.5 241.5,114.167 241.5,113.5 Z" />
    </g>
    <g>
        <path style="opacity:0.008" fill="currentColor"
            d="M 124.5,118.5 C 124.833,118.5 125.167,118.5 125.5,118.5C 125.315,119.17 124.981,119.17 124.5,118.5 Z" />
    </g>
    <g>
        <path style="opacity:0.009" fill="currentColor"
            d="M 125.5,116.5 C 125.5,116.833 125.5,117.167 125.5,117.5C 124.833,117.5 124.5,117.833 124.5,118.5C 117.833,118.833 117.833,119.167 124.5,119.5C 120.141,120.955 115.808,122.622 111.5,124.5C 111.158,123.662 110.492,123.328 109.5,123.5C 110.436,122.026 111.77,121.026 113.5,120.5C 116.143,121.507 116.477,121.507 114.5,120.5C 117.66,118 121.327,116.667 125.5,116.5 Z" />
    </g>
    <g>
        <path style="opacity:0.007" fill="currentColor"
            d="M 159.5,114.5 C 162.427,115.757 164.761,117.757 166.5,120.5C 165.167,120.833 165.167,121.167 166.5,121.5C 166.5,122.167 166.833,122.5 167.5,122.5C 167.5,122.833 167.5,123.167 167.5,123.5C 164.968,123.171 163.968,122.005 164.5,120C 162.627,118.296 160.96,116.463 159.5,114.5 Z" />
    </g>
    <g>
        <path style="opacity:0.008" fill="currentColor"
            d="M 234.5,120.5 C 234.833,120.5 235.167,120.5 235.5,120.5C 235.315,121.17 234.981,121.17 234.5,120.5 Z" />
    </g>
    <g>
        <path style="opacity:0.005" fill="currentColor"
            d="M 235.5,118.5 C 235.5,118.833 235.5,119.167 235.5,119.5C 234.833,119.5 234.5,119.833 234.5,120.5C 233.833,120.5 233.5,120.833 233.5,121.5C 232.167,121.833 232.167,122.167 233.5,122.5C 233.027,123.906 232.027,124.573 230.5,124.5C 230.158,123.662 229.492,123.328 228.5,123.5C 230.55,121.453 232.883,119.786 235.5,118.5 Z" />
    </g>
    <g>
        <path style="opacity:0.008" fill="currentColor"
            d="M 233.5,121.5 C 233.833,121.5 234.167,121.5 234.5,121.5C 234.315,122.17 233.981,122.17 233.5,121.5 Z" />
    </g>
    <g>
        <path style="opacity:0.008" fill="currentColor"
            d="M 166.5,121.5 C 166.5,121.167 166.5,120.833 166.5,120.5C 168.404,120.738 169.738,121.738 170.5,123.5C 171.492,123.328 172.158,123.662 172.5,124.5C 171.167,124.833 171.167,125.167 172.5,125.5C 172.5,125.833 172.5,126.167 172.5,126.5C 170.326,126.25 168.659,125.25 167.5,123.5C 168.833,123.167 168.833,122.833 167.5,122.5C 166.833,122.5 166.5,122.167 166.5,121.5 Z" />
    </g>
    <g>
        <path style="opacity:0.019" fill="currentColor"
            d="M 109.5,123.5 C 109.842,124.338 110.508,124.672 111.5,124.5C 109.194,127.473 106.527,130.14 103.5,132.5C 103.5,131.833 103.5,131.167 103.5,130.5C 104.167,130.5 104.5,130.167 104.5,129.5C 105.167,129.5 105.5,129.167 105.5,128.5C 106.833,128.167 106.833,127.833 105.5,127.5C 106.5,125.833 107.833,124.5 109.5,123.5 Z" />
    </g>
    <g>
        <path style="opacity:0.009" fill="currentColor"
            d="M 228.5,123.5 C 228.842,124.338 229.508,124.672 230.5,124.5C 224.724,129.156 218.058,131.99 210.5,133C 203.167,133.667 195.833,133.667 188.5,133C 185.896,132.61 183.562,131.776 181.5,130.5C 185.5,130.167 185.5,129.833 181.5,129.5C 181.5,129.167 181.5,128.833 181.5,128.5C 184.228,128.171 186.562,128.837 188.5,130.5C 185.194,131.423 185.528,131.423 189.5,130.5C 203.142,131.505 216.142,129.171 228.5,123.5 Z" />
    </g>
    <g>
        <path style="opacity:0.01" fill="currentColor"
            d="M 64.5,126.5 C 64.5,127.5 64.5,128.5 64.5,129.5C 63.596,130.209 63.2627,131.209 63.5,132.5C 62.2056,130.32 62.5389,128.32 64.5,126.5 Z" />
    </g>
    <g>
        <path style="opacity:0.008" fill="currentColor"
            d="M 172.5,126.5 C 173.167,126.5 173.833,126.5 174.5,126.5C 175.167,127.833 175.833,127.833 176.5,126.5C 177.492,126.328 178.158,126.662 178.5,127.5C 179.791,127.263 180.791,127.596 181.5,128.5C 178.833,128.833 178.833,129.167 181.5,129.5C 181.5,129.833 181.5,130.167 181.5,130.5C 178.057,129.941 175.057,128.607 172.5,126.5 Z" />
    </g>
    <g>
        <path style="opacity:0.013" fill="currentColor"
            d="M 61.5,158.5 C 62.1667,158.5 62.5,158.833 62.5,159.5C 61.1667,161.5 61.1667,163.5 62.5,165.5C 63.1667,165.5 63.5,165.833 63.5,166.5C 62.1667,167.167 62.1667,167.833 63.5,168.5C 64.1667,168.5 64.5,168.833 64.5,169.5C 63.1667,170.167 63.1667,170.833 64.5,171.5C 64.5,171.833 64.5,172.167 64.5,172.5C 64.5,173.5 64.5,174.5 64.5,175.5C 59.9458,164.716 58.4458,153.383 60,141.5C 60.1728,147.348 60.6728,153.015 61.5,158.5 Z" />
    </g>
    <g>
        <path style="opacity:0.016" fill="currentColor"
            d="M 98.5,141.5 C 98.8333,141.5 99.1667,141.5 99.5,141.5C 99.8016,144.059 99.4682,146.393 98.5,148.5C 98.5,146.167 98.5,143.833 98.5,141.5 Z" />
    </g>
    <g>
        <path style="opacity:0.022" fill="currentColor"
            d="M 256.5,147.5 C 246.167,147.5 235.833,147.5 225.5,147.5C 233.99,146.67 242.657,146.17 251.5,146C 242.833,145.667 234.167,145.333 225.5,145C 236.515,144.168 247.515,144.334 258.5,145.5C 257.757,146.182 257.091,146.849 256.5,147.5 Z" />
    </g>
    <g>
        <path style="opacity:0.008" fill="currentColor"
            d="M 164.5,148.5 C 175.659,147.341 186.992,147.174 198.5,148C 187.172,148.5 175.838,148.667 164.5,148.5 Z" />
    </g>
    <g>
        <path style="opacity:0.016" fill="currentColor"
            d="M 224.5,150.5 C 224.5,151.833 224.5,153.167 224.5,154.5C 224.551,161.578 223.218,168.245 220.5,174.5C 220.737,173.209 220.404,172.209 219.5,171.5C 220.577,163.478 221.744,155.478 223,147.5C 223.232,148.737 223.732,149.737 224.5,150.5 Z" />
    </g>
    <g>
        <path style="opacity:0.693" fill="#9091bd"
            d="M 225.5,147.5 C 235.833,147.5 246.167,147.5 256.5,147.5C 257.167,147.5 257.833,147.5 258.5,147.5C 258.5,147.833 258.5,148.167 258.5,148.5C 247.5,148.5 236.5,148.5 225.5,148.5C 225.795,150.735 225.461,152.735 224.5,154.5C 224.5,153.167 224.5,151.833 224.5,150.5C 224.263,149.209 224.596,148.209 225.5,147.5 Z" />
    </g>
    <g>
        <path style="opacity:0.008" fill="currentColor"
            d="M 258.5,147.5 C 259.496,147.414 260.329,147.748 261,148.5C 261.338,174.822 254.004,198.822 239,220.5C 238.329,221.252 237.496,221.586 236.5,221.5C 236.5,220.833 236.167,220.5 235.5,220.5C 235.427,218.973 236.094,217.973 237.5,217.5C 237.833,218.833 238.167,218.833 238.5,217.5C 239.833,217.167 239.833,216.833 238.5,216.5C 238.328,215.508 238.662,214.842 239.5,214.5C 239.328,213.508 239.662,212.842 240.5,212.5C 240.833,213.833 241.167,213.833 241.5,212.5C 242.833,212.167 242.833,211.833 241.5,211.5C 241.328,210.508 241.662,209.842 242.5,209.5C 242.328,208.508 242.662,207.842 243.5,207.5C 243.328,206.508 243.662,205.842 244.5,205.5C 244.328,204.508 244.662,203.842 245.5,203.5C 245.328,202.508 245.662,201.842 246.5,201.5C 246.328,200.508 246.662,199.842 247.5,199.5C 248.167,199.5 248.5,199.167 248.5,198.5C 249.833,198.167 249.833,197.833 248.5,197.5C 248.263,196.209 248.596,195.209 249.5,194.5C 249.328,193.508 249.662,192.842 250.5,192.5C 251.833,192.167 251.833,191.833 250.5,191.5C 250.328,190.508 250.662,189.842 251.5,189.5C 251.833,190.833 252.167,190.833 252.5,189.5C 253.833,188.5 253.833,187.5 252.5,186.5C 252.5,186.167 252.5,185.833 252.5,185.5C 252.833,185.5 253.167,185.5 253.5,185.5C 254.338,185.158 254.672,184.492 254.5,183.5C 255.833,182.833 255.833,182.167 254.5,181.5C 254.5,181.167 254.5,180.833 254.5,180.5C 255.167,180.5 255.5,180.167 255.5,179.5C 256.404,178.791 256.737,177.791 256.5,176.5C 257.833,174.833 257.833,173.167 256.5,171.5C 256.741,166.306 257.407,161.306 258.5,156.5C 258.5,153.833 258.5,151.167 258.5,148.5C 258.5,148.167 258.5,147.833 258.5,147.5 Z" />
    </g>
    <g>
        <path style="opacity:0.416" fill="currentColor"
            d="M 102.5,130.5 C 102.328,131.492 102.662,132.158 103.5,132.5C 102.403,135.686 101.07,138.686 99.5,141.5C 99.1667,138.833 98.8333,138.833 98.5,141.5C 97.1667,143.833 97.1667,146.167 98.5,148.5C 98.949,152.527 99.6156,156.527 100.5,160.5C 100.154,161.849 99.821,163.183 99.5,164.5C 98.5028,164.53 97.8361,164.03 97.5,163C 96.8392,160.536 96.3392,158.036 96,155.5C 94.0156,145.973 96.1823,137.64 102.5,130.5 Z" />
    </g>
    <g>
        <path style="opacity:0.031" fill="currentColor"
            d="M 164.5,150.5 C 164.5,152.167 164.5,153.833 164.5,155.5C 164.741,157.898 164.074,159.898 162.5,161.5C 161.167,161.833 161.167,162.167 162.5,162.5C 162.672,163.492 162.338,164.158 161.5,164.5C 161.672,165.492 161.338,166.158 160.5,166.5C 160.672,167.492 160.338,168.158 159.5,168.5C 157.895,173.104 154.895,176.438 150.5,178.5C 151.29,177.206 152.29,176.039 153.5,175C 153.167,174.667 152.833,174.333 152.5,174C 153.833,173.333 155.167,172.667 156.5,172C 156.043,171.586 155.709,171.086 155.5,170.5C 159.168,164.328 161.335,157.661 162,150.5C 162.77,149.402 163.603,149.402 164.5,150.5 Z" />
    </g>
    <g>
        <path style="opacity:0.675" fill="#c78367"
            d="M 164.5,150.5 C 176.012,150.172 187.346,150.505 198.5,151.5C 187.5,151.5 176.5,151.5 165.5,151.5C 165.768,153.099 165.434,154.432 164.5,155.5C 164.5,153.833 164.5,152.167 164.5,150.5 Z" />
    </g>
    <g>
        <path style="opacity:0.01" fill="currentColor"
            d="M 164.5,150.5 C 175.988,149.505 187.655,149.172 199.5,149.5C 199.335,152.85 199.502,156.183 200,159.5C 200.333,156.5 200.667,153.5 201,150.5C 201.928,163.395 198.762,175.061 191.5,185.5C 191.167,184.167 190.833,184.167 190.5,185.5C 190.167,185.5 189.833,185.5 189.5,185.5C 190.326,182.515 191.659,179.849 193.5,177.5C 196.192,169.04 197.859,160.373 198.5,151.5C 187.346,150.505 176.012,150.172 164.5,150.5 Z" />
    </g>
    <g>
        <path style="opacity:0.01" fill="currentColor"
            d="M 219.5,171.5 C 219.263,172.791 219.596,173.791 220.5,174.5C 220.737,175.791 220.404,176.791 219.5,177.5C 219.672,176.508 219.338,175.842 218.5,175.5C 218.232,173.901 218.566,172.568 219.5,171.5 Z" />
    </g>
    <g>
        <path style="opacity:0.157" fill="currentColor"
            d="M 256.5,171.5 C 256.5,173.167 256.5,174.833 256.5,176.5C 255.596,177.209 255.263,178.209 255.5,179.5C 255.167,179.5 254.833,179.5 254.5,179.5C 254.565,176.572 255.232,173.905 256.5,171.5 Z" />
    </g>
    <g>
        <path style="opacity:0.011" fill="currentColor"
            d="M 62.5,141.5 C 62.3583,149.208 62.8583,156.875 64,164.5C 66.3486,172.858 69.5153,180.858 73.5,188.5C 73.1667,188.5 72.8333,188.5 72.5,188.5C 71.719,186.678 70.5523,186.011 69,186.5C 66.9281,183.029 65.4281,179.362 64.5,175.5C 65.8333,174.5 65.8333,173.5 64.5,172.5C 64.5,172.167 64.5,171.833 64.5,171.5C 64.5,170.833 64.5,170.167 64.5,169.5C 64.5,168.833 64.1667,168.5 63.5,168.5C 63.5,167.833 63.5,167.167 63.5,166.5C 63.5,165.833 63.1667,165.5 62.5,165.5C 62.5,163.5 62.5,161.5 62.5,159.5C 62.5,158.833 62.1667,158.5 61.5,158.5C 61.1778,152.642 61.5111,146.975 62.5,141.5 Z" />
    </g>
    <g>
        <path style="opacity:0.009" fill="currentColor"
            d="M 218.5,175.5 C 218.328,176.492 218.662,177.158 219.5,177.5C 219.737,178.791 219.404,179.791 218.5,180.5C 218.672,179.508 218.338,178.842 217.5,178.5C 217.263,177.209 217.596,176.209 218.5,175.5 Z" />
    </g>
    <g>
        <path style="opacity:0.013" fill="currentColor"
            d="M 217.5,178.5 C 217.328,179.492 217.662,180.158 218.5,180.5C 218.672,181.492 218.338,182.158 217.5,182.5C 217.5,181.833 217.167,181.5 216.5,181.5C 216.263,180.209 216.596,179.209 217.5,178.5 Z" />
    </g>
    <g>
        <path style="opacity:0.227" fill="currentColor"
            d="M 150.5,178.5 C 149.341,180.25 147.674,181.25 145.5,181.5C 146.659,179.75 148.326,178.75 150.5,178.5 Z" />
    </g>
    <g>
        <path style="opacity:0.863" fill="#726aa8"
            d="M 254.5,179.5 C 254.5,179.833 254.5,180.167 254.5,180.5C 254.5,180.833 254.5,181.167 254.5,181.5C 254.5,182.167 254.5,182.833 254.5,183.5C 253.662,183.842 253.328,184.508 253.5,185.5C 253.167,185.5 252.833,185.5 252.5,185.5C 252.054,182.99 252.72,180.99 254.5,179.5 Z" />
    </g>
    <g>
        <path style="opacity:0.822" fill="currentColor"
            d="M 99.5,164.5 C 100.397,165.598 101.23,165.598 102,164.5C 103.772,168.268 106.272,171.435 109.5,174C 108.833,174.333 108.167,174.667 107.5,175C 111.245,176.37 114.912,178.037 118.5,180C 127.488,181.34 136.488,181.84 145.5,181.5C 142.79,183.108 139.79,184.275 136.5,185C 120.629,186.897 108.629,181.064 100.5,167.5C 101.833,167.167 101.833,166.833 100.5,166.5C 99.6618,166.158 99.3284,165.492 99.5,164.5 Z" />
    </g>
    <g>
        <path style="opacity:0.011" fill="currentColor"
            d="M 216.5,181.5 C 217.167,181.5 217.5,181.833 217.5,182.5C 217.293,185.241 216.293,187.574 214.5,189.5C 214.672,190.492 214.338,191.158 213.5,191.5C 212.167,191.833 212.167,192.167 213.5,192.5C 213.068,193.71 212.401,194.71 211.5,195.5C 211.068,196.71 210.401,197.71 209.5,198.5C 209.068,199.71 208.401,200.71 207.5,201.5C 207.167,202.5 206.5,203.167 205.5,203.5C 204.833,203.5 204.5,203.833 204.5,204.5C 203.833,204.5 203.5,204.833 203.5,205.5C 202.833,205.5 202.5,205.833 202.5,206.5C 201.833,206.5 201.5,206.833 201.5,207.5C 200.167,207.833 200.167,208.167 201.5,208.5C 201.5,209.167 201.167,209.5 200.5,209.5C 199.833,209.5 199.5,209.833 199.5,210.5C 198.833,210.5 198.5,210.833 198.5,211.5C 197.833,211.5 197.5,211.833 197.5,212.5C 196.833,212.5 196.5,212.833 196.5,213.5C 195.833,213.5 195.5,213.833 195.5,214.5C 194.761,214.631 194.094,214.464 193.5,214C 203.059,204.336 210.726,193.503 216.5,181.5 Z" />
    </g>
    <g>
        <path style="opacity:0.059" fill="currentColor"
            d="M 72.5,188.5 C 72.8333,189.833 73.1667,189.833 73.5,188.5C 74.9063,188.973 75.573,189.973 75.5,191.5C 75.1667,191.5 74.8333,191.5 74.5,191.5C 74.1667,190.167 73.8333,190.167 73.5,191.5C 71.6182,190.779 71.2848,189.779 72.5,188.5 Z" />
    </g>
    <g>
        <path style="opacity:0.006" fill="currentColor"
            d="M 189.5,185.5 C 189.833,186.833 190.167,186.833 190.5,185.5C 190.833,185.5 191.167,185.5 191.5,185.5C 188.338,192.336 183.671,198.003 177.5,202.5C 177.5,201.833 177.167,201.5 176.5,201.5C 179.821,196.848 183.487,192.515 187.5,188.5C 187.427,186.973 188.094,185.973 189.5,185.5 Z" />
    </g>
    <g>
        <path style="opacity:0.031" fill="currentColor"
            d="M 73.5,191.5 C 73.8333,191.5 74.1667,191.5 74.5,191.5C 74.8333,192.833 75.1667,192.833 75.5,191.5C 77.914,192.911 79.5806,194.911 80.5,197.5C 78.8712,196.375 77.3712,195.041 76,193.5C 74.3745,194.412 73.5412,193.745 73.5,191.5 Z" />
    </g>
    <g>
        <path style="opacity:0.561" fill="currentColor"
            d="M 80.5,197.5 C 84.1002,199.43 87.1002,202.097 89.5,205.5C 88.5768,206.303 87.5768,206.47 86.5,206C 86.8333,205.667 87.1667,205.333 87.5,205C 84.9614,202.63 82.6281,200.13 80.5,197.5 Z" />
    </g>
    <g>
        <path style="opacity:0.009" fill="currentColor"
            d="M 175.5,201.5 C 175.842,202.338 176.508,202.672 177.5,202.5C 177.167,203.5 176.5,204.167 175.5,204.5C 175.158,203.662 174.492,203.328 173.5,203.5C 173.833,202.5 174.5,201.833 175.5,201.5 Z" />
    </g>
    <g>
        <path style="opacity:0.027" fill="currentColor"
            d="M 57.5,202.5 C 57.8333,202.5 58.1667,202.5 58.5,202.5C 59.8684,203.472 61.3684,204.472 63,205.5C 63.6917,206.437 63.525,207.103 62.5,207.5C 62.5,206.833 62.1667,206.5 61.5,206.5C 61.1667,205.167 60.8333,205.167 60.5,206.5C 58.7376,205.738 57.7376,204.404 57.5,202.5 Z" />
    </g>
    <g>
        <path style="opacity:0.008" fill="currentColor"
            d="M 173.5,204.5 C 174.167,204.5 174.833,204.5 175.5,204.5C 174.738,206.262 173.404,207.262 171.5,207.5C 171.5,207.167 171.5,206.833 171.5,206.5C 172.167,206.5 172.5,206.167 172.5,205.5C 173.167,205.5 173.5,205.167 173.5,204.5 Z" />
    </g>
    <g>
        <path style="opacity:0.008" fill="currentColor"
            d="M 171.5,205.5 C 171.5,205.833 171.5,206.167 171.5,206.5C 170.167,206.833 170.167,207.167 171.5,207.5C 171.158,208.338 170.492,208.672 169.5,208.5C 169.5,207.833 169.167,207.5 168.5,207.5C 168.973,206.094 169.973,205.427 171.5,205.5 Z" />
    </g>
    <g>
        <path style="opacity:0.009" fill="currentColor"
            d="M 89.5,205.5 C 91.0269,205.427 92.0269,206.094 92.5,207.5C 91.1667,207.833 91.1667,208.167 92.5,208.5C 92.5,208.833 92.5,209.167 92.5,209.5C 91.2438,209.539 90.2438,209.039 89.5,208C 90.5981,207.23 90.5981,206.397 89.5,205.5 Z" />
    </g>
    <g>
        <path style="opacity:0.008" fill="currentColor"
            d="M 167.5,208.5 C 168.167,208.5 168.833,208.5 169.5,208.5C 169.027,209.906 168.027,210.573 166.5,210.5C 166.5,210.167 166.5,209.833 166.5,209.5C 167.167,209.5 167.5,209.167 167.5,208.5 Z" />
    </g>
    <g>
        <path style="opacity:0.573" fill="currentColor"
            d="M 92.5,208.5 C 92.5,208.167 92.5,207.833 92.5,207.5C 96.1302,207.701 98.7969,209.368 100.5,212.5C 99.8333,212.5 99.5,212.833 99.5,213.5C 96.6689,212.921 94.3356,211.588 92.5,209.5C 93.8333,209.167 93.8333,208.833 92.5,208.5 Z" />
    </g>
    <g>
        <path style="opacity:0.011" fill="currentColor"
            d="M 163.5,210.5 C 163.833,210.5 164.167,210.5 164.5,210.5C 165.167,210.5 165.833,210.5 166.5,210.5C 165.101,211.89 163.434,212.89 161.5,213.5C 161.5,213.167 161.5,212.833 161.5,212.5C 162.167,212.5 162.5,212.167 162.5,211.5C 163.167,211.5 163.5,211.167 163.5,210.5 Z" />
    </g>
    <g>
        <path style="opacity:0.008" fill="currentColor"
            d="M 100.5,212.5 C 101.492,212.328 102.158,212.662 102.5,213.5C 104.898,213.259 106.898,213.926 108.5,215.5C 104.878,217.287 101.878,216.62 99.5,213.5C 100.167,213.5 100.5,213.167 100.5,212.5 Z" />
    </g>
    <g>
        <path style="opacity:0.005" fill="currentColor"
            d="M 21.5,213.5 C 21.8333,213.5 22.1667,213.5 22.5,213.5C 23.1667,213.5 23.5,213.833 23.5,214.5C 23.8333,217.167 24.1667,217.167 24.5,214.5C 25.4013,215.29 26.0679,216.29 26.5,217.5C 25.1667,218.167 25.1667,218.833 26.5,219.5C 27.1667,219.5 27.5,219.833 27.5,220.5C 28.1667,220.5 28.5,220.833 28.5,221.5C 29.8333,221.5 30.5,222.167 30.5,223.5C 29.1667,223.833 29.1667,224.167 30.5,224.5C 31.1667,224.5 31.5,224.833 31.5,225.5C 33.5,225.5 34.5,226.5 34.5,228.5C 34.1667,228.5 33.8333,228.5 33.5,228.5C 33.5,227.833 33.1667,227.5 32.5,227.5C 32.1667,226.167 31.8333,226.167 31.5,227.5C 27.0099,223.674 23.6766,219.007 21.5,213.5 Z" />
    </g>
    <g>
        <path style="opacity:0.11" fill="#cccce1"
            d="M 60.5,206.5 C 60.8333,206.5 61.1667,206.5 61.5,206.5C 62.1667,206.5 62.5,206.833 62.5,207.5C 64.3327,210.561 66.666,212.395 69.5,213C 68.7417,214.364 69.2417,215.531 71,216.5C 71.7175,215.549 72.5509,215.383 73.5,216C 73.1329,217.757 73.9662,219.257 76,220.5C 76.7175,219.549 77.5509,219.383 78.5,220C 78.1637,221.629 78.8304,223.129 80.5,224.5C 78.7446,223.928 77.0779,223.094 75.5,222C 72.0435,219.613 69.0435,216.78 66.5,213.5C 63.7573,211.761 61.7573,209.427 60.5,206.5 Z" />
    </g>
    <g>
        <path style="opacity:0.012" fill="currentColor"
            d="M 159.5,214.5 C 159.5,214.167 159.5,213.833 159.5,213.5C 160.167,213.5 160.833,213.5 161.5,213.5C 161.158,214.338 160.492,214.672 159.5,214.5 Z" />
    </g>
    <g>
        <path style="opacity:0.012" fill="currentColor"
            d="M 157.5,215.5 C 157.5,215.167 157.5,214.833 157.5,214.5C 158.167,214.5 158.833,214.5 159.5,214.5C 159.158,215.338 158.492,215.672 157.5,215.5 Z" />
    </g>
    <g>
        <path style="opacity:0.286" fill="currentColor"
            d="M 162.5,210.5 C 162.5,210.833 162.5,211.167 162.5,211.5C 161.833,211.5 161.5,211.833 161.5,212.5C 160.508,212.328 159.842,212.662 159.5,213.5C 158.508,213.328 157.842,213.662 157.5,214.5C 156.508,214.328 155.842,214.662 155.5,215.5C 153.901,215.232 152.568,215.566 151.5,216.5C 150.209,216.263 149.209,216.596 148.5,217.5C 146.901,217.232 145.568,217.566 144.5,218.5C 142.265,218.205 140.265,218.539 138.5,219.5C 130.804,219.646 123.138,219.313 115.5,218.5C 115.5,218.167 115.5,217.833 115.5,217.5C 131.894,219.954 147.561,217.62 162.5,210.5 Z" />
    </g>
    <g>
        <path style="opacity:0.01" fill="currentColor"
            d="M 155.5,216.5 C 155.5,216.167 155.5,215.833 155.5,215.5C 156.167,215.5 156.833,215.5 157.5,215.5C 157.158,216.338 156.492,216.672 155.5,216.5 Z" />
    </g>
    <g>
        <path style="opacity:0.325" fill="currentColor"
            d="M 108.5,215.5 C 111.152,215.41 113.485,216.076 115.5,217.5C 114.167,217.5 112.833,217.5 111.5,217.5C 110.5,216.833 109.5,216.167 108.5,215.5 Z" />
    </g>
    <g>
        <path style="opacity:0.013" fill="currentColor"
            d="M 151.5,216.5 C 152.833,216.5 154.167,216.5 155.5,216.5C 144.371,221.087 132.704,222.587 120.5,221C 126.681,220.828 132.681,220.328 138.5,219.5C 140.735,219.795 142.735,219.461 144.5,218.5C 146.099,218.768 147.432,218.434 148.5,217.5C 149.791,217.737 150.791,217.404 151.5,216.5 Z" />
    </g>
    <g>
        <path style="opacity:0.012" fill="currentColor"
            d="M 111.5,217.5 C 112.568,218.434 113.901,218.768 115.5,218.5C 113.228,219.764 110.895,219.598 108.5,218C 109.448,217.517 110.448,217.351 111.5,217.5 Z" />
    </g>
    <g>
        <path style="opacity:0.01" fill="currentColor"
            d="M 189.5,218.5 C 188.833,218.5 188.5,218.833 188.5,219.5C 188.167,219.5 187.833,219.5 187.5,219.5C 187.711,217.576 188.377,217.243 189.5,218.5 Z" />
    </g>
    <g>
        <path style="opacity:0.557" fill="#9f9dc5"
            d="M 195.5,215.5 C 192.461,218.54 189.127,221.206 185.5,223.5C 185.5,223.167 185.5,222.833 185.5,222.5C 186.167,222.5 186.5,222.167 186.5,221.5C 187.167,221.5 187.5,221.167 187.5,220.5C 188.167,220.5 188.5,220.167 188.5,219.5C 189.167,219.5 189.5,219.167 189.5,218.5C 191.517,217.471 193.517,216.471 195.5,215.5 Z" />
    </g>
    <g>
        <path style="opacity:0.014" fill="currentColor"
            d="M 187.5,219.5 C 187.5,219.833 187.5,220.167 187.5,220.5C 186.833,220.5 186.5,220.833 186.5,221.5C 185.833,221.5 185.5,221.833 185.5,222.5C 184.761,222.631 184.094,222.464 183.5,222C 184.471,220.519 185.804,219.685 187.5,219.5 Z" />
    </g>
    <g>
        <path style="opacity:0.014" fill="currentColor"
            d="M 235.5,220.5 C 236.167,220.5 236.5,220.833 236.5,221.5C 236.13,224.267 234.796,226.267 232.5,227.5C 232.167,226.167 231.833,226.167 231.5,227.5C 230.833,227.5 230.5,227.833 230.5,228.5C 230.167,228.5 229.833,228.5 229.5,228.5C 229.738,226.596 230.738,225.262 232.5,224.5C 232.5,223.833 232.833,223.5 233.5,223.5C 234.833,223.167 234.833,222.833 233.5,222.5C 233.833,221.5 234.5,220.833 235.5,220.5 Z" />
    </g>
    <g>
        <path style="opacity:0.173" fill="currentColor"
            d="M 80.5,224.5 C 82.0269,224.427 83.0269,225.094 83.5,226.5C 81.9731,226.573 80.9731,225.906 80.5,224.5 Z" />
    </g>
    <g>
        <path style="opacity:0.008" fill="currentColor"
            d="M 231.5,227.5 C 231.833,227.5 232.167,227.5 232.5,227.5C 232.315,228.17 231.981,228.17 231.5,227.5 Z" />
    </g>
    <g>
        <path style="opacity:0.009" fill="currentColor"
            d="M 230.5,228.5 C 230.833,228.5 231.167,228.5 231.5,228.5C 231.5,229.833 230.833,230.5 229.5,230.5C 229.5,230.167 229.5,229.833 229.5,229.5C 230.167,229.5 230.5,229.167 230.5,228.5 Z" />
    </g>
    <g>
        <path style="opacity:0.471" fill="#c6c6dd"
            d="M 98.5,232.5 C 98.8417,233.338 99.5084,233.672 100.5,233.5C 100.5,233.833 100.5,234.167 100.5,234.5C 94.156,233.16 88.4893,230.493 83.5,226.5C 87.4516,225.442 91.1183,226.275 94.5,229C 93.5,229.333 92.5,229.667 91.5,230C 93.7654,231.118 96.0987,231.951 98.5,232.5 Z" />
    </g>
    <g>
        <path style="opacity:0.988" fill="#7873ac"
            d="M 178.5,227.5 C 176.751,230.375 174.085,231.708 170.5,231.5C 172.849,229.659 175.515,228.326 178.5,227.5 Z" />
    </g>
    <g>
        <path style="opacity:0.043" fill="#cac9de"
            d="M 31.5,227.5 C 31.8333,227.5 32.1667,227.5 32.5,227.5C 33.1667,227.5 33.5,227.833 33.5,228.5C 33.5,229.167 33.8333,229.5 34.5,229.5C 35.1667,229.5 35.5,229.833 35.5,230.5C 41.1082,234.439 46.1082,239.106 50.5,244.5C 49.1667,244.833 49.1667,245.167 50.5,245.5C 50.5,246.167 50.8333,246.5 51.5,246.5C 51.5,247.167 51.8333,247.5 52.5,247.5C 52.1034,248.525 51.4368,248.692 50.5,248C 48.9586,246.629 47.6253,245.129 46.5,243.5C 47.8333,243.167 47.8333,242.833 46.5,242.5C 46.5,241.833 46.1667,241.5 45.5,241.5C 45.5,240.833 45.1667,240.5 44.5,240.5C 44.5,239.833 44.1667,239.5 43.5,239.5C 43.5,238.833 43.1667,238.5 42.5,238.5C 42.5,237.833 42.1667,237.5 41.5,237.5C 41.5,236.833 41.1667,236.5 40.5,236.5C 40.5,235.833 40.1667,235.5 39.5,235.5C 39.1667,234.5 38.5,233.833 37.5,233.5C 37.5,232.833 37.1667,232.5 36.5,232.5C 36.1667,231.167 35.8333,231.167 35.5,232.5C 33.4131,231.415 32.0798,229.749 31.5,227.5 Z" />
    </g>
    <g>
        <path style="opacity:0.01" fill="currentColor"
            d="M 98.5,232.5 C 98.7352,231.903 99.2352,231.57 100,231.5C 121.338,238.166 142.672,238.166 164,231.5C 164.765,231.57 165.265,231.903 165.5,232.5C 164.508,232.328 163.842,232.662 163.5,233.5C 162.508,233.328 161.842,233.662 161.5,234.5C 160.209,234.263 159.209,234.596 158.5,235.5C 156.901,235.232 155.568,235.566 154.5,236.5C 151.941,236.198 149.607,236.532 147.5,237.5C 145.265,237.205 143.265,237.539 141.5,238.5C 136.167,238.5 130.833,238.5 125.5,238.5C 123.052,237.527 120.385,237.194 117.5,237.5C 115.393,236.532 113.059,236.198 110.5,236.5C 109.432,235.566 108.099,235.232 106.5,235.5C 105.432,234.566 104.099,234.232 102.5,234.5C 102.158,233.662 101.492,233.328 100.5,233.5C 100.158,232.662 99.4916,232.328 98.5,232.5 Z" />
    </g>
    <g>
        <path style="opacity:0.007" fill="currentColor"
            d="M 35.5,232.5 C 35.8333,232.5 36.1667,232.5 36.5,232.5C 37.1667,232.5 37.5,232.833 37.5,233.5C 36.3774,234.757 35.7107,234.424 35.5,232.5 Z" />
    </g>
    <g>
        <path style="opacity:0.004" fill="currentColor"
            d="M 227.5,232.5 C 227.833,232.5 228.167,232.5 228.5,232.5C 228.315,233.17 227.981,233.17 227.5,232.5 Z" />
    </g>
    <g>
        <path style="opacity:0.008" fill="currentColor"
            d="M 39.5,235.5 C 40.1667,235.5 40.5,235.833 40.5,236.5C 40.5,236.833 40.5,237.167 40.5,237.5C 38.5759,237.289 38.2426,236.623 39.5,235.5 Z" />
    </g>
    <g>
        <path style="opacity:0.545" fill="#8b88b8"
            d="M 100.5,234.5 C 101.167,234.5 101.833,234.5 102.5,234.5C 103.568,235.434 104.901,235.768 106.5,235.5C 107.568,236.434 108.901,236.768 110.5,236.5C 110.5,236.833 110.5,237.167 110.5,237.5C 106.584,237.975 103.251,236.975 100.5,234.5 Z" />
    </g>
    <g>
        <path style="opacity:0.851" fill="#6966a4"
            d="M 170.5,231.5 C 167.232,234.707 163.232,236.373 158.5,236.5C 158.5,236.167 158.5,235.833 158.5,235.5C 159.791,235.737 160.791,235.404 161.5,234.5C 162.492,234.672 163.158,234.338 163.5,233.5C 164.492,233.672 165.158,233.338 165.5,232.5C 167.216,232.371 168.883,232.038 170.5,231.5 Z" />
    </g>
    <g>
        <path style="opacity:0.012" fill="currentColor"
            d="M 223.5,236.5 C 223.833,236.5 224.167,236.5 224.5,236.5C 224.315,237.17 223.981,237.17 223.5,236.5 Z" />
    </g>
    <g>
        <path style="opacity:0.007" fill="currentColor"
            d="M 40.5,237.5 C 40.8333,237.5 41.1667,237.5 41.5,237.5C 42.1667,237.5 42.5,237.833 42.5,238.5C 43.1667,238.5 43.5,238.833 43.5,239.5C 44.1667,239.5 44.5,239.833 44.5,240.5C 44.5,240.833 44.5,241.167 44.5,241.5C 42.1667,241.167 40.8333,239.833 40.5,237.5 Z" />
    </g>
    <g>
        <path style="opacity:0.047" fill="#cdcde1"
            d="M 228.5,229.5 C 228.5,230.167 228.833,230.5 229.5,230.5C 229.672,231.492 229.338,232.158 228.5,232.5C 228.167,231.167 227.833,231.167 227.5,232.5C 226.167,232.833 226.167,233.167 227.5,233.5C 226.833,234.833 225.833,235.833 224.5,236.5C 224.167,235.167 223.833,235.167 223.5,236.5C 222.833,236.5 222.5,236.833 222.5,237.5C 221.833,237.5 221.5,237.833 221.5,238.5C 220.833,238.5 220.5,238.833 220.5,239.5C 219.833,239.5 219.5,239.833 219.5,240.5C 218.833,240.5 218.167,240.5 217.5,240.5C 219.5,237.833 221.833,235.5 224.5,233.5C 225.5,231.833 226.833,230.5 228.5,229.5 Z" />
    </g>
    <g>
        <path style="opacity:0.012" fill="currentColor"
            d="M 222.5,237.5 C 222.833,237.5 223.167,237.5 223.5,237.5C 223.315,238.17 222.981,238.17 222.5,237.5 Z" />
    </g>
    <g>
        <path style="opacity:0.008" fill="currentColor"
            d="M 221.5,238.5 C 221.833,238.5 222.167,238.5 222.5,238.5C 222.315,239.17 221.981,239.17 221.5,238.5 Z" />
    </g>
    <g>
        <path style="opacity:0.533" fill="#9d9bc4"
            d="M 154.5,236.5 C 155.833,236.5 157.167,236.5 158.5,236.5C 155.013,238.288 151.179,239.288 147,239.5C 141.518,240.076 136.018,240.41 130.5,240.5C 123.458,240.989 116.792,239.989 110.5,237.5C 112.833,237.5 115.167,237.5 117.5,237.5C 119.948,238.473 122.615,238.806 125.5,238.5C 130.833,239.833 136.167,239.833 141.5,238.5C 143.735,238.795 145.735,238.461 147.5,237.5C 150.059,237.802 152.393,237.468 154.5,236.5 Z" />
    </g>
    <g>
        <path style="opacity:0.008" fill="currentColor"
            d="M 220.5,239.5 C 220.833,239.5 221.167,239.5 221.5,239.5C 221.315,240.17 220.981,240.17 220.5,239.5 Z" />
    </g>
    <g>
        <path style="opacity:0.008" fill="currentColor"
            d="M 219.5,240.5 C 219.833,240.5 220.167,240.5 220.5,240.5C 220.315,241.17 219.981,241.17 219.5,240.5 Z" />
    </g>
    <g>
        <path style="opacity:0.007" fill="currentColor"
            d="M 44.5,241.5 C 44.8333,241.5 45.1667,241.5 45.5,241.5C 46.1667,241.5 46.5,241.833 46.5,242.5C 46.5,242.833 46.5,243.167 46.5,243.5C 45.1667,243.5 44.5,242.833 44.5,241.5 Z" />
    </g>
    <g>
        <path style="opacity:0.012" fill="currentColor"
            d="M 217.5,241.5 C 218.167,241.5 218.833,241.5 219.5,241.5C 219.027,242.906 218.027,243.573 216.5,243.5C 216.5,243.167 216.5,242.833 216.5,242.5C 217.167,242.5 217.5,242.167 217.5,241.5 Z" />
    </g>
    <g>
        <path style="opacity:0.007" fill="currentColor"
            d="M 215.5,242.5 C 215.5,243.167 215.833,243.5 216.5,243.5C 216.167,244.5 215.5,245.167 214.5,245.5C 214.5,244.833 214.167,244.5 213.5,244.5C 213.833,243.5 214.5,242.833 215.5,242.5 Z" />
    </g>
    <g>
        <path style="opacity:0.013" fill="currentColor"
            d="M 212.5,244.5 C 212.842,245.338 213.508,245.672 214.5,245.5C 214.167,246.5 213.5,247.167 212.5,247.5C 212.158,246.662 211.492,246.328 210.5,246.5C 210.833,245.5 211.5,244.833 212.5,244.5 Z" />
    </g>
    <g>
        <path style="opacity:0.282" fill="currentColor"
            d="M 50.5,245.5 C 50.5,245.167 50.5,244.833 50.5,244.5C 52.7488,245.08 54.4154,246.413 55.5,248.5C 54.391,248.443 53.391,248.11 52.5,247.5C 51.8333,247.5 51.5,247.167 51.5,246.5C 50.8333,246.5 50.5,246.167 50.5,245.5 Z" />
    </g>
    <g>
        <path style="opacity:0.009" fill="currentColor"
            d="M 210.5,246.5 C 210.842,247.338 211.508,247.672 212.5,247.5C 211.432,248.434 210.099,248.768 208.5,248.5C 208.833,247.5 209.5,246.833 210.5,246.5 Z" />
    </g>
    <g>
        <path style="opacity:0.006" fill="currentColor"
            d="M 55.5,249.5 C 55.5,250.167 55.8333,250.5 56.5,250.5C 56.5,250.833 56.5,251.167 56.5,251.5C 53.5404,250.968 53.2071,250.301 55.5,249.5 Z" />
    </g>
    <g>
        <path style="opacity:0.004" fill="currentColor"
            d="M 208.5,250.5 C 208.5,250.167 208.5,249.833 208.5,249.5C 211.167,249.833 211.167,250.167 208.5,250.5 Z" />
    </g>
    <g>
        <path style="opacity:0.009" fill="currentColor"
            d="M 55.5,249.5 C 55.5,249.167 55.5,248.833 55.5,248.5C 57.4044,248.738 58.7377,249.738 59.5,251.5C 58.1667,251.833 58.1667,252.167 59.5,252.5C 58.221,253.715 57.221,253.382 56.5,251.5C 57.8333,251.167 57.8333,250.833 56.5,250.5C 55.8333,250.5 55.5,250.167 55.5,249.5 Z" />
    </g>
    <g>
        <path style="opacity:0.012" fill="currentColor"
            d="M 206.5,251.5 C 206.5,251.167 206.5,250.833 206.5,250.5C 207.167,250.5 207.833,250.5 208.5,250.5C 208.158,251.338 207.492,251.672 206.5,251.5 Z" />
    </g>
    <g>
        <path style="opacity:0.007" fill="currentColor"
            d="M 205.5,251.5 C 205.833,251.5 206.167,251.5 206.5,251.5C 206.5,252.833 205.833,253.5 204.5,253.5C 204.5,253.167 204.5,252.833 204.5,252.5C 205.167,252.5 205.5,252.167 205.5,251.5 Z" />
    </g>
    <g>
        <path style="opacity:0.243" fill="currentColor"
            d="M 59.5,252.5 C 59.5,252.167 59.5,251.833 59.5,251.5C 61.0269,251.427 62.0269,252.094 62.5,253.5C 61.391,253.443 60.391,253.11 59.5,252.5 Z" />
    </g>
    <g>
        <path style="opacity:0.204" fill="currentColor"
            d="M 62.5,253.5 C 64.674,253.75 66.3406,254.75 67.5,256.5C 65.326,256.25 63.6594,255.25 62.5,253.5 Z" />
    </g>
    <g>
        <path style="opacity:0.01" fill="currentColor"
            d="M 205.5,250.5 C 205.5,250.833 205.5,251.167 205.5,251.5C 204.833,251.5 204.5,251.833 204.5,252.5C 203.167,252.833 203.167,253.167 204.5,253.5C 202.66,255.669 200.326,257.002 197.5,257.5C 197.5,257.167 197.5,256.833 197.5,256.5C 200.167,256.167 200.167,255.833 197.5,255.5C 199.822,253.336 202.489,251.669 205.5,250.5 Z" />
    </g>
    <g>
        <path style="opacity:0.012" fill="currentColor"
            d="M 196.5,257.5 C 196.833,257.5 197.167,257.5 197.5,257.5C 197.315,258.17 196.981,258.17 196.5,257.5 Z" />
    </g>
    <g>
        <path style="opacity:0.31" fill="currentColor"
            d="M 67.5,256.5 C 73.1511,258.659 78.4844,261.326 83.5,264.5C 80.8377,263.361 78.171,263.194 75.5,264C 73.6675,263.252 72.0009,262.252 70.5,261C 71.1667,260.667 71.8333,260.333 72.5,260C 70.4156,259.303 68.7489,258.136 67.5,256.5 Z" />
    </g>
    <g>
        <path style="opacity:0.008" fill="currentColor"
            d="M 191.5,261.5 C 191.5,261.167 191.5,260.833 191.5,260.5C 192.167,260.5 192.833,260.5 193.5,260.5C 193.158,261.338 192.492,261.672 191.5,261.5 Z" />
    </g>
    <g>
        <path style="opacity:0.008" fill="currentColor"
            d="M 189.5,262.5 C 189.5,262.167 189.5,261.833 189.5,261.5C 190.167,261.5 190.833,261.5 191.5,261.5C 191.158,262.338 190.492,262.672 189.5,262.5 Z" />
    </g>
    <g>
        <path style="opacity:0.008" fill="currentColor"
            d="M 187.5,263.5 C 187.5,263.167 187.5,262.833 187.5,262.5C 188.167,262.5 188.833,262.5 189.5,262.5C 189.158,263.338 188.492,263.672 187.5,263.5 Z" />
    </g>
    <g>
        <path style="opacity:0.008" fill="currentColor"
            d="M 185.5,264.5 C 185.5,264.167 185.5,263.833 185.5,263.5C 186.167,263.5 186.833,263.5 187.5,263.5C 187.158,264.338 186.492,264.672 185.5,264.5 Z" />
    </g>
    <g>
        <path style="opacity:0.075" fill="currentColor"
            d="M 83.5,264.5 C 85.5529,264.402 87.2196,265.069 88.5,266.5C 87.5,266.5 86.5,266.5 85.5,266.5C 84.8333,265.833 84.1667,265.167 83.5,264.5 Z" />
    </g>
    <g>
        <path style="opacity:0.008" fill="currentColor"
            d="M 85.5,266.5 C 86.209,267.404 87.209,267.737 88.5,267.5C 88.5,267.833 88.5,268.167 88.5,268.5C 86.5714,268.769 84.9047,268.269 83.5,267C 84.0944,266.536 84.7611,266.369 85.5,266.5 Z" />
    </g>
    <g>
        <path style="opacity:0.008" fill="currentColor"
            d="M 178.5,267.5 C 178.5,267.167 178.5,266.833 178.5,266.5C 179.167,266.5 179.833,266.5 180.5,266.5C 180.158,267.338 179.492,267.672 178.5,267.5 Z" />
    </g>
    <g>
        <path style="opacity:0.009" fill="currentColor"
            d="M 88.5,267.5 C 88.5,267.167 88.5,266.833 88.5,266.5C 90.7857,266.595 92.7857,267.262 94.5,268.5C 97.2282,268.171 99.5615,268.837 101.5,270.5C 103.099,270.232 104.432,270.566 105.5,271.5C 101.5,271.833 101.5,272.167 105.5,272.5C 105.5,272.833 105.5,273.167 105.5,273.5C 99.3282,273.211 93.6616,271.544 88.5,268.5C 91.1667,268.167 91.1667,267.833 88.5,267.5 Z" />
    </g>
    <g>
        <path style="opacity:0.01" fill="currentColor"
            d="M 175.5,268.5 C 175.5,268.167 175.5,267.833 175.5,267.5C 176.5,267.5 177.5,267.5 178.5,267.5C 177.791,268.404 176.791,268.737 175.5,268.5 Z" />
    </g>
    <g>
        <path style="opacity:0.009" fill="currentColor"
            d="M 172.5,269.5 C 172.5,269.167 172.5,268.833 172.5,268.5C 173.5,268.5 174.5,268.5 175.5,268.5C 174.791,269.404 173.791,269.737 172.5,269.5 Z" />
    </g>
    <g>
        <path style="opacity:0.012" fill="currentColor"
            d="M 196.5,256.5 C 196.5,256.833 196.5,257.167 196.5,257.5C 195.167,257.833 195.167,258.167 196.5,258.5C 196.027,259.906 195.027,260.573 193.5,260.5C 192.833,259.167 192.167,259.167 191.5,260.5C 190.508,260.328 189.842,260.662 189.5,261.5C 188.508,261.328 187.842,261.662 187.5,262.5C 186.508,262.328 185.842,262.662 185.5,263.5C 182.833,263.833 182.833,264.167 185.5,264.5C 184.22,265.931 182.553,266.598 180.5,266.5C 179.833,265.167 179.167,265.167 178.5,266.5C 177.209,266.263 176.209,266.596 175.5,267.5C 174.209,267.263 173.209,267.596 172.5,268.5C 168.5,268.833 168.5,269.167 172.5,269.5C 164.3,272.98 155.633,275.147 146.5,276C 137.167,276.667 127.833,276.667 118.5,276C 113.953,275.571 109.619,274.738 105.5,273.5C 107.735,273.795 109.735,273.461 111.5,272.5C 113.415,272.216 115.081,272.549 116.5,273.5C 112.69,274.538 113.69,274.538 119.5,273.5C 146.801,275.063 172.467,269.396 196.5,256.5 Z" />
    </g>
</svg>