<?xml version="1.0" encoding="UTF-8"?>
<!DOCTYPE svg PUBLIC "-//W3C//DTD SVG 1.1//EN" "http://www.w3.org/Graphics/SVG/1.1/DTD/svg11.dtd">
<svg xmlns="http://www.w3.org/2000/svg" version="1.1" width="3219px" height="1068px" style="shape-rendering:geometricPrecision; text-rendering:geometricPrecision; image-rendering:optimizeQuality; fill-rule:evenodd; clip-rule:evenodd" xmlns:xlink="http://www.w3.org/1999/xlink">
<g><path style="opacity:0.93" fill="#e6c04b" d="M 253.5,168.5 C 261.602,171.885 269.269,176.218 276.5,181.5C 272.702,191.258 267.702,200.425 261.5,209C 247.937,231.966 229.604,249.633 206.5,262C 197.169,263.757 187.836,265.257 178.5,266.5C 168.509,265.199 158.509,263.699 148.5,262C 146.107,260.137 143.44,258.804 140.5,258C 139.978,257.439 139.645,256.772 139.5,256C 145.143,236.212 153.643,217.712 165,200.5C 169.184,194.652 174.017,189.485 179.5,185C 178.5,184.333 177.5,184.333 176.5,185C 173.281,186.769 170.281,188.769 167.5,191C 165.466,192.205 163.466,192.372 161.5,191.5C 160.006,184.6 159.173,177.6 159,170.5C 158.058,176.803 157.391,183.137 157,189.5C 156.333,190.167 155.667,190.833 155,191.5C 154.131,199.25 152.798,206.917 151,214.5C 147.058,228.376 142.558,242.043 137.5,255.5C 127.255,254.807 117.755,251.807 109,246.5C 86.9729,231.804 75.8063,210.804 75.5,183.5C 75.6122,176.14 76.1122,168.806 77,161.5C 77.4186,160.328 78.0853,159.328 79,158.5C 79.7848,153.124 80.7848,147.791 82,142.5C 85.6936,131.731 89.6936,121.065 94,110.5C 98.9759,101.938 104.143,93.4381 109.5,85C 108.366,83.984 108.699,83.3173 110.5,83C 111.5,82.3333 112.5,82.3333 113.5,83C 132.332,93.6576 145.998,108.824 154.5,128.5C 154.128,131.022 154.961,133.022 157,134.5C 157.573,138.848 158.24,143.181 159,147.5C 159.43,139.812 160.097,132.146 161,124.5C 174.721,81.8099 202.554,51.9765 244.5,35C 244.167,34.6667 243.833,34.3333 243.5,34C 248.754,32.3532 254.087,31.0199 259.5,30C 260.167,29.3333 260.833,28.6667 261.5,28C 265.821,27.501 270.154,27.3343 274.5,27.5C 270.454,64.4209 259.287,98.0876 241,128.5C 229.709,143.187 216.876,156.187 202.5,167.5C 204.329,168.288 205.996,167.788 207.5,166C 220.829,164.024 234.163,164.024 247.5,166C 249.217,167.559 251.217,168.392 253.5,168.5 Z"/></g>
<g><path style="opacity:0.93" fill="#e6c04b" d="M 1210.5,250.5 C 1210.81,253.247 1210.48,255.914 1209.5,258.5C 1207.56,259.189 1205.56,259.689 1203.5,260C 1204.63,261.016 1204.3,261.683 1202.5,262C 1192.47,263.612 1182.47,265.112 1172.5,266.5C 1164.52,265.336 1156.52,264.169 1148.5,263C 1130.17,255.67 1115,244.17 1103,228.5C 1092.15,214.117 1082.31,199.117 1073.5,183.5C 1074.68,181.239 1076.35,179.405 1078.5,178C 1086.38,173.04 1094.72,169.04 1103.5,166C 1114.79,164.478 1126.12,164.144 1137.5,165C 1141.58,165.27 1145.25,166.27 1148.5,168C 1143.07,164.491 1138.41,160.324 1134.5,155.5C 1114.71,137.953 1100.38,116.62 1091.5,91.5C 1084.15,70.774 1079.15,49.4406 1076.5,27.5C 1080.85,27.3343 1085.18,27.501 1089.5,28C 1115.11,36.1795 1137.28,49.0128 1156,66.5C 1179.32,90.7009 1191.32,119.701 1192,153.5C 1192.65,135.234 1198.65,118.901 1210,104.5C 1213.7,100.727 1217.53,97.0603 1221.5,93.5C 1226.55,89.9842 1231.55,86.4842 1236.5,83C 1237.83,82.3333 1239.17,82.3333 1240.5,83C 1246.16,92.4932 1251.66,101.993 1257,111.5C 1261.25,122.358 1265.42,133.191 1269.5,144C 1269.17,144.333 1268.83,144.667 1268.5,145C 1270.02,147.596 1270.85,150.429 1271,153.5C 1271.56,151.405 1272.06,151.238 1272.5,153C 1272.09,154.144 1271.76,155.311 1271.5,156.5C 1281.28,190.818 1273.95,218.984 1249.5,241C 1239.13,248.956 1227.47,254.123 1214.5,256.5C 1213.64,254.089 1212.31,252.089 1210.5,250.5 Z M 1210.5,250.5 C 1203.63,232.727 1195.13,215.727 1185,199.5C 1180.61,194.279 1176.11,189.279 1171.5,184.5C 1177.09,186.628 1182.42,189.295 1187.5,192.5C 1188.48,192.023 1189.31,191.357 1190,190.5C 1191.05,181.531 1191.72,172.531 1192,163.5C 1192.46,172.516 1193.13,181.516 1194,190.5C 1199.19,210.65 1204.69,230.65 1210.5,250.5 Z M 1169.5,182.5 C 1170.83,182.5 1171.5,183.167 1171.5,184.5C 1170.5,184.167 1169.83,183.5 1169.5,182.5 Z"/></g>
<g><path style="opacity:0.959" fill="#e6c04b" d="M 736.5,130.5 C 772.775,171.71 817.109,202.877 869.5,224C 879.613,227.714 889.946,230.88 900.5,233.5C 900.709,234.086 901.043,234.586 901.5,235C 921.326,239.774 941.993,243.774 963.5,247C 994.192,249.134 1024.86,248.968 1055.5,246.5C 1055.67,279.168 1055.5,311.835 1055,344.5C 1053.48,364.684 1052.48,385.018 1052,405.5C 1049.74,419.028 1048.41,432.695 1048,446.5C 1043.91,478.821 1039.57,511.154 1035,543.5C 1032.45,552.639 1030.45,561.973 1029,571.5C 1025.46,588.652 1021.46,605.652 1017,622.5C 1011.58,636.571 1006.58,651.571 1002,667.5C 987.398,705.056 966.731,738.723 940,768.5C 923.88,786.125 906.38,802.125 887.5,816.5C 862.596,837.156 835.596,855.156 806.5,870.5C 775.403,888.941 742.737,904.441 708.5,917C 707.833,917.667 707.167,918.333 706.5,919C 695.978,922.63 685.478,926.13 675,929.5C 668.533,926.345 661.699,924.178 654.5,923C 641.698,917.201 628.698,911.867 615.5,907C 614.449,905.615 613.116,904.615 611.5,904C 542.737,875.221 481.403,835.888 427.5,786C 416.16,774.326 405.16,762.326 394.5,750C 394.833,749.667 395.167,749.333 395.5,749C 375.642,725.844 360.809,699.678 351,670.5C 350.333,669.833 349.667,669.167 349,668.5C 344.457,652.779 339.791,637.112 335,621.5C 334.667,621.833 334.333,622.167 334,622.5C 332.345,616.24 331.012,609.907 330,603.5C 329.581,602.328 328.915,601.328 328,600.5C 322.087,572.174 316.421,543.84 311,515.5C 306.728,480.586 302.728,445.586 299,410.5C 298.333,393.833 297.667,377.167 297,360.5C 296.13,359.892 295.63,359.059 295.5,358C 294.88,320.933 294.88,283.766 295.5,246.5C 340.551,250.913 385.218,248.746 429.5,240C 540.213,212.121 621.546,146.454 673.5,43C 675.259,42.2025 676.926,42.3691 678.5,43.5C 693.441,74.9369 712.774,103.937 736.5,130.5 Z M 895.5,684.5 C 878.695,707.644 859.028,728.311 836.5,746.5C 825.965,754.539 815.298,762.372 804.5,770C 793.092,777.077 781.759,784.243 770.5,791.5C 741.417,807.291 711.584,821.624 681,834.5C 677.879,835.536 674.713,835.703 671.5,835C 641.312,822.912 611.646,808.412 582.5,791.5C 542.048,769.514 505.881,741.847 474,708.5C 452.492,684.117 436.825,656.784 427,626.5C 422.87,613.489 418.87,600.489 415,587.5C 409.311,560.437 403.644,533.437 398,506.5C 395.216,482.687 392.216,459.02 389,435.5C 386.529,402.158 384.363,368.824 382.5,335.5C 429.479,331.305 474.145,320.805 516.5,304C 573.917,280.748 624.417,246.581 668,201.5C 670.381,198.493 672.714,195.493 675,192.5C 736.149,259.242 811.316,303.408 900.5,325C 906.093,325.415 911.426,326.748 916.5,329C 933.934,331.055 951.267,333.555 968.5,336.5C 966.545,368.492 964.379,400.492 962,432.5C 960.837,434.285 960.17,436.285 960,438.5C 954.753,503.223 942.92,565.223 924.5,624.5C 921.956,631.259 919.289,637.925 916.5,644.5C 911.705,658.747 904.705,672.08 895.5,684.5 Z"/></g>
<g><path style="opacity:0.004" fill="#e6c04b" d="M 1091.5,91.5 C 1091.63,92.2389 1091.46,92.9056 1091,93.5C 1090.31,92.5632 1090.47,91.8966 1091.5,91.5 Z"/></g>
<g><path style="opacity:0.004" fill="#e6c04b" d="M 154.5,127.5 C 155.833,128.167 155.833,128.167 154.5,127.5 Z"/></g>
<g><path style="opacity:0.004" fill="#e6c04b" d="M 736.5,129.5 C 737.833,130.167 737.833,130.167 736.5,129.5 Z"/></g>
<g><path style="opacity:0.004" fill="#e6c04b" d="M 1134.5,155.5 C 1133.83,156.167 1133.83,156.167 1134.5,155.5 Z"/></g>
<g><path style="opacity:0.984" fill="#e6c04b" d="M 1696.5,163.5 C 1726.63,159.753 1753.97,166.587 1778.5,184C 1783.53,188.699 1788.2,193.699 1792.5,199C 1779.67,210.5 1766.83,222 1754,233.5C 1736.41,211.584 1715.25,207.084 1690.5,220C 1676.36,232.75 1671.2,248.584 1675,267.5C 1682.47,293.613 1699.64,304.113 1726.5,299C 1737.62,295.349 1746.78,288.849 1754,279.5C 1765.02,289.353 1776.19,299.02 1787.5,308.5C 1808.26,261.981 1828.76,215.314 1849,168.5C 1869.44,167.174 1889.94,167.174 1910.5,168.5C 1933.57,221.541 1956.74,274.541 1980,327.5C 1980.5,274.168 1980.67,220.834 1980.5,167.5C 2017.86,167.045 2055.2,167.545 2092.5,169C 2149.39,181.25 2174.56,216.417 2168,274.5C 2162.19,304.306 2145.35,325.14 2117.5,337C 2107.23,341.233 2096.57,343.9 2085.5,345C 2031.83,345.667 1978.17,345.667 1924.5,345C 1920.37,335.238 1916.37,325.405 1912.5,315.5C 1890.18,314.5 1867.84,314.167 1845.5,314.5C 1842.24,324.618 1838.57,334.618 1834.5,344.5C 1813.84,345.5 1793.18,345.833 1772.5,345.5C 1774.1,340.376 1776.1,335.376 1778.5,330.5C 1778.17,330.167 1777.83,329.833 1777.5,329.5C 1753.23,346.725 1726.23,353.225 1696.5,349C 1648.86,342.028 1621.03,314.861 1613,267.5C 1609.65,221.007 1629.15,188.507 1671.5,170C 1679.82,167.244 1688.15,165.078 1696.5,163.5 Z M 2040.5,214.5 C 2050.51,214.334 2060.51,214.5 2070.5,215C 2094.99,217.991 2107.32,231.824 2107.5,256.5C 2107.32,281.176 2094.99,295.009 2070.5,298C 2060.51,298.5 2050.51,298.666 2040.5,298.5C 2040.5,270.5 2040.5,242.5 2040.5,214.5 Z M 1878.5,228.5 C 1884.44,242.129 1890.1,255.963 1895.5,270C 1884.84,270.5 1874.17,270.667 1863.5,270.5C 1868.5,256.5 1873.5,242.5 1878.5,228.5 Z"/></g>
<g><path style="opacity:0.004" fill="#e6c04b" d="M 253.5,167.5 C 254.833,168.167 254.833,168.167 253.5,167.5 Z"/></g>
<g><path style="opacity:0.983" fill="#e6c04b" d="M 1490.5,167.5 C 1510.84,167.167 1531.18,167.5 1551.5,168.5C 1577.17,227.167 1602.83,285.833 1628.5,344.5C 1607.51,345.666 1586.51,345.833 1565.5,345C 1561.37,335.238 1557.37,325.405 1553.5,315.5C 1531.18,314.5 1508.84,314.167 1486.5,314.5C 1483.24,324.618 1479.57,334.618 1475.5,344.5C 1454.84,345.5 1434.18,345.833 1413.5,345.5C 1438.78,286.009 1464.44,226.676 1490.5,167.5 Z M 1519.5,228.5 C 1525.44,242.129 1531.1,255.963 1536.5,270C 1525.84,270.5 1515.17,270.667 1504.5,270.5C 1509.5,256.5 1514.5,242.5 1519.5,228.5 Z"/></g>
<g><path style="opacity:0.989" fill="#e6c04b" d="M 2175.5,167.5 C 2223.83,167.5 2272.17,167.5 2320.5,167.5C 2320.5,182.833 2320.5,198.167 2320.5,213.5C 2291.83,213.5 2263.17,213.5 2234.5,213.5C 2234.5,220.167 2234.5,226.833 2234.5,233.5C 2259.83,233.5 2285.17,233.5 2310.5,233.5C 2310.5,248.167 2310.5,262.833 2310.5,277.5C 2285.17,277.5 2259.83,277.5 2234.5,277.5C 2234.5,284.833 2234.5,292.167 2234.5,299.5C 2264.17,299.5 2293.83,299.5 2323.5,299.5C 2323.5,314.833 2323.5,330.167 2323.5,345.5C 2274.17,345.5 2224.83,345.5 2175.5,345.5C 2175.5,286.167 2175.5,226.833 2175.5,167.5 Z"/></g>
<g><path style="opacity:0.985" fill="#e6c04b" d="M 2331.5,167.5 C 2348.51,167.167 2365.51,167.501 2382.5,168.5C 2401.08,199.334 2419.92,230 2439,260.5C 2457.88,229.915 2476.38,199.082 2494.5,168C 2511.5,167.5 2528.5,167.333 2545.5,167.5C 2545.5,226.833 2545.5,286.167 2545.5,345.5C 2527.17,345.5 2508.83,345.5 2490.5,345.5C 2490.43,319.493 2489.93,293.493 2489,267.5C 2477.25,287.998 2465.25,308.331 2453,328.5C 2443.58,329.651 2434.08,329.818 2424.5,329C 2412,309.167 2399.5,289.333 2387,269.5C 2386.5,294.831 2386.33,320.164 2386.5,345.5C 2368.17,345.5 2349.83,345.5 2331.5,345.5C 2331.5,286.167 2331.5,226.833 2331.5,167.5 Z"/></g>
<g><path style="opacity:1" fill="#e6c04b" d="M 2558.5,167.5 C 2578.5,167.5 2598.5,167.5 2618.5,167.5C 2618.5,226.833 2618.5,286.167 2618.5,345.5C 2598.5,345.5 2578.5,345.5 2558.5,345.5C 2558.5,286.167 2558.5,226.833 2558.5,167.5 Z"/></g>
<g><path style="opacity:0.989" fill="#e6c04b" d="M 2631.5,167.5 C 2679.83,167.5 2728.17,167.5 2776.5,167.5C 2776.5,182.833 2776.5,198.167 2776.5,213.5C 2747.83,213.5 2719.17,213.5 2690.5,213.5C 2690.5,220.167 2690.5,226.833 2690.5,233.5C 2715.83,233.5 2741.17,233.5 2766.5,233.5C 2766.5,248.167 2766.5,262.833 2766.5,277.5C 2741.17,277.5 2715.83,277.5 2690.5,277.5C 2690.5,284.833 2690.5,292.167 2690.5,299.5C 2720.17,299.5 2749.83,299.5 2779.5,299.5C 2779.5,314.833 2779.5,330.167 2779.5,345.5C 2730.17,345.5 2680.83,345.5 2631.5,345.5C 2631.5,286.167 2631.5,226.833 2631.5,167.5 Z"/></g>
<g><path style="opacity:0.004" fill="#e6c04b" d="M 154.5,199.5 C 155.833,200.167 155.833,200.167 154.5,199.5 Z"/></g>
<g><path style="opacity:0.931" fill="#e6c04b" d="M 49.5,214.5 C 55.4686,214.054 60.8019,215.554 65.5,219C 67.8782,219.511 70.2115,220.178 72.5,221C 86.6357,229.802 98.1357,241.302 107,255.5C 107.768,259.941 109.434,263.941 112,267.5C 118.971,303.316 119.138,339.15 112.5,375C 70.0231,374.19 44.5231,353.023 36,311.5C 33.1876,277.923 37.6876,245.59 49.5,214.5 Z"/></g>
<g><path style="opacity:0.929" fill="#e6c04b" d="M 1294.5,214.5 C 1298.49,213.616 1301.32,214.949 1303,218.5C 1306.5,228.678 1309.5,239.012 1312,249.5C 1315.28,269.368 1316.28,289.368 1315,309.5C 1310.01,343.483 1291.01,364.817 1258,373.5C 1251.61,375.325 1245.11,375.825 1238.5,375C 1237.74,370.529 1236.91,366.029 1236,361.5C 1235.1,346.612 1233.93,331.779 1232.5,317C 1233.43,300.02 1235.6,283.187 1239,266.5C 1247.2,246.86 1260.37,231.694 1278.5,221C 1284.34,219.565 1289.67,217.398 1294.5,214.5 Z"/></g>
<g><path style="opacity:0.004" fill="#e6c04b" d="M 370.5,246.5 C 371.833,247.167 371.833,247.167 370.5,246.5 Z"/></g>
<g><path style="opacity:0.925" fill="#e6c04b" d="M 188.5,360.5 C 180.257,367.124 170.923,371.957 160.5,375C 151.208,376.021 142.708,377.188 135,378.5C 129.33,377.227 122.83,376.394 115.5,376C 114.884,374.6 114.551,373.1 114.5,371.5C 116.708,354.073 120.875,336.407 127,318.5C 133.562,302.359 144.062,288.693 158.5,277.5C 174.598,267.868 191.931,264.868 210.5,268.5C 218.08,269.979 225.413,271.979 232.5,274.5C 232.665,277.518 232.498,280.518 232,283.5C 229.151,292.437 226.485,300.771 224,308.5C 221.541,310.05 220.874,312.05 222,314.5C 221.667,314.167 221.333,313.833 221,313.5C 214.112,331.959 203.278,347.626 188.5,360.5 Z"/></g>
<g><path style="opacity:0.927" fill="#e6c04b" d="M 1154.5,266.5 C 1179.46,267.29 1198.46,277.79 1211.5,298C 1214.12,301.412 1216.62,304.912 1219,308.5C 1227.87,328.839 1233.7,350.006 1236.5,372C 1235.85,373.44 1235.52,374.94 1235.5,376.5C 1228.67,376.983 1222.17,377.649 1216,378.5C 1188.77,378.563 1166.1,367.896 1148,346.5C 1144.86,341.455 1141.52,336.455 1138,331.5C 1129.11,314.455 1122.28,296.622 1117.5,278C 1117.74,277.127 1118.07,276.293 1118.5,275.5C 1120.76,274.582 1123.09,273.915 1125.5,273.5C 1126.91,273.132 1127.91,272.299 1128.5,271C 1132.5,270.333 1136.5,269.667 1140.5,269C 1140.17,268.667 1139.83,268.333 1139.5,268C 1144.68,267.826 1149.68,267.326 1154.5,266.5 Z"/></g>
<g><path style="opacity:0.988" fill="#e6c04b" d="M 658.5,315.5 C 708.362,311.252 755.362,320.752 799.5,344C 820.811,356.478 838.811,372.645 853.5,392.5C 826.167,416.833 798.833,441.167 771.5,465.5C 760.134,451.628 746.801,440.128 731.5,431C 697.695,415.433 665.028,417.433 633.5,437C 609.37,457.61 597.704,483.943 598.5,516C 597.334,551.258 611.001,578.925 639.5,599C 678.292,618.365 714.958,615.032 749.5,589C 757.042,581.626 764.375,574.126 771.5,566.5C 798.833,590.833 826.167,615.167 853.5,639.5C 832.469,667.677 805.469,688.177 772.5,701C 729.946,716.222 686.28,720.555 641.5,714C 582.802,705.538 535.968,677.705 501,630.5C 466.427,575.385 458.093,516.385 476,453.5C 498.537,387.965 543.037,345.131 609.5,325C 625.719,320.523 642.053,317.356 658.5,315.5 Z"/></g>
<g><path style="opacity:0.934" fill="#e6c04b" d="M 75.5,373.5 C 80.6342,378.805 85.6342,384.305 90.5,390C 90.1667,390.333 89.8333,390.667 89.5,391C 91.1267,394.532 93.1267,397.866 95.5,401C 95.1667,401.333 94.8333,401.667 94.5,402C 97.2456,407.721 99.7456,413.555 102,419.5C 103.108,425.147 104.108,430.814 105,436.5C 105.419,437.672 106.085,438.672 107,439.5C 107.542,446.605 108.542,453.605 110,460.5C 110.236,469.166 111.069,477.666 112.5,486C 112.478,489.086 112.145,492.086 111.5,495C 77.3594,501.812 51.0261,491.312 32.5,463.5C 25.2429,450.764 20.4096,437.097 18,422.5C 17.3333,399.167 17.3333,375.833 18,352.5C 21.2748,348.68 24.7748,348.513 28.5,352C 46.908,353.51 62.5747,360.677 75.5,373.5 Z"/></g>
<g><path style="opacity:0.928" fill="#e6c04b" d="M 1324.5,349.5 C 1327.27,349.22 1329.77,349.887 1332,351.5C 1336.12,381.02 1335.12,410.353 1329,439.5C 1321.97,464.014 1307.47,481.514 1285.5,492C 1279.8,494.633 1273.14,496.3 1265.5,497C 1256.7,497.973 1248.03,497.306 1239.5,495C 1238.36,488.248 1238.19,481.414 1239,474.5C 1241.45,462.752 1243.11,450.752 1244,438.5C 1246.61,431.767 1248.45,424.767 1249.5,417.5C 1252.57,408.193 1256.57,399.36 1261.5,391C 1270.3,374.596 1283.96,363.262 1302.5,357C 1302.17,356.667 1301.83,356.333 1301.5,356C 1308.03,354.022 1314.7,352.689 1321.5,352C 1322.94,351.623 1323.94,350.79 1324.5,349.5 Z"/></g>
<g><path style="opacity:0.004" fill="#e6c04b" d="M 188.5,360.5 C 189.833,361.167 189.833,361.167 188.5,360.5 Z"/></g>
<g><path style="opacity:0.925" fill="#e6c04b" d="M 203.5,373.5 C 205.948,374.473 208.615,374.806 211.5,374.5C 211.33,375.822 211.663,376.989 212.5,378C 210.995,381.862 209.995,385.862 209.5,390C 210.081,390.893 210.415,391.893 210.5,393C 208.648,400.301 207.482,407.801 207,415.5C 206.333,416.167 205.667,416.833 205,417.5C 194.926,467.834 165.093,493.501 115.5,494.5C 114.846,492.885 114.346,491.218 114,489.5C 110.113,458.949 114.447,430.615 127,404.5C 131.646,398.686 136.479,393.02 141.5,387.5C 146.583,383.539 152.083,380.206 158,377.5C 163.314,375.463 168.814,374.296 174.5,374C 173.5,373.667 172.5,373.333 171.5,373C 182.236,370.921 192.903,371.087 203.5,373.5 Z"/></g>
<g><path style="opacity:0.924" fill="#e6c04b" d="M 1221.5,402.5 C 1222.17,403.267 1223.01,403.934 1224,404.5C 1237,433.087 1241,463.087 1236,494.5C 1217.57,495.049 1199.74,490.216 1182.5,480C 1168.16,469.997 1157.99,456.83 1152,440.5C 1149.08,432.571 1146.42,424.571 1144,416.5C 1142.92,403.791 1141.09,391.291 1138.5,379C 1138.64,377.774 1138.98,376.607 1139.5,375.5C 1142.31,374.832 1144.97,374.166 1147.5,373.5C 1158.1,371.087 1168.76,370.921 1179.5,373C 1178.5,373.333 1177.5,373.667 1176.5,374C 1196.29,376.368 1211.29,385.868 1221.5,402.5 Z"/></g>
<g><path style="opacity:0.004" fill="#e6c04b" d="M 75.5,372.5 C 76.8333,373.167 76.8333,373.167 75.5,372.5 Z"/></g>
<g><path style="opacity:0.004" fill="#e6c04b" d="M 203.5,373.5 C 204.251,372.427 205.251,372.26 206.5,373C 205.552,373.483 204.552,373.649 203.5,373.5 Z"/></g>
<g><path style="opacity:0.004" fill="#e6c04b" d="M 1147.5,373.5 C 1146.45,373.649 1145.45,373.483 1144.5,373C 1145.75,372.26 1146.75,372.427 1147.5,373.5 Z"/></g>
<g><path style="opacity:0.004" fill="#e6c04b" d="M 1221.5,401.5 C 1222.83,402.167 1222.83,402.167 1221.5,401.5 Z"/></g>
<g><path style="opacity:0.004" fill="#e6c04b" d="M 1245.5,428.5 C 1246.83,429.167 1246.83,429.167 1245.5,428.5 Z"/></g>
<g><path style="opacity:0.975" fill="#e6c04b" d="M 1921.5,450.5 C 1951.63,446.753 1978.97,453.587 2003.5,471C 2008.53,475.699 2013.2,480.699 2017.5,486C 2004.67,497.5 1991.83,509 1979,520.5C 1961.41,498.584 1940.25,494.084 1915.5,507C 1900.35,521.091 1895.51,538.258 1901,558.5C 1909.93,581.885 1926.76,591.051 1951.5,586C 1962.62,582.349 1971.78,575.849 1979,566.5C 1991.83,578 2004.67,589.5 2017.5,601C 2001.15,621.515 1979.81,633.182 1953.5,636C 1916.61,641.037 1885.11,630.537 1859,604.5C 1836.68,574.959 1831.68,542.625 1844,507.5C 1859.51,474.494 1885.34,455.494 1921.5,450.5 Z"/></g>
<g><path style="opacity:0.98" fill="#e6c04b" d="M 2092.5,450.5 C 2125.05,446.716 2154.05,454.883 2179.5,475C 2206.33,502.138 2214.83,534.305 2205,571.5C 2191.31,609.167 2164.48,630.667 2124.5,636C 2093.07,640.06 2064.74,632.727 2039.5,614C 2013.44,590.502 2003.28,561.336 2009,526.5C 2015.8,492.698 2035.3,469.532 2067.5,457C 2075.84,454.332 2084.18,452.166 2092.5,450.5 Z M 2102.5,499.5 C 2128.08,498.913 2142.91,511.247 2147,536.5C 2149.15,553.709 2143.99,568.209 2131.5,580C 2110.9,592.144 2092.73,589.311 2077,571.5C 2069.03,556.936 2067.37,541.603 2072,525.5C 2077.74,511.596 2087.9,502.929 2102.5,499.5 Z"/></g>
<g><path style="opacity:0.975" fill="#e6c04b" d="M 2475.5,450.5 C 2505.63,446.753 2532.97,453.587 2557.5,471C 2562.53,475.699 2567.2,480.699 2571.5,486C 2558.67,497.5 2545.83,509 2533,520.5C 2515.41,498.584 2494.25,494.084 2469.5,507C 2454.35,521.091 2449.51,538.258 2455,558.5C 2463.93,581.885 2480.76,591.051 2505.5,586C 2516.62,582.349 2525.78,575.849 2533,566.5C 2545.83,578 2558.67,589.5 2571.5,601C 2555.15,621.515 2533.81,633.182 2507.5,636C 2470.61,641.037 2439.11,630.537 2413,604.5C 2390.68,574.959 2385.68,542.625 2398,507.5C 2413.51,474.494 2439.34,455.494 2475.5,450.5 Z"/></g>
<g><path style="opacity:0.98" fill="#e6c04b" d="M 3102.5,450.5 C 3132.69,446.9 3160.36,453.4 3185.5,470C 3191.17,474.333 3196.17,479.333 3200.5,485C 3187.43,496.618 3174.26,508.118 3161,519.5C 3142.37,498.24 3120.54,494.074 3095.5,507C 3081.58,519.44 3076.41,534.94 3080,553.5C 3084.88,575.376 3098.55,586.71 3121,587.5C 3128.38,587.187 3135.54,585.854 3142.5,583.5C 3142.5,568.5 3142.5,553.5 3142.5,538.5C 3159.83,538.5 3177.17,538.5 3194.5,538.5C 3194.83,564.175 3194.5,589.842 3193.5,615.5C 3154.75,638.584 3114.09,642.75 3071.5,628C 3032.54,608.271 3014.71,576.438 3018,532.5C 3022.73,496.84 3041.56,472.007 3074.5,458C 3083.72,454.532 3093.05,452.032 3102.5,450.5 Z"/></g>
<g><path style="opacity:0.99" fill="#e6c04b" d="M 1432.5,454.5 C 1467.5,454.333 1502.5,454.5 1537.5,455C 1567.65,457.813 1591.48,471.313 1609,495.5C 1625.67,527.5 1625.67,559.5 1609,591.5C 1591.48,615.687 1567.65,629.187 1537.5,632C 1502.5,632.5 1467.5,632.667 1432.5,632.5C 1432.5,573.167 1432.5,513.833 1432.5,454.5 Z M 1492.5,501.5 C 1502.51,501.334 1512.51,501.5 1522.5,502C 1546.99,504.991 1559.32,518.824 1559.5,543.5C 1559.32,568.176 1546.99,582.009 1522.5,585C 1512.51,585.5 1502.51,585.666 1492.5,585.5C 1492.5,557.5 1492.5,529.5 1492.5,501.5 Z"/></g>
<g><path style="opacity:0.989" fill="#e6c04b" d="M 1627.5,454.5 C 1675.83,454.5 1724.17,454.5 1772.5,454.5C 1772.5,469.833 1772.5,485.167 1772.5,500.5C 1743.83,500.5 1715.17,500.5 1686.5,500.5C 1686.5,507.167 1686.5,513.833 1686.5,520.5C 1711.83,520.5 1737.17,520.5 1762.5,520.5C 1762.5,535.167 1762.5,549.833 1762.5,564.5C 1737.17,564.5 1711.83,564.5 1686.5,564.5C 1686.5,571.833 1686.5,579.167 1686.5,586.5C 1716.17,586.5 1745.83,586.5 1775.5,586.5C 1775.5,601.833 1775.5,617.167 1775.5,632.5C 1726.17,632.5 1676.83,632.5 1627.5,632.5C 1627.5,573.167 1627.5,513.833 1627.5,454.5 Z"/></g>
<g><path style="opacity:0.983" fill="#e6c04b" d="M 2269.5,454.5 C 2289.84,454.167 2310.18,454.5 2330.5,455.5C 2356.17,514.167 2381.83,572.833 2407.5,631.5C 2386.51,632.666 2365.51,632.833 2344.5,632C 2340.37,622.238 2336.37,612.405 2332.5,602.5C 2310.18,601.5 2287.84,601.167 2265.5,601.5C 2262.24,611.618 2258.57,621.618 2254.5,631.5C 2233.84,632.5 2213.18,632.833 2192.5,632.5C 2217.78,573.009 2243.44,513.676 2269.5,454.5 Z M 2298.5,515.5 C 2304.44,529.129 2310.1,542.963 2315.5,557C 2304.84,557.5 2294.17,557.667 2283.5,557.5C 2288.5,543.5 2293.5,529.5 2298.5,515.5 Z"/></g>
<g><path style="opacity:0.998" fill="#e6c04b" d="M 2572.5,454.5 C 2592.5,454.5 2612.5,454.5 2632.5,454.5C 2632.5,475.5 2632.5,496.5 2632.5,517.5C 2651.17,517.5 2669.83,517.5 2688.5,517.5C 2688.5,496.5 2688.5,475.5 2688.5,454.5C 2708.5,454.5 2728.5,454.5 2748.5,454.5C 2748.5,513.833 2748.5,573.167 2748.5,632.5C 2728.5,632.5 2708.5,632.5 2688.5,632.5C 2688.5,610.833 2688.5,589.167 2688.5,567.5C 2669.83,567.5 2651.17,567.5 2632.5,567.5C 2632.5,589.167 2632.5,610.833 2632.5,632.5C 2612.5,632.5 2592.5,632.5 2572.5,632.5C 2572.5,573.167 2572.5,513.833 2572.5,454.5 Z"/></g>
<g><path style="opacity:1" fill="#e6c04b" d="M 2761.5,454.5 C 2781.5,454.5 2801.5,454.5 2821.5,454.5C 2821.5,513.833 2821.5,573.167 2821.5,632.5C 2801.5,632.5 2781.5,632.5 2761.5,632.5C 2761.5,573.167 2761.5,513.833 2761.5,454.5 Z"/></g>
<g><path style="opacity:0.99" fill="#e6c04b" d="M 2835.5,454.5 C 2852.5,454.333 2869.5,454.5 2886.5,455C 2908.71,480.874 2930.54,507.041 2952,533.5C 2952.5,507.169 2952.67,480.835 2952.5,454.5C 2972.17,454.5 2991.83,454.5 3011.5,454.5C 3011.5,513.833 3011.5,573.167 3011.5,632.5C 2994.49,632.833 2977.49,632.499 2960.5,631.5C 2938.85,605.354 2917.02,579.354 2895,553.5C 2894.5,579.831 2894.33,606.165 2894.5,632.5C 2874.83,632.5 2855.17,632.5 2835.5,632.5C 2835.5,573.167 2835.5,513.833 2835.5,454.5 Z"/></g>
<g><path style="opacity:0.92" fill="#e6c04b" d="M 198.5,474.5 C 202.106,474.211 205.606,474.544 209,475.5C 209.407,478.682 209.907,481.849 210.5,485C 209.744,488.2 210.244,491.366 212,494.5C 212.667,505.167 212.667,515.833 212,526.5C 210.107,535.351 208.44,544.351 207,553.5C 205.701,554.09 204.868,555.09 204.5,556.5C 201.694,566.276 196.694,574.776 189.5,582C 189.833,582.333 190.167,582.667 190.5,583C 182.09,589.752 173.424,596.085 164.5,602C 158.663,604.091 152.996,606.424 147.5,609C 144.144,610.182 140.81,610.349 137.5,609.5C 133.304,600.05 130.804,590.05 130,579.5C 129.667,580.167 129.333,580.833 129,581.5C 128.689,575.126 128.023,568.793 127,562.5C 124.214,510.902 148.047,481.569 198.5,474.5 Z"/></g>
<g><path style="opacity:0.921" fill="#e6c04b" d="M 1142.5,474.5 C 1194.46,475.631 1221.46,502.131 1223.5,554C 1223.37,562.522 1222.87,571.022 1222,579.5C 1221.67,579.167 1221.33,578.833 1221,578.5C 1220.42,583.511 1219.75,588.511 1219,593.5C 1216.73,599.039 1214.89,604.706 1213.5,610.5C 1185.82,606.019 1164.65,591.686 1150,567.5C 1137.58,537.314 1135.08,506.314 1142.5,474.5 Z"/></g>
<g><path style="opacity:0.93" fill="#e6c04b" d="M 125.5,576.5 C 128.828,587.806 132.161,599.14 135.5,610.5C 134.221,612.146 132.555,613.313 130.5,614C 126.146,614.418 122.146,615.752 118.5,618C 107.164,619.94 95.8307,619.94 84.5,618C 56.213,607.319 37.713,586.819 29,556.5C 28.3333,555.833 27.6667,555.167 27,554.5C 22.9936,542.878 19.9936,530.878 18,518.5C 17.5002,508.506 17.3335,498.506 17.5,488.5C 27.8478,487.1 38.1812,487.267 48.5,489C 50.1384,490.801 51.9717,490.968 54,489.5C 55.7618,489.944 55.5951,490.444 53.5,491C 70.1598,495.011 83.9931,503.511 95,516.5C 108.302,534.903 118.468,554.903 125.5,576.5 Z"/></g>
<g><path style="opacity:0.927" fill="#e6c04b" d="M 1297.5,490.5 C 1304.32,488.432 1311.66,487.432 1319.5,487.5C 1324.5,487.321 1329.33,487.987 1334,489.5C 1334.05,524.807 1325.22,557.473 1307.5,587.5C 1283.6,619.098 1253.26,627.265 1216.5,612C 1221.49,581.842 1231.99,553.675 1248,527.5C 1259.72,508.729 1276.22,496.395 1297.5,490.5 Z"/></g>
<g><path style="opacity:0.004" fill="#e6c04b" d="M 1297.5,490.5 C 1296.76,490.631 1296.09,490.464 1295.5,490C 1296.44,489.308 1297.1,489.475 1297.5,490.5 Z"/></g>
<g><path style="opacity:0.004" fill="#e6c04b" d="M 1037.5,527.5 C 1038.83,528.167 1038.83,528.167 1037.5,527.5 Z"/></g>
<g><path style="opacity:0.924" fill="#e6c04b" d="M 223.5,571.5 C 224.794,572.29 225.961,573.29 227,574.5C 229.997,585.163 232.997,595.829 236,606.5C 236.887,613.144 237.554,619.811 238,626.5C 238.333,625.5 238.667,624.5 239,623.5C 244.05,660.482 230.383,690.149 198,712.5C 195.711,714.06 193.211,715.227 190.5,716C 190.833,716.333 191.167,716.667 191.5,717C 188.077,718.904 184.41,719.737 180.5,719.5C 177.499,711.347 173.999,703.347 170,695.5C 167.108,688.321 164.774,680.321 163,671.5C 150.698,627.211 165.532,595.877 207.5,577.5C 212.04,575.891 216.706,574.725 221.5,574C 222.381,573.292 223.047,572.458 223.5,571.5 Z"/></g>
<g><path style="opacity:0.922" fill="#e6c04b" d="M 1126.5,571.5 C 1127.48,571.811 1128.14,572.478 1128.5,573.5C 1148.84,577.473 1166.01,587.806 1180,604.5C 1183.85,610.65 1187.18,616.983 1190,623.5C 1191.95,638.162 1191.95,652.829 1190,667.5C 1186.8,678.622 1183.13,689.622 1179,700.5C 1175.94,706.785 1172.78,712.951 1169.5,719C 1166.41,719.652 1163.41,719.318 1160.5,718C 1153.17,712.667 1145.83,707.333 1138.5,702C 1127.97,691.56 1120.14,679.727 1115,666.5C 1110.18,643.787 1110.85,620.453 1117,596.5C 1119.58,588.973 1121.91,581.306 1124,573.5C 1124.99,572.934 1125.83,572.267 1126.5,571.5 Z"/></g>
<g><path style="opacity:0.004" fill="#e6c04b" d="M 125.5,576.5 C 125.369,575.761 125.536,575.094 126,574.5C 126.692,575.437 126.525,576.103 125.5,576.5 Z"/></g>
<g><path style="opacity:0.932" fill="#e6c04b" d="M 67.5,618.5 C 71.1297,619.019 74.6297,619.019 78,618.5C 84.3753,620.1 90.8753,621.267 97.5,622C 101.173,624.428 105.173,626.261 109.5,627.5C 124.768,637.267 137.601,649.601 148,664.5C 159.355,681.617 169.855,700.117 179.5,720C 179.561,721.711 178.894,723.044 177.5,724C 169.791,728.239 161.791,731.906 153.5,735C 140.833,737 128.167,737 115.5,735C 97.7584,727.592 83.2584,716.092 72,700.5C 65.1528,689.817 59.1528,679.15 54,668.5C 50.958,660.27 47.6246,652.27 44,644.5C 42.5074,637.873 41.3407,631.206 40.5,624.5C 49.3521,621.948 58.3521,619.948 67.5,618.5 Z"/></g>
<g><path style="opacity:0.933" fill="#e6c04b" d="M 1179.5,703.5 C 1189.37,684.414 1201.2,666.414 1215,649.5C 1241.35,619.811 1272.68,611.811 1309,625.5C 1309.33,625.167 1309.67,624.833 1310,624.5C 1309.4,631.17 1308.4,637.837 1307,644.5C 1302.53,653.462 1298.53,662.795 1295,672.5C 1287.3,686.589 1278.64,699.922 1269,712.5C 1257.6,724.11 1244.1,731.943 1228.5,736C 1217.79,736.812 1207.13,736.478 1196.5,735C 1192.04,732.62 1187.37,730.62 1182.5,729C 1178.98,726.802 1175.48,724.635 1172,722.5C 1171.33,720.833 1171.33,719.167 1172,717.5C 1174.79,712.943 1177.29,708.276 1179.5,703.5 Z"/></g>
<g><path style="opacity:0.004" fill="#e6c04b" d="M 1111.5,619.5 C 1112.53,619.897 1112.69,620.563 1112,621.5C 1111.54,620.906 1111.37,620.239 1111.5,619.5 Z"/></g>
<g><path style="opacity:0.004" fill="#e6c04b" d="M 157.5,638.5 C 158.833,639.167 158.833,639.167 157.5,638.5 Z"/></g>
<g><path style="opacity:0.004" fill="#e6c04b" d="M 157.5,647.5 C 158.525,647.897 158.692,648.563 158,649.5C 157.536,648.906 157.369,648.239 157.5,647.5 Z"/></g>
<g><path style="opacity:0.004" fill="#e6c04b" d="M 238.5,651.5 C 239.525,651.897 239.692,652.563 239,653.5C 238.536,652.906 238.369,652.239 238.5,651.5 Z"/></g>
<g><path style="opacity:0.924" fill="#e6c04b" d="M 258.5,665.5 C 260.144,665.286 261.644,665.62 263,666.5C 272.532,684.15 280.199,702.15 286,720.5C 295.274,751.621 288.274,779.955 265,805.5C 260.222,810.954 254.888,815.621 249,819.5C 235.158,805.828 224.825,789.828 218,771.5C 217.667,771.833 217.333,772.167 217,772.5C 208.429,753.247 206.429,733.247 211,712.5C 216.413,700.862 223.913,690.696 233.5,682C 235.167,681 236.833,680 238.5,679C 238.167,678.667 237.833,678.333 237.5,678C 244.419,673.549 251.419,669.383 258.5,665.5 Z"/></g>
<g><path style="opacity:0.925" fill="#e6c04b" d="M 1088.5,665.5 C 1115.23,675.406 1132.73,693.406 1141,719.5C 1141.84,731.539 1141.5,743.539 1140,755.5C 1137.55,760.96 1135.55,766.627 1134,772.5C 1133.67,772.167 1133.33,771.833 1133,771.5C 1125.6,789.69 1115.27,805.69 1102,819.5C 1079.76,803.697 1066.1,782.364 1061,755.5C 1060.33,750.5 1060.33,745.5 1061,740.5C 1062.42,733.187 1063.76,725.854 1065,718.5C 1071.38,700.215 1079.21,682.549 1088.5,665.5 Z"/></g>
<g><path style="opacity:0.004" fill="#e6c04b" d="M 1179.5,703.5 C 1178.83,702.167 1178.83,702.167 1179.5,703.5 Z"/></g>
<g><path style="opacity:0.932" fill="#e6c04b" d="M 131.5,738.5 C 135.182,738.335 138.848,738.501 142.5,739C 148.337,740.974 154.337,742.307 160.5,743C 171.016,747.871 181.016,753.538 190.5,760C 200.584,769.081 210.417,778.581 220,788.5C 227.094,797.684 234.427,806.684 242,815.5C 242.483,816.448 242.649,817.448 242.5,818.5C 243.5,818.5 244.5,818.5 245.5,818.5C 245.643,820.262 245.309,821.929 244.5,823.5C 209.38,854.536 174.046,854.703 138.5,824C 117.985,804.03 102.151,782.196 91,758.5C 90.2025,756.741 90.3691,755.074 91.5,753.5C 100.854,746.106 112.187,741.939 125.5,741C 127.611,740.155 129.611,739.322 131.5,738.5 Z"/></g>
<g><path style="opacity:0.931" fill="#e6c04b" d="M 1193.5,837.5 C 1172.07,849.26 1150.4,850.093 1128.5,840C 1121,834.649 1113.5,829.149 1106,823.5C 1106.31,819.439 1108.14,815.939 1111.5,813C 1124.64,794.337 1140.31,777.503 1158.5,762.5C 1166.48,755.501 1175.48,750.001 1185.5,746C 1185.17,745.667 1184.83,745.333 1184.5,745C 1210.92,735.385 1235.92,738.218 1259.5,753.5C 1260.63,755.074 1260.8,756.741 1260,758.5C 1248.09,782.527 1232.26,804.36 1212.5,824C 1206.38,829.037 1200.05,833.537 1193.5,837.5 Z"/></g>
<g><path style="opacity:0.975" fill="#e6c04b" d="M 1509.5,738.5 C 1539.63,734.753 1566.97,741.587 1591.5,759C 1596.53,763.699 1601.2,768.699 1605.5,774C 1592.67,785.5 1579.83,797 1567,808.5C 1549.41,786.584 1528.25,782.084 1503.5,795C 1488.35,809.091 1483.51,826.258 1489,846.5C 1497.93,869.885 1514.76,879.051 1539.5,874C 1550.62,870.349 1559.78,863.849 1567,854.5C 1579.83,866 1592.67,877.5 1605.5,889C 1589.15,909.515 1567.81,921.182 1541.5,924C 1504.61,929.037 1473.11,918.537 1447,892.5C 1424.68,862.959 1419.68,830.625 1432,795.5C 1447.51,762.494 1473.34,743.494 1509.5,738.5 Z"/></g>
<g><path style="opacity:0.98" fill="#e6c04b" d="M 1680.5,738.5 C 1713.05,734.716 1742.05,742.883 1767.5,763C 1794.33,790.138 1802.83,822.305 1793,859.5C 1779.31,897.167 1752.48,918.667 1712.5,924C 1681.07,928.06 1652.74,920.727 1627.5,902C 1601.44,878.502 1591.28,849.336 1597,814.5C 1603.8,780.698 1623.3,757.532 1655.5,745C 1663.84,742.332 1672.18,740.166 1680.5,738.5 Z M 1690.5,787.5 C 1716.08,786.913 1730.91,799.247 1735,824.5C 1737.15,841.709 1731.99,856.209 1719.5,868C 1698.9,880.144 1680.73,877.311 1665,859.5C 1657.03,844.936 1655.37,829.603 1660,813.5C 1665.74,799.596 1675.9,790.929 1690.5,787.5 Z"/></g>
<g><path style="opacity:0.987" fill="#e6c04b" d="M 2664.5,738.5 C 2694.63,734.753 2721.97,741.587 2746.5,759C 2751.37,763.532 2755.87,768.366 2760,773.5C 2760.5,763.172 2760.67,752.839 2760.5,742.5C 2780.5,742.5 2800.5,742.5 2820.5,742.5C 2820.33,797.168 2820.5,851.834 2821,906.5C 2844.67,852.167 2868.33,797.833 2892,743.5C 2912.44,742.174 2932.94,742.174 2953.5,743.5C 2976.9,797.541 3000.4,851.541 3024,905.5C 3024.5,851.168 3024.67,796.834 3024.5,742.5C 3044.5,742.5 3064.5,742.5 3084.5,742.5C 3084.5,786.167 3084.5,829.833 3084.5,873.5C 3111.5,873.5 3138.5,873.5 3165.5,873.5C 3165.5,889.167 3165.5,904.833 3165.5,920.5C 3099.5,920.667 3033.5,920.5 2967.5,920C 2963.37,910.238 2959.37,900.405 2955.5,890.5C 2933.18,889.5 2910.84,889.167 2888.5,889.5C 2885.24,899.618 2881.57,909.618 2877.5,919.5C 2838.51,920.5 2799.51,920.833 2760.5,920.5C 2760.67,910.161 2760.5,899.828 2760,889.5C 2739.48,914.337 2712.98,926.003 2680.5,924.5C 2643.85,925.426 2615.02,911.093 2594,881.5C 2583.61,863.222 2578.94,843.555 2580,822.5C 2576.23,842.088 2565.73,856.755 2548.5,866.5C 2560.5,884.167 2572.5,901.833 2584.5,919.5C 2562.84,920.666 2541.17,920.833 2519.5,920C 2509.5,905.667 2499.5,891.333 2489.5,877C 2484.18,876.501 2478.84,876.334 2473.5,876.5C 2473.5,891.167 2473.5,905.833 2473.5,920.5C 2453.5,920.5 2433.5,920.5 2413.5,920.5C 2413.5,861.167 2413.5,801.833 2413.5,742.5C 2447.5,742.333 2481.5,742.5 2515.5,743C 2561.13,748.791 2582.97,774.624 2581,820.5C 2585.3,786.034 2603.13,761.534 2634.5,747C 2644.29,742.952 2654.29,740.119 2664.5,738.5 Z M 2759.5,774.5 C 2760.66,812.331 2760.83,850.331 2760,888.5C 2747.33,877.167 2734.67,865.833 2722,854.5C 2704.41,876.416 2683.25,880.916 2658.5,868C 2644.36,855.25 2639.2,839.416 2643,820.5C 2650.47,794.387 2667.64,783.887 2694.5,789C 2705.62,792.651 2714.78,799.151 2722,808.5C 2734.7,797.301 2747.2,785.968 2759.5,774.5 Z M 2473.5,789.5 C 2483.51,789.334 2493.51,789.5 2503.5,790C 2518.41,795.362 2522.91,805.529 2517,820.5C 2511.49,827.336 2504.33,830.502 2495.5,830C 2488.17,830.5 2480.84,830.666 2473.5,830.5C 2473.5,816.833 2473.5,803.167 2473.5,789.5 Z M 2921.5,803.5 C 2927.44,817.129 2933.1,830.963 2938.5,845C 2927.84,845.5 2917.17,845.667 2906.5,845.5C 2911.5,831.5 2916.5,817.5 2921.5,803.5 Z"/></g>
<g><path style="opacity:0.985" fill="#e6c04b" d="M 1803.5,742.5 C 1820.51,742.167 1837.51,742.501 1854.5,743.5C 1873.08,774.334 1891.92,805 1911,835.5C 1929.88,804.915 1948.38,774.082 1966.5,743C 1983.5,742.5 2000.5,742.333 2017.5,742.5C 2017.5,801.833 2017.5,861.167 2017.5,920.5C 1999.17,920.5 1980.83,920.5 1962.5,920.5C 1962.43,894.493 1961.93,868.493 1961,842.5C 1949.25,862.998 1937.25,883.331 1925,903.5C 1915.58,904.651 1906.08,904.818 1896.5,904C 1884,884.167 1871.5,864.333 1859,844.5C 1858.5,869.831 1858.33,895.164 1858.5,920.5C 1840.17,920.5 1821.83,920.5 1803.5,920.5C 1803.5,861.167 1803.5,801.833 1803.5,742.5 Z"/></g>
<g><path style="opacity:0.985" fill="#e6c04b" d="M 2030.5,742.5 C 2047.51,742.167 2064.51,742.501 2081.5,743.5C 2100.08,774.334 2118.92,805 2138,835.5C 2156.88,804.915 2175.38,774.082 2193.5,743C 2210.5,742.5 2227.5,742.333 2244.5,742.5C 2244.5,801.833 2244.5,861.167 2244.5,920.5C 2226.17,920.5 2207.83,920.5 2189.5,920.5C 2189.43,894.493 2188.93,868.493 2188,842.5C 2176.25,862.998 2164.25,883.331 2152,903.5C 2142.58,904.651 2133.08,904.818 2123.5,904C 2111,884.167 2098.5,864.333 2086,844.5C 2085.5,869.831 2085.33,895.164 2085.5,920.5C 2067.17,920.5 2048.83,920.5 2030.5,920.5C 2030.5,861.167 2030.5,801.833 2030.5,742.5 Z"/></g>
<g><path style="opacity:0.989" fill="#e6c04b" d="M 2257.5,742.5 C 2305.83,742.5 2354.17,742.5 2402.5,742.5C 2402.5,757.833 2402.5,773.167 2402.5,788.5C 2373.83,788.5 2345.17,788.5 2316.5,788.5C 2316.5,795.167 2316.5,801.833 2316.5,808.5C 2341.83,808.5 2367.17,808.5 2392.5,808.5C 2392.5,823.167 2392.5,837.833 2392.5,852.5C 2367.17,852.5 2341.83,852.5 2316.5,852.5C 2316.5,859.833 2316.5,867.167 2316.5,874.5C 2346.17,874.5 2375.83,874.5 2405.5,874.5C 2405.5,889.833 2405.5,905.167 2405.5,920.5C 2356.17,920.5 2306.83,920.5 2257.5,920.5C 2257.5,861.167 2257.5,801.833 2257.5,742.5 Z"/></g>
<g><path style="opacity:0.927" fill="#e6c04b" d="M 314.5,749.5 C 331.774,768.535 345.607,789.201 356,811.5C 359.47,823.683 361.47,836.016 362,848.5C 359.757,856.365 357.757,864.365 356,872.5C 355.667,872.167 355.333,871.833 355,871.5C 350.807,884.414 343.64,895.081 333.5,903.5C 308.302,885.85 289.802,863.183 278,835.5C 271.93,812.957 275.597,792.29 289,773.5C 292.665,769.003 296.498,764.669 300.5,760.5C 305.197,756.825 309.864,753.158 314.5,749.5 Z"/></g>
<g><path style="opacity:0.926" fill="#e6c04b" d="M 1066.5,848.5 C 1057.8,863.881 1047.14,877.881 1034.5,890.5C 1029.07,895.281 1023.4,899.614 1017.5,903.5C 1016.45,903.32 1015.45,902.987 1014.5,902.5C 1001.21,886.93 992.71,869.597 989,850.5C 988.333,844.833 988.333,839.167 989,833.5C 991.045,826.576 992.878,819.576 994.5,812.5C 1001.81,795.702 1010.98,780.035 1022,765.5C 1027.27,760.884 1031.94,755.551 1036,749.5C 1052.69,761.136 1065.03,775.803 1073,793.5C 1077.8,812.801 1075.63,831.135 1066.5,848.5 Z"/></g>
<g><path style="opacity:0.004" fill="#e6c04b" d="M 1158.5,762.5 C 1157.83,761.167 1157.83,761.167 1158.5,762.5 Z"/></g>
<g><path style="opacity:0.004" fill="#e6c04b" d="M 887.5,816.5 C 888.833,817.167 888.833,817.167 887.5,816.5 Z"/></g>
<g><path style="opacity:0.927" fill="#e6c04b" d="M 443.5,963.5 C 442.733,964.172 442.066,965.005 441.5,966C 462.962,977.29 485.295,986.623 508.5,994C 509.716,995.74 511.382,996.74 513.5,997C 516.833,997.667 520.167,998.333 523.5,999C 528.02,1001.81 533.02,1003.31 538.5,1003.5C 538.533,1008.1 537.866,1012.6 536.5,1017C 535.788,1018.44 534.621,1019.28 533,1019.5C 520.495,1015.25 507.995,1011.08 495.5,1007C 493.699,1006.68 493.366,1006.02 494.5,1005C 474.062,998.319 454.395,990.152 435.5,980.5C 427.027,997.473 414.36,1010.31 397.5,1019C 394.899,1019.92 392.232,1020.59 389.5,1021C 389.833,1021.33 390.167,1021.67 390.5,1022C 375.5,1022.67 360.5,1022.67 345.5,1022C 346.167,1021.67 346.833,1021.33 347.5,1021C 343.434,1020.48 339.434,1019.65 335.5,1018.5C 309.753,1008.67 286.42,994.673 265.5,976.5C 264.675,975.614 263.675,975.281 262.5,975.5C 262.402,971.75 263.569,968.417 266,965.5C 282.317,946.114 303.15,935.78 328.5,934.5C 353.208,936.402 376.542,942.902 398.5,954C 399.944,954.781 401.277,954.614 402.5,953.5C 403.833,952.5 403.833,951.5 402.5,950.5C 384.099,937.941 370.266,921.608 361,901.5C 358.707,892.272 357.707,882.939 358,873.5C 361.067,853.482 370.067,836.816 385,823.5C 410.352,840.176 430.685,861.176 446,886.5C 456.418,912.501 455.585,938.168 443.5,963.5 Z"/></g>
<g><path style="opacity:0.927" fill="#e6c04b" d="M 962.5,823.5 C 965.459,823.35 967.959,824.35 970,826.5C 983.535,841.907 991.368,859.907 993.5,880.5C 992.171,887.126 991.004,893.793 990,900.5C 981.439,920.483 967.439,937.15 948,950.5C 947.783,953.657 949.283,954.824 952.5,954C 974.348,943.054 997.514,936.554 1022,934.5C 1031.48,934.629 1040.65,936.295 1049.5,939.5C 1065.05,946.197 1077.89,956.53 1088,970.5C 1088.49,972.134 1088.66,973.801 1088.5,975.5C 1081.12,979.525 1074.46,984.525 1068.5,990.5C 1051.74,1000.96 1034.41,1010.13 1016.5,1018C 1012.28,1019.47 1007.94,1020.47 1003.5,1021C 1004.17,1021.33 1004.83,1021.67 1005.5,1022C 990.489,1022.83 975.489,1022.67 960.5,1021.5C 943.938,1015.43 930.772,1005.1 921,990.5C 919.93,987.758 918.43,985.258 916.5,983C 917.524,981.633 917.024,980.8 915,980.5C 909.387,983.591 903.554,986.091 897.5,988C 898.833,988.667 898.833,989.333 897.5,990C 883.168,995.104 869.168,1000.77 855.5,1007C 842.782,1010.85 830.115,1015.02 817.5,1019.5C 815.971,1019.47 814.804,1018.8 814,1017.5C 813.006,1012.88 812.506,1008.22 812.5,1003.5C 821.713,1000.84 831.046,998.34 840.5,996C 849.736,991.563 859.403,987.896 869.5,985C 880.696,979.249 892.696,973.749 905.5,968.5C 906.5,967.5 907.5,966.5 908.5,965.5C 896.484,942.945 894.318,918.945 902,893.5C 916.117,866.044 935.95,843.544 961.5,826C 962.252,825.329 962.586,824.496 962.5,823.5 Z"/></g>
<g><path style="opacity:0.004" fill="#e6c04b" d="M 1193.5,837.5 C 1194.83,838.167 1194.83,838.167 1193.5,837.5 Z"/></g>
<g><path style="opacity:0.934" fill="#e6c04b" d="M 213.5,846.5 C 225.027,845.936 236.36,847.103 247.5,850C 247.167,850.333 246.833,850.667 246.5,851C 250.984,851.871 255.317,853.204 259.5,855C 263.869,857.902 268.535,860.236 273.5,862C 273.167,862.333 272.833,862.667 272.5,863C 274.5,863.667 276.5,864.333 278.5,865C 284.25,869.363 290.25,873.363 296.5,877C 303.395,883.128 310.728,888.795 318.5,894C 322.08,898.63 326.413,902.463 331.5,905.5C 330.568,907.795 329.735,910.129 329,912.5C 325.85,916.617 322.35,920.451 318.5,924C 314.655,927.752 310.322,930.752 305.5,933C 305.833,933.333 306.167,933.667 306.5,934C 300.665,936.087 295.665,938.42 291.5,941C 271.082,945.966 251.582,943.799 233,934.5C 206.265,918.848 183.598,898.848 165,874.5C 164.333,872.833 164.333,871.167 165,869.5C 178.856,856.938 195.023,849.271 213.5,846.5 Z"/></g>
<g><path style="opacity:0.934" fill="#e6c04b" d="M 1119.5,846.5 C 1134.41,845.546 1148.08,847.713 1160.5,853C 1167.73,856.965 1174.73,861.298 1181.5,866C 1183.72,867.767 1185.38,869.933 1186.5,872.5C 1165,902.253 1138.33,924.753 1106.5,940C 1089.48,944.611 1072.48,944.611 1055.5,940C 1042.19,933.348 1031.02,924.181 1022,912.5C 1019.9,910.026 1019.4,907.359 1020.5,904.5C 1032.03,895.463 1043.36,886.296 1054.5,877C 1062.9,872.141 1070.9,866.808 1078.5,861C 1087.23,856.695 1096.23,852.862 1105.5,849.5C 1110.27,848.332 1114.94,847.332 1119.5,846.5 Z"/></g>
<g><path style="opacity:0.004" fill="#e6c04b" d="M 1066.5,848.5 C 1067.83,849.167 1067.83,849.167 1066.5,848.5 Z"/></g>
<g><path style="opacity:0.004" fill="#e6c04b" d="M 286.5,943.5 C 286.897,942.475 287.563,942.308 288.5,943C 287.906,943.464 287.239,943.631 286.5,943.5 Z"/></g>
<g><path style="opacity:0.004" fill="#e6c04b" d="M 1062.5,942.5 C 1063.83,943.167 1063.83,943.167 1062.5,942.5 Z"/></g>
<g><path style="opacity:0.004" fill="#e6c04b" d="M 443.5,963.5 C 444.833,964.167 444.833,964.167 443.5,963.5 Z"/></g>
</svg>
