<?xml version="1.0" encoding="UTF-8"?>
<!DOCTYPE svg PUBLIC "-//W3C//DTD SVG 1.1//EN" "http://www.w3.org/Graphics/SVG/1.1/DTD/svg11.dtd">
<svg xmlns="http://www.w3.org/2000/svg" version="1.1" width="3166px" height="1414px" style="shape-rendering:geometricPrecision; text-rendering:geometricPrecision; image-rendering:optimizeQuality; fill-rule:evenodd; clip-rule:evenodd" xmlns:xlink="http://www.w3.org/1999/xlink">
<g><path style="opacity:0.93" fill="#e6c04b" d="M 218.5,127.5 C 221.266,120.535 224.766,113.868 229,107.5C 236.156,98.0027 243.656,88.8361 251.5,80C 260.371,71.754 269.704,64.0874 279.5,57C 289.307,52.0746 298.807,46.5746 308,40.5C 308.333,40.8333 308.667,41.1667 309,41.5C 311.768,39.799 314.601,38.4656 317.5,37.5C 323.766,35.3489 330.099,33.5155 336.5,32C 336.167,31.6667 335.833,31.3333 335.5,31C 342.275,28.7468 349.275,27.9134 356.5,28.5C 354.201,40.7164 352.367,53.0497 351,65.5C 347.21,78.0571 343.543,91.3904 340,105.5C 334.354,118.192 328.354,131.525 322,145.5C 305.706,173.361 284.54,196.528 258.5,215C 263.094,213.962 267.594,212.462 272,210.5C 279.458,210.249 286.791,209.249 294,207.5C 302.734,209.225 311.567,210.391 320.5,211C 329.961,214.967 339.294,219.3 348.5,224C 348.167,224.333 347.833,224.667 347.5,225C 351.413,227.125 355.413,228.958 359.5,230.5C 358.462,234.118 357.295,237.785 356,241.5C 345.542,259.314 334.209,276.647 322,293.5C 313.183,302.983 304.017,312.15 294.5,321C 288.722,324.807 283.056,328.64 277.5,332.5C 271.806,333.849 266.473,336.016 261.5,339C 252.165,340.726 242.832,342.393 233.5,344C 228.232,345.068 223.232,344.401 218.5,342C 206.222,341.265 193.722,338.432 181,333.5C 179.558,332.788 178.725,331.621 178.5,330C 187.934,294.491 205.267,263.158 230.5,236C 229.5,235.333 228.5,235.333 227.5,236C 222.181,239.311 216.848,242.644 211.5,246C 209.633,246.711 208.133,246.211 207,244.5C 205.802,234.186 204.802,223.852 204,213.5C 203.478,222.958 202.478,232.291 201,241.5C 197.543,251.082 195.543,261.082 195,271.5C 194.667,272.5 194.333,273.5 194,274.5C 193.667,274.167 193.333,273.833 193,273.5C 192.158,278.533 191.158,283.533 190,288.5C 184.585,301.58 179.918,314.914 176,328.5C 170.891,329.307 165.724,329.14 160.5,328C 152.906,324.71 144.906,320.71 136.5,316C 112.446,299.533 98.6129,277.699 95,250.5C 94.2633,235.144 94.5966,219.811 96,204.5C 96.9147,203.672 97.5814,202.672 98,201.5C 105.689,166.644 119.189,133.977 138.5,103.5C 139.328,102.585 140.328,101.919 141.5,101.5C 145.588,103.319 150.255,105.485 155.5,108C 155.167,108.333 154.833,108.667 154.5,109C 158.688,110.93 162.355,113.596 165.5,117C 166.448,117.483 167.448,117.649 168.5,117.5C 171.714,122.224 175.547,126.558 180,130.5C 184.456,135.937 188.456,141.604 192,147.5C 194.878,154.959 197.878,162.292 201,169.5C 202.714,176.306 203.714,183.306 204,190.5C 204.88,179.489 205.88,168.489 207,157.5C 210.15,147.202 213.984,137.202 218.5,127.5 Z"/></g>
<g><path style="opacity:0.93" fill="#e6c04b" d="M 1671.5,194.5 C 1673.75,202.9 1674.92,211.567 1675,220.5C 1675.33,220.167 1675.67,219.833 1676,219.5C 1676.67,229.167 1676.67,238.833 1676,248.5C 1675.18,254.18 1673.68,259.68 1671.5,265C 1671.64,266.226 1671.98,267.393 1672.5,268.5C 1672.06,269.506 1671.4,269.506 1670.5,268.5C 1669.27,273.265 1667.44,277.265 1665,280.5C 1664.33,282.5 1663.67,284.5 1663,286.5C 1654.43,298.405 1644.6,308.238 1633.5,316C 1631.04,317.562 1628.38,318.562 1625.5,319C 1625.83,319.333 1626.17,319.667 1626.5,320C 1621,322.534 1616,324.534 1611.5,326C 1610.83,326.667 1610.17,327.333 1609.5,328C 1604.52,328.748 1599.52,329.248 1594.5,329.5C 1594.12,326.238 1592.79,323.404 1590.5,321C 1590.64,320.228 1590.98,319.561 1591.5,319C 1589.14,313.92 1586.97,308.753 1585,303.5C 1584.67,301.5 1584.33,299.5 1584,297.5C 1583.67,297.833 1583.33,298.167 1583,298.5C 1583.01,295.349 1582.01,292.682 1580,290.5C 1579.55,282.755 1577.71,275.421 1574.5,268.5C 1572.41,255.392 1569.91,242.392 1567,229.5C 1566.67,222.5 1566.33,215.5 1566,208.5C 1565.67,217.167 1565.33,225.833 1565,234.5C 1564.67,234.167 1564.33,233.833 1564,233.5C 1563.86,237.619 1563.19,241.619 1562,245.5C 1561.28,246.059 1560.44,246.392 1559.5,246.5C 1554.16,243.163 1548.82,239.83 1543.5,236.5C 1542.23,235.572 1540.9,235.405 1539.5,236C 1542.83,239.413 1546.17,242.746 1549.5,246C 1567.45,269.443 1580.95,295.61 1590,324.5C 1590.67,327.167 1590.67,329.833 1590,332.5C 1584.47,334.674 1578.97,336.841 1573.5,339C 1566.22,340.402 1558.89,341.402 1551.5,342C 1549.91,342.862 1548.25,343.529 1546.5,344C 1536.06,343.936 1525.73,342.936 1515.5,341C 1515.83,340.667 1516.17,340.333 1516.5,340C 1513.83,339.667 1511.17,339.333 1508.5,339C 1503.53,336.016 1498.19,333.849 1492.5,332.5C 1483.64,326.986 1475.3,320.652 1467.5,313.5C 1455.49,301.816 1444.49,289.149 1434.5,275.5C 1434.71,274.914 1435.04,274.414 1435.5,274C 1434.02,273.02 1432.69,271.853 1431.5,270.5C 1424.64,259.208 1417.97,247.874 1411.5,236.5C 1410.53,234.604 1410.2,232.604 1410.5,230.5C 1417.44,227.469 1424.1,223.969 1430.5,220C 1430.17,219.667 1429.83,219.333 1429.5,219C 1436.43,216.826 1443.09,214.159 1449.5,211C 1458.26,210.384 1466.92,209.217 1475.5,207.5C 1484.08,209.217 1492.74,210.384 1501.5,211C 1503.53,213.315 1505.87,214.148 1508.5,213.5C 1484.36,195.148 1464.19,172.482 1448,145.5C 1443.29,135.682 1438.79,125.849 1434.5,116C 1435.57,114.841 1435.23,114.008 1433.5,113.5C 1431.57,109.448 1430.4,105.115 1430,100.5C 1429.23,97.5203 1427.9,94.8537 1426,92.5C 1424.28,83.97 1422.12,75.6367 1419.5,67.5C 1417.48,54.492 1415.48,41.492 1413.5,28.5C 1419.54,28.1707 1425.54,28.5041 1431.5,29.5C 1432.17,30.1667 1432.83,30.8333 1433.5,31.5C 1479.31,45.2094 1515.31,70.8761 1541.5,108.5C 1543.27,113.352 1545.77,117.686 1549,121.5C 1556.22,137.284 1561.55,153.617 1565,170.5C 1565.33,178.833 1565.67,187.167 1566,195.5C 1566.7,174.904 1572.37,156.237 1583,139.5C 1594.87,122.967 1610.04,110.301 1628.5,101.5C 1629.67,101.919 1630.67,102.585 1631.5,103.5C 1641.02,119.692 1649.86,136.692 1658,154.5C 1658.33,156.167 1658.67,157.833 1659,159.5C 1659.33,159.167 1659.67,158.833 1660,158.5C 1662.25,164.604 1663.92,170.937 1665,177.5C 1666.38,178.551 1667.38,179.884 1668,181.5C 1668.44,186.283 1669.61,190.617 1671.5,194.5 Z"/></g>
<g><path style="opacity:0.004" fill="#e6c04b" d="M 317.5,37.5 C 316.761,37.631 316.094,37.4643 315.5,37C 316.437,36.3083 317.103,36.475 317.5,37.5 Z"/></g>
<g><path style="opacity:0.959" fill="#e6c04b" d="M 926.5,114.5 C 935.73,127.201 945.397,140.201 955.5,153.5C 959.074,157.009 962.408,160.676 965.5,164.5C 974.939,174.109 984.272,183.942 993.5,194C 994.448,194.483 995.448,194.649 996.5,194.5C 996.351,195.552 996.517,196.552 997,197.5C 1051.04,246.275 1112.88,280.942 1182.5,301.5C 1190.87,303.744 1199.2,305.744 1207.5,307.5C 1215.77,309.424 1224.1,311.257 1232.5,313C 1249.66,315.106 1266.66,317.44 1283.5,320C 1296.83,320.167 1310.17,320.333 1323.5,320.5C 1344.23,320.299 1364.9,319.466 1385.5,318C 1386.74,366.77 1386.58,415.603 1385,464.5C 1384.67,459.5 1384.33,454.5 1384,449.5C 1383.78,475.208 1382.78,500.875 1381,526.5C 1378.82,552.854 1376.48,579.188 1374,605.5C 1373.67,604.833 1373.33,604.167 1373,603.5C 1372.08,614.507 1371.08,625.507 1370,636.5C 1366.41,660.522 1362.74,684.522 1359,708.5C 1354.22,726.612 1350.55,744.945 1348,763.5C 1347.67,763.167 1347.33,762.833 1347,762.5C 1344.59,768.928 1343.26,775.595 1343,782.5C 1338.34,796.166 1334.67,810.166 1332,824.5C 1330.62,825.551 1329.62,826.884 1329,828.5C 1324.78,844.506 1319.44,860.506 1313,876.5C 1312.01,879.424 1311.35,882.424 1311,885.5C 1310.67,885.167 1310.33,884.833 1310,884.5C 1306.99,894.336 1302.49,904.17 1296.5,914C 1297.83,915.84 1297.67,916.34 1296,915.5C 1289.39,929.815 1281.72,942.815 1273,954.5C 1254.91,981.094 1234.41,1005.76 1211.5,1028.5C 1210.68,1029.39 1209.68,1029.72 1208.5,1029.5C 1208.32,1031.61 1207.32,1033.27 1205.5,1034.5C 1176.19,1060.95 1145.19,1085.45 1112.5,1108C 1093.49,1119.68 1074.49,1131.35 1055.5,1143C 1036.59,1153.56 1016.25,1163.72 994.5,1173.5C 972.348,1183.61 949.348,1193.77 925.5,1204C 912.472,1208.08 898.972,1212.58 885,1217.5C 878.672,1216.43 872.839,1214.27 867.5,1211C 852.748,1207.4 838.748,1202.06 825.5,1195C 745.859,1163.87 670.525,1120.71 599.5,1065.5C 573.936,1043.95 549.603,1020.28 526.5,994.5C 509.347,973.44 493.681,951.273 479.5,928C 479.833,927.667 480.167,927.333 480.5,927C 479.333,925.833 478.167,924.667 477,923.5C 472.078,912.404 466.912,901.404 461.5,890.5C 456.424,875.439 451.091,861.105 445.5,847.5C 446.557,845.234 446.057,843.234 444,841.5C 440.788,832.004 438.121,822.338 436,812.5C 435.667,812.833 435.333,813.167 435,813.5C 428.758,791.579 423.758,769.246 420,746.5C 419.465,748.271 418.631,748.604 417.5,747.5C 419.055,742.939 418.555,738.606 416,734.5C 415.399,728.16 414.733,721.826 414,715.5C 413,714.167 412,712.833 411,711.5C 408.192,688.561 405.192,665.561 402,642.5C 401.085,641.672 400.419,640.672 400,639.5C 398.907,625.627 397.407,611.793 395.5,598C 395.58,596.106 395.913,594.273 396.5,592.5C 394.889,589.78 394.056,586.78 394,583.5C 392.306,569.271 391.306,554.938 391,540.5C 389.768,537.7 389.101,534.7 389,531.5C 387.221,510.325 386.221,488.992 386,467.5C 385.667,467.833 385.333,468.167 385,468.5C 383.74,418.175 383.24,367.841 383.5,317.5C 435.864,322.768 487.197,321.268 537.5,313C 545.631,311.319 553.631,309.486 561.5,307.5C 566.971,305.768 572.971,304.602 579.5,304C 591.539,300.058 603.539,295.891 615.5,291.5C 626.261,288.398 636.261,284.898 645.5,281C 645.167,280.667 644.833,280.333 644.5,280C 648.61,277.992 652.943,276.492 657.5,275.5C 668.064,269.719 678.73,264.219 689.5,259C 704.329,249.166 718.662,239.666 732.5,230.5C 757.127,212.117 779.794,191.783 800.5,169.5C 833.374,133.257 860.374,92.9235 881.5,48.5C 883.833,48.5 886.167,48.5 888.5,48.5C 888.215,50.288 888.548,51.9547 889.5,53.5C 894.438,61.4869 898.938,69.8202 903,78.5C 911.056,90.3827 918.89,102.383 926.5,114.5 Z M 1240.5,707.5 C 1238.96,718.675 1236.46,729.675 1233,740.5C 1232.72,746.376 1231.72,752.043 1230,757.5C 1229.67,756.833 1229.33,756.167 1229,755.5C 1227.33,764.5 1225.67,773.5 1224,782.5C 1221.55,787.527 1219.88,792.861 1219,798.5C 1218.67,798.167 1218.33,797.833 1218,797.5C 1215.8,803.941 1214.13,810.608 1213,817.5C 1210.14,820.74 1208.64,824.573 1208.5,829C 1199.88,853.135 1188.54,875.301 1174.5,895.5C 1163.15,912.022 1150.15,927.188 1135.5,941C 1135.83,941.333 1136.17,941.667 1136.5,942C 1123.27,953.405 1110.27,964.905 1097.5,976.5C 1069.83,997.311 1041.17,1016.81 1011.5,1035C 1010.21,1035.49 1008.87,1035.66 1007.5,1035.5C 1007.61,1036.12 1007.94,1036.62 1008.5,1037C 1004.14,1037.33 1000.64,1039.17 998,1042.5C 967.974,1058.28 937.474,1073.11 906.5,1087C 903.529,1087.79 900.529,1088.46 897.5,1089C 892.271,1093.19 886.271,1094.52 879.5,1093C 816.342,1067.53 757.009,1035.69 701.5,997.5C 659.33,968.47 623.496,934.137 594,894.5C 583.299,878.052 574.299,861.385 567,844.5C 566.685,839.836 565.018,835.836 562,832.5C 558.893,820.242 555.06,808.242 550.5,796.5C 550,793.5 549.5,790.5 549,787.5C 548.385,785.884 547.385,784.551 546,783.5C 544.879,775.293 543.212,767.293 541,759.5C 540.667,759.833 540.333,760.167 540,760.5C 537.985,749.107 535.652,737.774 533,726.5C 532.439,722.905 531.272,719.572 529.5,716.5C 529.701,714.352 530.034,712.186 530.5,710C 530.389,708.278 529.889,708.112 529,709.5C 527.738,701.489 526.405,693.489 525,685.5C 524.667,685.833 524.333,686.167 524,686.5C 523,678.5 522,670.5 521,662.5C 519.217,656.886 517.884,651.219 517,645.5C 513.707,613.011 510.04,580.678 506,548.5C 505.651,536.814 504.985,525.148 504,513.5C 503.667,513.833 503.333,514.167 503,514.5C 501.491,487.999 499.991,461.499 498.5,435C 520.905,433.191 543.239,430.191 565.5,426C 579.753,422.987 593.753,419.654 607.5,416C 608.5,415.667 609.5,415.333 610.5,415C 610.167,414.667 609.833,414.333 609.5,414C 615.961,412.032 622.628,410.698 629.5,410C 630.167,409.333 630.833,408.667 631.5,408C 646.417,403.525 661.083,398.692 675.5,393.5C 677.059,391.869 679.059,391.036 681.5,391C 681.167,390.667 680.833,390.333 680.5,390C 684.471,388.725 688.471,387.391 692.5,386C 763.98,354.27 827.313,308.77 882.5,249.5C 883.768,248.572 885.101,248.405 886.5,249C 958.387,325.947 1042.39,378.947 1138.5,408C 1138.96,408.414 1139.29,408.914 1139.5,409.5C 1146.66,410.58 1153.66,412.08 1160.5,414C 1160.17,414.333 1159.83,414.667 1159.5,415C 1160.5,415.333 1161.5,415.667 1162.5,416C 1176.33,419.655 1190.33,422.989 1204.5,426C 1226.77,430.193 1249.1,433.193 1271.5,435C 1270.74,437.069 1270.24,439.236 1270,441.5C 1269.33,464.848 1268.33,488.181 1267,511.5C 1266.49,513.878 1265.82,516.212 1265,518.5C 1264.77,533.999 1263.77,549.333 1262,564.5C 1261.71,566.044 1261.04,567.377 1260,568.5C 1259.55,580.18 1258.89,591.846 1258,603.5C 1255.13,613.567 1253.63,623.9 1253.5,634.5C 1250.02,650.416 1247.52,666.416 1246,682.5C 1245.09,683.328 1244.42,684.328 1244,685.5C 1243.39,692.506 1242.73,699.506 1242,706.5C 1241.62,707.056 1241.12,707.389 1240.5,707.5 Z"/></g>
<g><path style="opacity:0.004" fill="#e6c04b" d="M 926.5,113.5 C 927.833,114.167 927.833,114.167 926.5,113.5 Z"/></g>
<g><path style="opacity:0.004" fill="#e6c04b" d="M 1433.5,113.5 C 1433.63,114.239 1433.46,114.906 1433,115.5C 1432.31,114.563 1432.47,113.897 1433.5,113.5 Z"/></g>
<g><path style="opacity:0.004" fill="#e6c04b" d="M 218.5,127.5 C 217.833,126.167 217.833,126.167 218.5,127.5 Z"/></g>
<g><path style="opacity:0.004" fill="#e6c04b" d="M 955.5,152.5 C 956.833,153.167 956.833,153.167 955.5,152.5 Z"/></g>
<g><path style="opacity:0.004" fill="#e6c04b" d="M 198.5,160.5 C 199.833,161.167 199.833,161.167 198.5,160.5 Z"/></g>
<g><path style="opacity:0.004" fill="#e6c04b" d="M 965.5,163.5 C 966.833,164.167 966.833,164.167 965.5,163.5 Z"/></g>
<g><path style="opacity:0.004" fill="#e6c04b" d="M 800.5,169.5 C 799.833,168.167 799.833,168.167 800.5,169.5 Z"/></g>
<g><path style="opacity:0.004" fill="#e6c04b" d="M 1671.5,194.5 C 1671.37,193.761 1671.54,193.094 1672,192.5C 1672.69,193.437 1672.53,194.103 1671.5,194.5 Z"/></g>
<g><path style="opacity:0.981" fill="#e6c04b" d="M 1987.5,208.5 C 2020.01,205.035 2050.67,210.868 2079.5,226C 2092.24,233.372 2102.91,243.038 2111.5,255C 2110.22,257.281 2108.56,259.281 2106.5,261C 2091.35,273.98 2076.35,287.147 2061.5,300.5C 2036.67,270.306 2007.67,265.139 1974.5,285C 1957.37,303.015 1951.87,324.181 1958,348.5C 1966.02,373.848 1983.36,387.181 2010,388.5C 2031.39,386.891 2048.55,377.557 2061.5,360.5C 2077.85,375.352 2094.35,390.019 2111,404.5C 2111.67,405.5 2111.67,406.5 2111,407.5C 2088.64,433.766 2060.14,448.6 2025.5,452C 1987.6,456.523 1952.93,448.19 1921.5,427C 1884.19,395.759 1869.36,355.926 1877,307.5C 1887.37,259.792 1915.87,228.625 1962.5,214C 1970.88,211.722 1979.21,209.889 1987.5,208.5 Z"/></g>
<g><path style="opacity:0.985" fill="#e6c04b" d="M 2213.5,208.5 C 2257.75,203.755 2296.42,215.922 2329.5,245C 2362.91,282.04 2372.08,324.54 2357,372.5C 2336.8,419.724 2300.97,446.224 2249.5,452C 2205.23,457.24 2166.57,445.24 2133.5,416C 2104.8,385.395 2093.97,349.228 2101,307.5C 2108.92,269.265 2130.08,241.098 2164.5,223C 2180.17,215.504 2196.51,210.67 2213.5,208.5 Z M 2230.5,272.5 C 2264.77,276.442 2282.44,295.776 2283.5,330.5C 2282.57,364.754 2265.24,384.087 2231.5,388.5C 2197.76,384.087 2180.43,364.754 2179.5,330.5C 2180.4,296.616 2197.4,277.283 2230.5,272.5 Z"/></g>
<g><path style="opacity:0.984" fill="#e6c04b" d="M 2726.5,208.5 C 2760.41,205.095 2792.41,211.262 2822.5,227C 2833.91,234.247 2843.91,243.08 2852.5,253.5C 2835.82,268.843 2818.82,283.843 2801.5,298.5C 2779.97,274.151 2753.97,267.318 2723.5,278C 2702.57,288.998 2692.24,306.498 2692.5,330.5C 2694.13,366.159 2712.63,385.492 2748,388.5C 2757.47,388.105 2766.64,386.105 2775.5,382.5C 2776.5,362.845 2776.83,343.178 2776.5,323.5C 2799.5,323.5 2822.5,323.5 2845.5,323.5C 2845.67,356.835 2845.5,390.168 2845,423.5C 2802.61,449.976 2756.78,458.476 2707.5,449C 2653.77,435.272 2622.27,401.105 2613,346.5C 2607.78,285.47 2632.95,242.637 2688.5,218C 2700.99,213.545 2713.65,210.378 2726.5,208.5 Z"/></g>
<g><path style="opacity:0.985" fill="#e6c04b" d="M 2963.5,208.5 C 3007.75,203.755 3046.42,215.922 3079.5,245C 3112.91,282.04 3122.08,324.54 3107,372.5C 3086.8,419.724 3050.97,446.224 2999.5,452C 2955.23,457.24 2916.57,445.24 2883.5,416C 2854.8,385.395 2843.97,349.228 2851,307.5C 2858.92,269.265 2880.08,241.098 2914.5,223C 2930.17,215.504 2946.51,210.67 2963.5,208.5 Z M 2980.5,272.5 C 3014.77,276.442 3032.44,295.776 3033.5,330.5C 3032.57,364.754 3015.24,384.087 2981.5,388.5C 2947.76,384.087 2930.43,364.754 2929.5,330.5C 2930.4,296.616 2947.4,277.283 2980.5,272.5 Z"/></g>
<g><path style="opacity:0.996" fill="#e6c04b" d="M 2372.5,213.5 C 2394.5,213.333 2416.5,213.5 2438.5,214C 2468.04,248.541 2497.21,283.374 2526,318.5C 2526.5,283.502 2526.67,248.502 2526.5,213.5C 2552.17,213.5 2577.83,213.5 2603.5,213.5C 2603.5,291.5 2603.5,369.5 2603.5,447.5C 2581.5,447.667 2559.5,447.5 2537.5,447C 2507.96,412.459 2478.79,377.626 2450,342.5C 2449.5,377.498 2449.33,412.498 2449.5,447.5C 2423.83,447.5 2398.17,447.5 2372.5,447.5C 2372.5,369.5 2372.5,291.5 2372.5,213.5 Z"/></g>
<g><path style="opacity:0.004" fill="#e6c04b" d="M 732.5,230.5 C 731.833,229.167 731.833,229.167 732.5,230.5 Z"/></g>
<g><path style="opacity:0.004" fill="#e6c04b" d="M 198.5,255.5 C 199.833,256.167 199.833,256.167 198.5,255.5 Z"/></g>
<g><path style="opacity:0.929" fill="#e6c04b" d="M 60.5,275.5 C 64.5351,275.393 68.5351,275.726 72.5,276.5C 74.2861,276.696 75.6195,277.529 76.5,279C 81.0028,280.466 86.0028,282.466 91.5,285C 91.1667,285.333 90.8333,285.667 90.5,286C 101.696,291.177 111.03,298.01 118.5,306.5C 136.199,326.375 145.865,348.542 147.5,373C 150.106,403.524 149.773,434.024 146.5,464.5C 145.524,472.212 144.191,479.712 142.5,487C 110.491,487.891 83.9908,476.391 63,452.5C 51.6887,437.725 44.6887,421.059 42,402.5C 40.1583,383.838 40.1583,365.171 42,346.5C 44.0949,333.444 46.4282,320.444 49,307.5C 49.3333,307.833 49.6667,308.167 50,308.5C 52.3905,297.045 55.8905,286.045 60.5,275.5 Z"/></g>
<g><path style="opacity:0.927" fill="#e6c04b" d="M 1668.5,291.5 C 1678.33,285.39 1688,280.39 1697.5,276.5C 1701.48,275.558 1705.48,275.391 1709.5,276C 1710.54,277.918 1711.71,279.751 1713,281.5C 1717.3,295.358 1720.97,308.692 1724,321.5C 1724.43,331.02 1725.93,340.354 1728.5,349.5C 1733.32,380.422 1729.32,409.922 1716.5,438C 1704.27,458.769 1686.94,473.436 1664.5,482C 1657.68,483.163 1651.01,484.83 1644.5,487C 1638.83,487.667 1633.17,487.667 1627.5,487C 1626.64,486.311 1625.98,485.478 1625.5,484.5C 1625.83,481.833 1626.17,479.167 1626.5,476.5C 1625.03,473.692 1624.2,470.692 1624,467.5C 1622.25,447.745 1620.75,428.745 1619.5,410.5C 1620.58,395.231 1622.08,379.231 1624,362.5C 1624.15,359.881 1624.98,357.547 1626.5,355.5C 1626.07,354.707 1625.74,353.873 1625.5,353C 1632.85,327.639 1647.19,307.139 1668.5,291.5 Z"/></g>
<g><path style="opacity:0.004" fill="#e6c04b" d="M 615.5,291.5 C 614.833,290.167 614.833,290.167 615.5,291.5 Z"/></g>
<g><path style="opacity:0.004" fill="#e6c04b" d="M 1668.5,291.5 C 1667.83,290.167 1667.83,290.167 1668.5,291.5 Z"/></g>
<g><path style="opacity:0.004" fill="#e6c04b" d="M 561.5,307.5 C 560.761,307.631 560.094,307.464 559.5,307C 560.437,306.308 561.103,306.475 561.5,307.5 Z"/></g>
<g><path style="opacity:0.004" fill="#e6c04b" d="M 1207.5,306.5 C 1208.83,307.167 1208.83,307.167 1207.5,306.5 Z"/></g>
<g><path style="opacity:0.004" fill="#e6c04b" d="M 1467.5,313.5 C 1466.83,314.167 1466.83,314.167 1467.5,313.5 Z"/></g>
<g><path style="opacity:0.004" fill="#e6c04b" d="M 407.5,317.5 C 408.833,318.167 408.833,318.167 407.5,317.5 Z"/></g>
<g><path style="opacity:0.004" fill="#e6c04b" d="M 482.5,318.5 C 482.897,317.475 483.563,317.308 484.5,318C 483.906,318.464 483.239,318.631 482.5,318.5 Z"/></g>
<g><path style="opacity:0.004" fill="#e6c04b" d="M 1285.5,317.5 C 1286.83,318.167 1286.83,318.167 1285.5,317.5 Z"/></g>
<g><path style="opacity:0.004" fill="#e6c04b" d="M 1361.5,317.5 C 1362.83,318.167 1362.83,318.167 1361.5,317.5 Z"/></g>
<g><path style="opacity:0.927" fill="#e6c04b" d="M 205.5,357.5 C 219.859,348.708 235.026,344.375 251,344.5C 258.164,345.044 265.33,345.544 272.5,346C 272.167,346.333 271.833,346.667 271.5,347C 276.588,347.575 281.588,348.575 286.5,350C 290.91,352.287 295.577,353.954 300.5,355C 302.141,359.763 301.641,364.263 299,368.5C 297.257,374.064 295.924,379.731 295,385.5C 293.615,386.551 292.615,387.884 292,389.5C 284.13,412.939 273.13,433.939 259,452.5C 244.701,468.786 227.201,480.286 206.5,487C 197.593,488.441 188.76,489.941 180,491.5C 169.758,490.612 159.258,489.778 148.5,489C 147.333,488.5 146.5,487.667 146,486.5C 145.333,483.5 145.333,480.5 146,477.5C 147.961,468.259 149.628,458.926 151,449.5C 153.879,441.026 156.046,432.36 157.5,423.5C 158.478,423.023 159.311,422.357 160,421.5C 162.51,410.817 167.01,400.983 173.5,392C 173.167,391.667 172.833,391.333 172.5,391C 178.773,382.097 185.773,373.764 193.5,366C 194.974,364.684 196.641,363.684 198.5,363C 198.167,362.667 197.833,362.333 197.5,362C 200.085,360.294 202.751,358.794 205.5,357.5 Z"/></g>
<g><path style="opacity:0.927" fill="#e6c04b" d="M 1608.5,490.5 C 1600.93,490.325 1593.43,490.658 1586,491.5C 1584.28,491.389 1584.11,490.889 1585.5,490C 1578.09,489.56 1570.75,488.56 1563.5,487C 1554.07,484.204 1545.07,480.37 1536.5,475.5C 1531.61,471.625 1526.61,467.792 1521.5,464C 1514.11,455.946 1507.11,447.613 1500.5,439C 1500.83,438.667 1501.17,438.333 1501.5,438C 1488.21,418.61 1478.71,397.443 1473,374.5C 1472.67,374.833 1472.33,375.167 1472,375.5C 1470.21,370.232 1468.71,364.732 1467.5,359C 1467.86,357.775 1468.36,356.609 1469,355.5C 1473.89,354.431 1478.39,352.598 1482.5,350C 1500.05,344.913 1518.72,343.58 1538.5,346C 1538.17,346.333 1537.83,346.667 1537.5,347C 1541.95,347.528 1546.28,348.528 1550.5,350C 1559.7,354.543 1568.36,359.877 1576.5,366C 1583.93,373.701 1590.76,381.867 1597,390.5C 1597.44,394.736 1599.27,398.236 1602.5,401C 1613.94,426.821 1621.28,453.987 1624.5,482.5C 1624.51,484.593 1623.85,486.426 1622.5,488C 1617.76,489.051 1613.09,489.885 1608.5,490.5 Z"/></g>
<g><path style="opacity:0.004" fill="#e6c04b" d="M 205.5,357.5 C 204.833,356.167 204.833,356.167 205.5,357.5 Z"/></g>
<g><path style="opacity:0.991" fill="#e6c04b" d="M 891.5,407.5 C 949.77,406.817 1004.1,420.984 1054.5,450C 1079.5,466.16 1101.16,485.994 1119.5,509.5C 1083.79,542.042 1047.63,574.042 1011,605.5C 997.656,589.15 982.156,575.317 964.5,564C 920.952,540.654 877.618,540.987 834.5,565C 804.723,586.025 787.89,614.859 784,651.5C 779.475,686.028 785.808,718.362 803,748.5C 826.906,781.789 859.573,798.455 901,798.5C 933.083,797.53 961.25,786.697 985.5,766C 994.735,757.435 1003.24,748.268 1011,738.5C 1047.34,770.677 1083.51,803.01 1119.5,835.5C 1083.79,880.984 1037.79,911.15 981.5,926C 939.379,936.397 896.712,939.397 853.5,935C 779.791,927.231 718.291,896.064 669,841.5C 621.855,781.688 602.855,713.688 612,637.5C 626.407,539.448 678.907,470.614 769.5,431C 808.847,415.63 849.514,407.796 891.5,407.5 Z"/></g>
<g><path style="opacity:0.935" fill="#e6c04b" d="M 117.5,516.5 C 121.911,525.981 125.745,535.648 129,545.5C 131.161,552.941 132.494,560.608 133,568.5C 133.915,569.328 134.581,570.328 135,571.5C 136.363,581.797 138.03,592.13 140,602.5C 141.859,616.719 142.692,631.053 142.5,645.5C 134.472,647.185 126.306,648.185 118,648.5C 103.635,647.535 90.4687,644.702 78.5,640C 72.9572,637.015 66.9572,633.515 60.5,629.5C 40.9826,612.526 28.4826,591.526 23,566.5C 22.6667,566.833 22.3333,567.167 22,567.5C 21.2908,561.038 19.9575,554.705 18,548.5C 17.3333,518.167 17.3333,487.833 18,457.5C 22.0728,452.845 26.5728,452.345 31.5,456C 37.8909,456.647 44.2243,457.647 50.5,459C 55.8269,461.795 61.4936,463.795 67.5,465C 79.3199,472.16 89.9866,480.16 99.5,489C 99.1667,489.333 98.8333,489.667 98.5,490C 102,492.833 105.167,496 108,499.5C 109,501.5 110,503.5 111,505.5C 111.333,505.167 111.667,504.833 112,504.5C 112.92,508.692 114.753,512.692 117.5,516.5 Z"/></g>
<g><path style="opacity:0.926" fill="#e6c04b" d="M 1637.5,559.5 C 1638.12,559.389 1638.62,559.056 1639,558.5C 1641.69,540.366 1647.86,523.533 1657.5,508C 1665.93,492.578 1677.59,480.578 1692.5,472C 1706.01,462.939 1721.01,457.606 1737.5,456C 1742.21,452.507 1746.71,452.674 1751,456.5C 1750.99,463.08 1751.99,469.413 1754,475.5C 1754.67,494.167 1754.67,512.833 1754,531.5C 1751.96,537.922 1750.96,544.588 1751,551.5C 1748.74,560.382 1746.74,569.382 1745,578.5C 1742.8,580.03 1741.97,581.864 1742.5,584C 1736.38,596.411 1729.38,608.244 1721.5,619.5C 1720.45,619.351 1719.45,619.517 1718.5,620C 1717.62,621.586 1716.62,623.086 1715.5,624.5C 1711.57,626.856 1708.07,629.522 1705,632.5C 1699.53,634.972 1694.37,637.805 1689.5,641C 1677.99,644.838 1665.49,647.338 1652,648.5C 1643.99,648.4 1636.16,647.234 1628.5,645C 1627.35,636.245 1627.18,627.412 1628,618.5C 1628.33,618.833 1628.67,619.167 1629,619.5C 1629.33,612.833 1629.67,606.167 1630,599.5C 1632.98,584.994 1635.48,571.661 1637.5,559.5 Z"/></g>
<g><path style="opacity:0.004" fill="#e6c04b" d="M 220.5,484.5 C 220.897,483.475 221.563,483.308 222.5,484C 221.906,484.464 221.239,484.631 220.5,484.5 Z"/></g>
<g><path style="opacity:0.004" fill="#e6c04b" d="M 224.5,484.5 C 223.833,483.167 223.833,483.167 224.5,484.5 Z"/></g>
<g><path style="opacity:0.926" fill="#e6c04b" d="M 224.5,484.5 C 240.551,482.989 256.551,483.489 272.5,486C 273.126,486.75 273.626,487.584 274,488.5C 272.569,506.018 270.235,522.684 267,538.5C 263.783,551.048 260.117,563.381 256,575.5C 243.693,604.141 223.193,624.308 194.5,636C 185.832,637.416 178.165,639.75 171.5,643C 163.352,643.014 157.352,643.847 153.5,645.5C 151.167,645.167 148.833,644.833 146.5,644.5C 145.982,641.684 145.149,639.018 144,636.5C 142.882,614.383 143.548,592.383 146,570.5C 146.419,569.328 147.085,568.328 148,567.5C 151.442,542.434 162.275,521.267 180.5,504C 188.219,498.005 196.553,493.338 205.5,490C 205.167,489.667 204.833,489.333 204.5,489C 211.229,487.158 217.895,485.658 224.5,484.5 Z"/></g>
<g><path style="opacity:0.004" fill="#e6c04b" d="M 263.5,484.5 C 264.251,483.427 265.251,483.26 266.5,484C 265.552,484.483 264.552,484.649 263.5,484.5 Z"/></g>
<g><path style="opacity:0.004" fill="#e6c04b" d="M 1503.5,484.5 C 1504.25,483.427 1505.25,483.26 1506.5,484C 1505.55,484.483 1504.55,484.649 1503.5,484.5 Z"/></g>
<g><path style="opacity:0.924" fill="#e6c04b" d="M 1545.5,484.5 C 1581.77,490.899 1605.44,512.065 1616.5,548C 1619.5,555.959 1622,564.125 1624,572.5C 1626.63,593.664 1627.13,614.998 1625.5,636.5C 1624.74,639.157 1624.07,641.823 1623.5,644.5C 1618.87,645.662 1614.2,645.828 1609.5,645C 1610.5,644.667 1611.5,644.333 1612.5,644C 1578.85,641.844 1551.19,628.011 1529.5,602.5C 1524.02,593.861 1518.86,585.194 1514,576.5C 1509.3,560.873 1504.97,545.207 1501,529.5C 1500.93,522.935 1499.93,516.601 1498,510.5C 1497.39,502.486 1497.06,494.486 1497,486.5C 1513.03,483.479 1529.19,482.812 1545.5,484.5 Z"/></g>
<g><path style="opacity:0.004" fill="#e6c04b" d="M 1545.5,483.5 C 1546.83,484.167 1546.83,484.167 1545.5,483.5 Z"/></g>
<g><path style="opacity:0.004" fill="#e6c04b" d="M 1547.5,484.5 C 1547.9,483.475 1548.56,483.308 1549.5,484C 1548.91,484.464 1548.24,484.631 1547.5,484.5 Z"/></g>
<g><path style="opacity:0.004" fill="#e6c04b" d="M 1608.5,490.5 C 1609.83,491.167 1609.83,491.167 1608.5,490.5 Z"/></g>
<g><path style="opacity:0.004" fill="#e6c04b" d="M 117.5,515.5 C 118.833,516.167 118.833,516.167 117.5,515.5 Z"/></g>
<g><path style="opacity:0.004" fill="#e6c04b" d="M 1637.5,559.5 C 1636.47,559.103 1636.31,558.437 1637,557.5C 1637.46,558.094 1637.63,558.761 1637.5,559.5 Z"/></g>
<g><path style="opacity:0.989" fill="#e6c04b" d="M 2484.5,587.5 C 2510.18,585.909 2535.51,588.076 2560.5,594C 2568.37,596.271 2576.04,599.104 2583.5,602.5C 2584.49,599.232 2584.82,595.898 2584.5,592.5C 2656.83,592.5 2729.17,592.5 2801.5,592.5C 2801.5,613.167 2801.5,633.833 2801.5,654.5C 2778.5,654.5 2755.5,654.5 2732.5,654.5C 2732.5,711.833 2732.5,769.167 2732.5,826.5C 2706.17,826.5 2679.83,826.5 2653.5,826.5C 2653.5,769.167 2653.5,711.833 2653.5,654.5C 2630.5,654.5 2607.5,654.5 2584.5,654.5C 2584.67,647.159 2584.5,639.826 2584,632.5C 2579.26,643.576 2574.42,654.576 2569.5,665.5C 2543.82,651.411 2516.48,646.244 2487.5,650C 2478.39,651.419 2474.23,656.586 2475,665.5C 2477.24,668.402 2480.07,670.569 2483.5,672C 2503.06,677.046 2522.73,681.713 2542.5,686C 2557.86,690 2571.86,696.666 2584.5,706C 2600.92,722.464 2607.08,742.297 2603,765.5C 2595.67,793.838 2578.17,813.004 2550.5,823C 2538.84,827.198 2526.84,829.865 2514.5,831C 2478.45,834.088 2443.45,829.421 2409.5,817C 2402.86,814.683 2396.86,811.349 2391.5,807C 2399.77,787.625 2408.44,768.458 2417.5,749.5C 2447.41,766.449 2479.41,772.949 2513.5,769C 2521.79,767.403 2525.29,762.57 2524,754.5C 2521.62,751.727 2518.78,749.561 2515.5,748C 2495.3,742.493 2474.97,737.493 2454.5,733C 2436.47,728.41 2420.97,719.576 2408,706.5C 2402.47,699.767 2398.8,692.101 2397,683.5C 2395.71,715.44 2381.21,739.107 2353.5,754.5C 2369.25,778.34 2385.25,802.006 2401.5,825.5C 2372.83,826.833 2344.17,826.833 2315.5,825.5C 2302.62,806.247 2289.62,787.08 2276.5,768C 2269.51,767.5 2262.51,767.334 2255.5,767.5C 2255.5,787.167 2255.5,806.833 2255.5,826.5C 2229.17,826.5 2202.83,826.5 2176.5,826.5C 2176.5,748.167 2176.5,669.833 2176.5,591.5C 2220.51,591.112 2264.51,591.612 2308.5,593C 2335.77,595.39 2358.94,606.224 2378,625.5C 2386.34,636.188 2392.01,648.188 2395,661.5C 2399.09,630.067 2415.93,608.567 2445.5,597C 2458.29,592.385 2471.29,589.219 2484.5,587.5 Z M 2255.5,653.5 C 2265.51,653.334 2275.51,653.5 2285.5,654C 2307.98,654.804 2317.81,666.304 2315,688.5C 2311.3,699.783 2303.46,705.95 2291.5,707C 2279.5,707.5 2267.5,707.667 2255.5,707.5C 2255.5,689.5 2255.5,671.5 2255.5,653.5 Z"/></g>
<g><path style="opacity:0.995" fill="#e6c04b" d="M 1884.5,592.5 C 1948.17,592.5 2011.83,592.5 2075.5,592.5C 2075.5,612.5 2075.5,632.5 2075.5,652.5C 2038.17,652.5 2000.83,652.5 1963.5,652.5C 1963.5,665.5 1963.5,678.5 1963.5,691.5C 1996.17,691.5 2028.83,691.5 2061.5,691.5C 2061.5,711.5 2061.5,731.5 2061.5,751.5C 2028.83,751.5 1996.17,751.5 1963.5,751.5C 1963.5,776.5 1963.5,801.5 1963.5,826.5C 1937.17,826.5 1910.83,826.5 1884.5,826.5C 1884.5,748.5 1884.5,670.5 1884.5,592.5 Z"/></g>
<g><path style="opacity:1" fill="#e6c04b" d="M 2079.5,592.5 C 2105.83,592.5 2132.17,592.5 2158.5,592.5C 2158.5,670.5 2158.5,748.5 2158.5,826.5C 2132.17,826.5 2105.83,826.5 2079.5,826.5C 2079.5,748.5 2079.5,670.5 2079.5,592.5 Z"/></g>
<g><path style="opacity:0.922" fill="#e6c04b" d="M 255.5,617.5 C 259.846,617.334 264.179,617.501 268.5,618C 269.025,618.692 269.692,619.192 270.5,619.5C 271.33,625.472 271.83,631.472 272,637.5C 272.14,640.043 272.806,642.377 274,644.5C 274.833,658.512 274.666,672.512 273.5,686.5C 271.959,693.06 271.126,699.726 271,706.5C 270.667,706.167 270.333,705.833 270,705.5C 269.477,710.979 268.477,716.312 267,721.5C 264.463,726.584 262.463,731.917 261,737.5C 245.387,765.079 222.22,783.579 191.5,793C 187.245,796.622 182.245,797.956 176.5,797C 175.458,795.082 174.292,793.249 173,791.5C 171.946,783.157 169.946,775.157 167,767.5C 165.146,752.615 163.313,737.781 161.5,723C 162.582,712.494 163.915,701.994 165.5,691.5C 172.578,661.535 190.411,639.869 219,626.5C 219.414,626.957 219.914,627.291 220.5,627.5C 221.354,626.478 222.354,625.645 223.5,625C 229.229,623.699 234.896,622.032 240.5,620C 245.167,619.667 249.833,619.333 254.5,619C 255.056,618.617 255.389,618.117 255.5,617.5 Z"/></g>
<g><path style="opacity:0.925" fill="#e6c04b" d="M 1501.5,617.5 C 1522.43,617.936 1542.1,622.603 1560.5,631.5C 1562.76,633.73 1565.43,635.23 1568.5,636C 1579.8,645.301 1589.3,656.134 1597,668.5C 1597.33,672.852 1598.99,676.519 1602,679.5C 1605.02,693.858 1606.85,708.358 1607.5,723C 1606.52,740.246 1604.69,757.413 1602,774.5C 1601,775.833 1600,777.167 1599,778.5C 1598.81,785.288 1596.98,791.455 1593.5,797C 1587.75,797.956 1582.75,796.622 1578.5,793C 1575.21,792.118 1571.88,791.452 1568.5,791C 1567,789.129 1565,788.129 1562.5,788C 1562.83,787.667 1563.17,787.333 1563.5,787C 1526.38,770.747 1504.55,741.913 1498,700.5C 1495.79,673.794 1496.12,647.127 1499,620.5C 1500.04,619.627 1500.88,618.627 1501.5,617.5 Z"/></g>
<g><path style="opacity:0.931" fill="#e6c04b" d="M 92.5,649.5 C 99.7433,654.484 106.743,659.984 113.5,666C 113.167,666.333 112.833,666.667 112.5,667C 116.178,670.203 119.511,673.703 122.5,677.5C 130.407,688.565 137.24,700.232 143,712.5C 143.333,712.167 143.667,711.833 144,711.5C 149.211,724.696 154.211,738.03 159,751.5C 159.333,751.167 159.667,750.833 160,750.5C 164.157,766.154 168.324,781.821 172.5,797.5C 167.017,801.672 160.683,804.172 153.5,805C 152.672,805.915 151.672,806.581 150.5,807C 115.316,813.391 85.483,803.891 61,778.5C 48.8672,764.232 39.8672,748.232 34,730.5C 33.3457,731.696 32.8457,731.696 32.5,730.5C 34.0454,727.803 33.3787,725.803 30.5,724.5C 25.7659,707.616 21.5993,691.283 18,675.5C 17.5001,662.504 17.3334,649.504 17.5,636.5C 29.8584,635.001 42.1917,635.168 54.5,637C 61.9301,639.409 69.5968,641.075 77.5,642C 82.2055,645.244 87.2055,647.744 92.5,649.5 Z"/></g>
<g><path style="opacity:0.929" fill="#e6c04b" d="M 1721.5,635.5 C 1729.84,635.334 1738.17,635.5 1746.5,636C 1748.88,636.511 1751.21,637.178 1753.5,638C 1754.64,644.752 1754.81,651.586 1754,658.5C 1751.64,674.607 1748.64,690.607 1745,706.5C 1743.01,712.116 1741.35,717.783 1740,723.5C 1739.33,724.167 1738.67,724.833 1738,725.5C 1728.86,754.483 1712.69,777.816 1689.5,795.5C 1681.19,800.157 1672.52,803.99 1663.5,807C 1648.83,808.956 1634.17,808.956 1619.5,807C 1612.13,804.378 1604.8,801.878 1597.5,799.5C 1597.86,795.491 1598.36,791.491 1599,787.5C 1599.33,787.833 1599.67,788.167 1600,788.5C 1600.33,785.833 1600.67,783.167 1601,780.5C 1604.33,773.166 1606.67,765.499 1608,757.5C 1610.55,753.99 1611.88,749.99 1612,745.5C 1615.16,738.145 1618.49,730.145 1622,721.5C 1625.51,715.54 1628.18,709.54 1630,703.5C 1635.46,696.492 1639.96,689.325 1643.5,682C 1650.45,673.553 1657.78,665.553 1665.5,658C 1669.02,656.766 1672.02,654.766 1674.5,652C 1676.65,650.587 1678.99,649.754 1681.5,649.5C 1681.5,648.5 1681.5,647.5 1681.5,646.5C 1685.96,646.849 1689.63,645.349 1692.5,642C 1702.23,639.826 1711.9,637.659 1721.5,635.5 Z"/></g>
<g><path style="opacity:0.004" fill="#e6c04b" d="M 66.5,637.5 C 67.8333,638.167 67.8333,638.167 66.5,637.5 Z"/></g>
<g><path style="opacity:0.004" fill="#e6c04b" d="M 92.5,648.5 C 93.8333,649.167 93.8333,649.167 92.5,648.5 Z"/></g>
<g><path style="opacity:0.004" fill="#e6c04b" d="M 122.5,676.5 C 123.833,677.167 123.833,677.167 122.5,676.5 Z"/></g>
<g><path style="opacity:0.004" fill="#e6c04b" d="M 1362.5,687.5 C 1363.53,687.897 1363.69,688.563 1363,689.5C 1362.54,688.906 1362.37,688.239 1362.5,687.5 Z"/></g>
<g><path style="opacity:0.004" fill="#e6c04b" d="M 1748.5,692.5 C 1749.53,692.897 1749.69,693.563 1749,694.5C 1748.54,693.906 1748.37,693.239 1748.5,692.5 Z"/></g>
<g><path style="opacity:0.926" fill="#e6c04b" d="M 309.5,819.5 C 310.115,836.626 308.948,853.626 306,870.5C 301.016,882.393 294.516,893.393 286.5,903.5C 279.548,912.771 270.881,921.104 260.5,928.5C 255.278,932.231 249.945,935.731 244.5,939C 240.903,940.277 237.236,940.61 233.5,940C 230.985,934.702 228.318,930.202 225.5,926.5C 225.709,925.914 226.043,925.414 226.5,925C 223.246,921.519 221.412,917.352 221,912.5C 219.639,910.972 218.472,909.305 217.5,907.5C 213.504,895.568 210.004,884.235 207,873.5C 203.968,853.488 203.968,833.488 207,813.5C 207.317,811.699 207.984,811.366 209,812.5C 213.849,797.632 222.016,784.798 233.5,774C 238.279,770.103 243.279,766.436 248.5,763C 253.654,759.601 259.654,756.768 266.5,754.5C 274.341,752.002 282.341,749.668 290.5,747.5C 291.5,747.833 292.5,748.167 293.5,748.5C 297.441,762.675 301.608,776.675 306,790.5C 306.519,800.391 307.686,810.057 309.5,819.5 Z"/></g>
<g><path style="opacity:0.925" fill="#e6c04b" d="M 1476.5,747.5 C 1505.14,751.847 1529.47,765.347 1549.5,788C 1549.17,788.333 1548.83,788.667 1548.5,789C 1551.84,793.322 1555.01,797.822 1558,802.5C 1558.99,806.804 1560.65,810.804 1563,814.5C 1566.27,834.609 1566.27,853.942 1563,872.5C 1559.6,884.958 1555.93,897.291 1552,909.5C 1548.2,916.981 1544.37,924.481 1540.5,932C 1540.83,932.333 1541.17,932.667 1541.5,933C 1538.42,934.312 1536.75,936.645 1536.5,940C 1532.76,940.61 1529.1,940.277 1525.5,939C 1514.22,931.384 1503.22,923.384 1492.5,915C 1486.6,907.585 1480.43,899.752 1474,891.5C 1473.67,890.167 1473.33,888.833 1473,887.5C 1472.67,887.833 1472.33,888.167 1472,888.5C 1469.43,884.249 1467.76,879.582 1467,874.5C 1466,873.167 1465,871.833 1464,870.5C 1459.32,842.372 1459.48,815.039 1464.5,788.5C 1465.58,787.335 1466.42,786.002 1467,784.5C 1467.67,779.8 1468.5,775.134 1469.5,770.5C 1471.11,767.78 1471.94,764.78 1472,761.5C 1472.33,761.833 1472.67,762.167 1473,762.5C 1473.93,757.42 1475.1,752.42 1476.5,747.5 Z"/></g>
<g><path style="opacity:0.004" fill="#e6c04b" d="M 266.5,754.5 C 265.833,753.167 265.833,753.167 266.5,754.5 Z"/></g>
<g><path style="opacity:0.932" fill="#e6c04b" d="M 75.5,892.5 C 66.9095,876.42 59.2428,859.253 52.5,841C 53.1016,839.096 52.6016,837.263 51,835.5C 50.6667,833.167 50.3333,830.833 50,828.5C 49.6667,828.833 49.3333,829.167 49,829.5C 48.0954,825.181 47.7621,820.848 48,816.5C 57.7755,812.85 67.9422,810.684 78.5,810C 77.8333,809.667 77.1667,809.333 76.5,809C 85.8333,808.333 95.1667,808.333 104.5,809C 104.167,809.333 103.833,809.667 103.5,810C 111.253,810.74 118.92,812.073 126.5,814C 126.167,814.333 125.833,814.667 125.5,815C 128.822,816.543 132.322,817.709 136,818.5C 136.945,818.905 137.612,819.572 138,820.5C 139.84,819.167 140.34,819.334 139.5,821C 144.738,823.565 149.738,826.565 154.5,830C 185.212,858.768 209.046,892.934 226,932.5C 229.626,935.824 230.793,940.158 229.5,945.5C 203.161,963.443 174.494,968.276 143.5,960C 123.242,951.186 106.076,937.353 92,918.5C 85.8159,910.174 80.3159,901.507 75.5,892.5 Z"/></g>
<g><path style="opacity:0.933" fill="#e6c04b" d="M 1665.5,809.5 C 1674.32,808.343 1683.32,808.176 1692.5,809C 1691.83,809.333 1691.17,809.667 1690.5,810C 1694.83,810.333 1699.17,810.667 1703.5,811C 1709.32,811.756 1714.82,813.589 1720,816.5C 1720.41,816.043 1720.91,815.709 1721.5,815.5C 1721.83,816.5 1722.17,817.5 1722.5,818.5C 1714.56,853.186 1700.06,886.186 1679,917.5C 1668.41,930.756 1656.25,942.256 1642.5,952C 1636.83,955.248 1630.83,957.581 1624.5,959C 1625.17,959.333 1625.83,959.667 1626.5,960C 1596.01,967.996 1567.68,963.496 1541.5,946.5C 1539.39,943.725 1539.06,940.725 1540.5,937.5C 1542.66,934.098 1544.66,930.598 1546.5,927C 1546.17,926.667 1545.83,926.333 1545.5,926C 1550.31,918.457 1554.81,910.29 1559,901.5C 1559.33,901.833 1559.67,902.167 1560,902.5C 1574.78,872.951 1595.28,847.117 1621.5,825C 1628.98,821.027 1636.98,817.194 1645.5,813.5C 1652.68,811.519 1659.35,810.186 1665.5,809.5 Z"/></g>
<g><path style="opacity:0.004" fill="#e6c04b" d="M 309.5,819.5 C 309.369,818.761 309.536,818.094 310,817.5C 310.692,818.437 310.525,819.103 309.5,819.5 Z"/></g>
<g><path style="opacity:0.004" fill="#e6c04b" d="M 202.5,833.5 C 203.598,834.601 203.765,835.934 203,837.5C 202.51,836.207 202.343,834.873 202.5,833.5 Z"/></g>
<g><path style="opacity:0.004" fill="#e6c04b" d="M 202.5,838.5 C 203.525,838.897 203.692,839.563 203,840.5C 202.536,839.906 202.369,839.239 202.5,838.5 Z"/></g>
<g><path style="opacity:0.004" fill="#e6c04b" d="M 202.5,841.5 C 203.525,841.897 203.692,842.563 203,843.5C 202.536,842.906 202.369,842.239 202.5,841.5 Z"/></g>
<g><path style="opacity:0.004" fill="#e6c04b" d="M 202.5,845.5 C 203.573,846.251 203.74,847.251 203,848.5C 202.517,847.552 202.351,846.552 202.5,845.5 Z"/></g>
<g><path style="opacity:0.925" fill="#e6c04b" d="M 336.5,869.5 C 337.978,869.238 339.311,869.571 340.5,870.5C 350.001,888.504 358.835,906.838 367,925.5C 367.828,930.812 369.494,935.812 372,940.5C 374.296,953.342 376.13,966.342 377.5,979.5C 376.235,989.249 374.402,999.582 372,1010.5C 361.022,1034.8 345.189,1055.3 324.5,1072C 322.888,1072.72 321.388,1072.55 320,1071.5C 297.034,1044.59 280.7,1014.25 271,980.5C 270.857,976.381 270.19,972.381 269,968.5C 268.672,962.233 268.505,956.066 268.5,950C 271,941.855 273.5,933.688 276,925.5C 280.685,916.782 285.851,908.449 291.5,900.5C 294.833,900.5 296.5,898.833 296.5,895.5C 297.552,895.649 298.552,895.483 299.5,895C 306.953,886.86 316.287,880.527 327.5,876C 327.167,875.667 326.833,875.333 326.5,875C 330.404,873.888 333.737,872.055 336.5,869.5 Z"/></g>
<g><path style="opacity:0.927" fill="#e6c04b" d="M 1429.5,869.5 C 1453.12,878.36 1472.79,893.526 1488.5,915C 1488.17,915.333 1487.83,915.667 1487.5,916C 1488.74,915.923 1489.74,916.089 1490.5,916.5C 1490.17,917.167 1489.83,917.833 1489.5,918.5C 1492.2,923.377 1494.7,928.377 1497,933.5C 1499.52,948.298 1500.19,963.298 1499,978.5C 1493.88,999.299 1485.88,1018.97 1475,1037.5C 1467.42,1048.76 1459.42,1059.76 1451,1070.5C 1449.81,1071.43 1448.47,1072.1 1447,1072.5C 1423.67,1055.22 1407.01,1033.22 1397,1006.5C 1392.14,984.782 1392.81,962.449 1399,939.5C 1404.04,927.649 1408.04,916.316 1411,905.5C 1417.16,894.194 1423.33,882.194 1429.5,869.5 Z"/></g>
<g><path style="opacity:0.004" fill="#e6c04b" d="M 75.5,892.5 C 74.8333,893.167 74.8333,893.167 75.5,892.5 Z"/></g>
<g><path style="opacity:0.004" fill="#e6c04b" d="M 286.5,903.5 C 287.833,904.167 287.833,904.167 286.5,903.5 Z"/></g>
<g><path style="opacity:0.004" fill="#e6c04b" d="M 1500.5,957.5 C 1501.53,957.897 1501.69,958.563 1501,959.5C 1500.54,958.906 1500.37,958.239 1500.5,957.5 Z"/></g>
<g><path style="opacity:0.933" fill="#e6c04b" d="M 167.5,966.5 C 172.511,966.334 177.511,966.501 182.5,967C 190.14,968.666 197.807,970.333 205.5,972C 210.142,974.818 215.142,976.818 220.5,978C 243.332,992.084 264.165,1009.58 283,1030.5C 293.666,1043.44 303.999,1056.11 314,1068.5C 314.483,1069.45 314.649,1070.45 314.5,1071.5C 315.5,1071.5 316.5,1071.5 317.5,1071.5C 317.663,1073.86 317.497,1076.19 317,1078.5C 306.579,1087.17 295.412,1094.67 283.5,1101C 276.719,1104.04 269.719,1106.04 262.5,1107C 263.5,1107.33 264.5,1107.67 265.5,1108C 253.027,1109.31 240.694,1109.31 228.5,1108C 229.833,1107.67 231.167,1107.33 232.5,1107C 226.24,1106.72 220.24,1105.39 214.5,1103C 214.833,1102.67 215.167,1102.33 215.5,1102C 213.833,1101.67 212.167,1101.33 210.5,1101C 205.023,1097.62 199.356,1094.62 193.5,1092C 180.539,1082.04 168.205,1070.54 156.5,1057.5C 140.059,1037.24 125.893,1015.58 114,992.5C 113.503,990.19 113.337,987.857 113.5,985.5C 116.373,983.823 119.539,982.49 123,981.5C 124.274,980.465 125.44,979.298 126.5,978C 131.981,977.041 137.148,975.207 142,972.5C 150.65,970.542 159.15,968.542 167.5,966.5 Z"/></g>
<g><path style="opacity:0.933" fill="#e6c04b" d="M 1586.5,966.5 C 1600.09,966.488 1613.43,968.321 1626.5,972C 1631.68,975.222 1637.35,977.388 1643.5,978.5C 1643.98,979.478 1644.64,980.311 1645.5,981C 1649.47,982.039 1653.14,983.539 1656.5,985.5C 1656.66,987.527 1656.5,989.527 1656,991.5C 1644.33,1015.38 1629.83,1037.21 1612.5,1057C 1612.83,1057.33 1613.17,1057.67 1613.5,1058C 1605.86,1065.31 1598.19,1072.64 1590.5,1080C 1590.83,1080.33 1591.17,1080.67 1591.5,1081C 1585.89,1083.96 1580.55,1087.29 1575.5,1091C 1575.83,1091.33 1576.17,1091.67 1576.5,1092C 1572,1094.08 1567.67,1096.41 1563.5,1099C 1529.97,1115.46 1496.97,1111.79 1464.5,1088C 1461.09,1084.23 1457.26,1081.06 1453,1078.5C 1451.89,1074.44 1453.06,1071.27 1456.5,1069C 1456.17,1068.67 1455.83,1068.33 1455.5,1068C 1464.08,1057.49 1472.74,1046.99 1481.5,1036.5C 1493.66,1022.5 1507,1009.67 1521.5,998C 1520.66,996.334 1521.16,996.167 1523,997.5C 1523.5,996.5 1524,995.5 1524.5,994.5C 1532.6,989.102 1540.6,983.768 1548.5,978.5C 1554.19,977.151 1559.53,974.984 1564.5,972C 1572.01,970.564 1579.34,968.731 1586.5,966.5 Z"/></g>
<g><path style="opacity:0.981" fill="#e6c04b" d="M 1987.5,967.5 C 2020.01,964.035 2050.67,969.868 2079.5,985C 2092.24,992.372 2102.91,1002.04 2111.5,1014C 2110.22,1016.28 2108.56,1018.28 2106.5,1020C 2091.35,1032.98 2076.35,1046.15 2061.5,1059.5C 2036.67,1029.31 2007.67,1024.14 1974.5,1044C 1957.37,1062.01 1951.87,1083.18 1958,1107.5C 1966.02,1132.85 1983.36,1146.18 2010,1147.5C 2031.39,1145.89 2048.55,1136.56 2061.5,1119.5C 2077.85,1134.35 2094.35,1149.02 2111,1163.5C 2111.67,1164.5 2111.67,1165.5 2111,1166.5C 2088.64,1192.77 2060.14,1207.6 2025.5,1211C 1987.6,1215.52 1952.93,1207.19 1921.5,1186C 1884.19,1154.76 1869.36,1114.93 1877,1066.5C 1887.37,1018.79 1915.87,987.625 1962.5,973C 1970.88,970.722 1979.21,968.889 1987.5,967.5 Z"/></g>
<g><path style="opacity:0.985" fill="#e6c04b" d="M 2467.5,967.5 C 2511.75,962.755 2550.42,974.922 2583.5,1004C 2616.91,1041.04 2626.08,1083.54 2611,1131.5C 2590.8,1178.72 2554.97,1205.22 2503.5,1211C 2459.23,1216.24 2420.57,1204.24 2387.5,1175C 2358.8,1144.39 2347.97,1108.23 2355,1066.5C 2362.92,1028.26 2384.08,1000.1 2418.5,982C 2434.17,974.504 2450.51,969.67 2467.5,967.5 Z M 2484.5,1031.5 C 2518.77,1035.44 2536.44,1054.78 2537.5,1089.5C 2536.57,1123.75 2519.24,1143.09 2485.5,1147.5C 2451.76,1143.09 2434.43,1123.75 2433.5,1089.5C 2434.4,1055.62 2451.4,1036.28 2484.5,1031.5 Z"/></g>
<g><path style="opacity:0.981" fill="#e6c04b" d="M 2826.5,967.5 C 2859.01,964.035 2889.67,969.868 2918.5,985C 2931.24,992.372 2941.91,1002.04 2950.5,1014C 2949.22,1016.28 2947.56,1018.28 2945.5,1020C 2930.35,1032.98 2915.35,1046.15 2900.5,1059.5C 2875.67,1029.31 2846.67,1024.14 2813.5,1044C 2796.37,1062.01 2790.87,1083.18 2797,1107.5C 2805.02,1132.85 2822.36,1146.18 2849,1147.5C 2870.39,1145.89 2887.55,1136.56 2900.5,1119.5C 2916.85,1134.35 2933.35,1149.02 2950,1163.5C 2950.67,1164.5 2950.67,1165.5 2950,1166.5C 2927.64,1192.77 2899.14,1207.6 2864.5,1211C 2826.6,1215.52 2791.93,1207.19 2760.5,1186C 2723.19,1154.76 2708.36,1114.93 2716,1066.5C 2726.37,1018.79 2754.87,987.625 2801.5,973C 2809.88,970.722 2818.21,968.889 2826.5,967.5 Z"/></g>
<g><path style="opacity:1" fill="#e6c04b" d="M 2113.5,972.5 C 2139.83,972.5 2166.17,972.5 2192.5,972.5C 2192.5,1000.17 2192.5,1027.83 2192.5,1055.5C 2216.83,1055.5 2241.17,1055.5 2265.5,1055.5C 2265.5,1027.83 2265.5,1000.17 2265.5,972.5C 2291.83,972.5 2318.17,972.5 2344.5,972.5C 2344.5,1050.5 2344.5,1128.5 2344.5,1206.5C 2318.17,1206.5 2291.83,1206.5 2265.5,1206.5C 2265.5,1177.83 2265.5,1149.17 2265.5,1120.5C 2241.17,1120.5 2216.83,1120.5 2192.5,1120.5C 2192.5,1149.17 2192.5,1177.83 2192.5,1206.5C 2166.17,1206.5 2139.83,1206.5 2113.5,1206.5C 2113.5,1128.5 2113.5,1050.5 2113.5,972.5 Z"/></g>
<g><path style="opacity:1" fill="#e6c04b" d="M 2626.5,972.5 C 2652.83,972.5 2679.17,972.5 2705.5,972.5C 2705.5,1050.5 2705.5,1128.5 2705.5,1206.5C 2679.17,1206.5 2652.83,1206.5 2626.5,1206.5C 2626.5,1128.5 2626.5,1050.5 2626.5,972.5 Z"/></g>
<g><path style="opacity:0.996" fill="#e6c04b" d="M 2952.5,972.5 C 3016.17,972.5 3079.83,972.5 3143.5,972.5C 3143.5,992.5 3143.5,1012.5 3143.5,1032.5C 3105.83,1032.5 3068.17,1032.5 3030.5,1032.5C 3030.5,1041.5 3030.5,1050.5 3030.5,1059.5C 3063.5,1059.5 3096.5,1059.5 3129.5,1059.5C 3129.5,1078.5 3129.5,1097.5 3129.5,1116.5C 3096.5,1116.5 3063.5,1116.5 3030.5,1116.5C 3030.5,1126.5 3030.5,1136.5 3030.5,1146.5C 3069.5,1146.5 3108.5,1146.5 3147.5,1146.5C 3147.5,1166.5 3147.5,1186.5 3147.5,1206.5C 3082.5,1206.5 3017.5,1206.5 2952.5,1206.5C 2952.5,1128.5 2952.5,1050.5 2952.5,972.5 Z"/></g>
<g><path style="opacity:0.927" fill="#e6c04b" d="M 401.5,985.5 C 403.951,983.597 406.784,982.264 410,981.5C 432.915,1005.92 450.915,1032.92 464,1062.5C 466.607,1072.38 468.94,1082.38 471,1092.5C 471.702,1101.2 471.368,1109.87 470,1118.5C 468.368,1126.58 466.368,1134.58 464,1142.5C 463.667,1141.83 463.333,1141.17 463,1140.5C 462.667,1142.17 462.333,1143.83 462,1145.5C 455.27,1158.48 447.437,1170.65 438.5,1182C 437.127,1182.87 435.627,1183.37 434,1183.5C 430.643,1181.9 427.476,1179.9 424.5,1177.5C 403.026,1159.26 385.192,1138.59 371,1115.5C 370.667,1114.17 370.333,1112.83 370,1111.5C 369.667,1111.83 369.333,1112.17 369,1112.5C 366.235,1104.55 363.235,1096.55 360,1088.5C 359.667,1085.17 359.333,1081.83 359,1078.5C 358.667,1079.17 358.333,1079.83 358,1080.5C 354.621,1056.26 360.621,1033.26 376,1011.5C 379.175,1008.96 382.009,1006.12 384.5,1003C 384.167,1002.67 383.833,1002.33 383.5,1002C 389.668,996.519 395.668,991.019 401.5,985.5 Z"/></g>
<g><path style="opacity:0.929" fill="#e6c04b" d="M 1357.5,982.5 C 1359.86,982.337 1362.19,982.503 1364.5,983C 1376.76,992.731 1387.92,1004.23 1398,1017.5C 1401.88,1024.36 1405.55,1031.36 1409,1038.5C 1411.52,1050.72 1412.52,1063.06 1412,1075.5C 1410.54,1081.67 1409.54,1088 1409,1094.5C 1408.67,1094.17 1408.33,1093.83 1408,1093.5C 1399.01,1116.96 1385.84,1137.63 1368.5,1155.5C 1365.32,1158.52 1362.32,1161.68 1359.5,1165C 1357.83,1166 1356.17,1167 1354.5,1168C 1354.83,1168.33 1355.17,1168.67 1355.5,1169C 1349.86,1173.64 1344.19,1178.3 1338.5,1183C 1336.5,1183.67 1334.5,1183.67 1332.5,1183C 1314.76,1163.19 1303.59,1140.02 1299,1113.5C 1298.33,1105.83 1298.33,1098.17 1299,1090.5C 1301.57,1078.26 1305.23,1065.6 1310,1052.5C 1314.19,1046.2 1317.86,1039.53 1321,1032.5C 1323.97,1030.23 1325.63,1027.23 1326,1023.5C 1337.2,1009.98 1347.7,996.31 1357.5,982.5 Z"/></g>
<g><path style="opacity:0.004" fill="#e6c04b" d="M 401.5,985.5 C 400.833,984.167 400.833,984.167 401.5,985.5 Z"/></g>
<g><path style="opacity:0.926" fill="#e6c04b" d="M 603.5,1278.5 C 610.375,1281.94 617.375,1285.44 624.5,1289C 637.675,1294.29 651.009,1298.96 664.5,1303C 666.669,1305.2 669.335,1306.04 672.5,1305.5C 676.8,1307.97 681.466,1309.97 686.5,1311.5C 692.699,1312.43 698.699,1314.1 704.5,1316.5C 705.063,1317.94 705.397,1319.44 705.5,1321C 704.153,1325.72 702.986,1330.55 702,1335.5C 701.667,1335.17 701.333,1334.83 701,1334.5C 698.407,1336.84 695.574,1337 692.5,1335C 692.833,1334.67 693.167,1334.33 693.5,1334C 680.7,1330.83 668.2,1326.67 656,1321.5C 651.485,1321.32 647.485,1319.99 644,1317.5C 618.423,1307.99 592.923,1296.99 567.5,1284.5C 566.645,1286.61 565.978,1288.77 565.5,1291C 554.368,1310.47 539.034,1325.47 519.5,1336C 516.167,1336.67 512.833,1337.33 509.5,1338C 508.167,1338.67 508.167,1339.33 509.5,1340C 489.833,1340.67 470.167,1340.67 450.5,1340C 452.301,1339.68 452.634,1339.02 451.5,1338C 446.615,1337.44 441.782,1336.6 437,1335.5C 402.555,1321.73 371.722,1303.06 344.5,1279.5C 343.311,1278.57 341.978,1278.24 340.5,1278.5C 340.643,1276.74 340.309,1275.07 339.5,1273.5C 350.728,1258.43 363.728,1246.27 378.5,1237C 382.205,1236.72 385.205,1235.22 387.5,1232.5C 391.3,1231.78 394.633,1230.44 397.5,1228.5C 407.442,1226.34 417.609,1224.67 428,1223.5C 435.12,1224.75 442.286,1225.58 449.5,1226C 458.225,1229.1 467.225,1231.1 476.5,1232C 477.167,1233 477.833,1234 478.5,1235C 485.466,1235.82 492.132,1237.49 498.5,1240C 498.167,1240.33 497.833,1240.67 497.5,1241C 501.471,1242.28 505.471,1243.61 509.5,1245C 509.167,1245.33 508.833,1245.67 508.5,1246C 513.211,1246.17 517.211,1247.83 520.5,1251C 521.944,1251.78 523.277,1251.61 524.5,1250.5C 525.89,1248.83 526.223,1247.16 525.5,1245.5C 506.87,1232.19 490.87,1215.52 477.5,1195.5C 475.321,1190.48 473.154,1185.48 471,1180.5C 469.74,1173.65 468.073,1166.99 466,1160.5C 465.333,1155.5 465.333,1150.5 466,1145.5C 467.91,1137.63 470.076,1129.8 472.5,1122C 472.167,1121.67 471.833,1121.33 471.5,1121C 475.59,1113.07 479.923,1105.23 484.5,1097.5C 489.361,1091.66 494.361,1085.82 499.5,1080C 498.167,1079.33 498.167,1078.67 499.5,1078C 501.5,1077.33 503.5,1077.33 505.5,1078C 520.624,1090.79 535.457,1103.95 550,1117.5C 558.636,1127.89 567.303,1138.89 576,1150.5C 580.617,1159.32 584.783,1168.32 588.5,1177.5C 593.616,1198.21 593.783,1218.21 589,1237.5C 586.01,1244.65 583.343,1251.98 581,1259.5C 579.623,1261.75 578.123,1263.92 576.5,1266C 580.683,1268.26 585.016,1270.26 589.5,1272C 589.167,1272.33 588.833,1272.67 588.5,1273C 593.594,1274.69 598.594,1276.52 603.5,1278.5 Z"/></g>
<g><path style="opacity:0.926" fill="#e6c04b" d="M 1166.5,1278.5 C 1174.79,1275.35 1182.79,1271.69 1190.5,1267.5C 1191.5,1267.53 1192.16,1267.03 1192.5,1266C 1186.16,1253.35 1181.33,1240.18 1178,1226.5C 1177.33,1213.5 1177.33,1200.5 1178,1187.5C 1183.78,1167.71 1193.11,1149.71 1206,1133.5C 1222.09,1114.93 1240.25,1097.93 1260.5,1082.5C 1262.02,1081.15 1263.35,1079.65 1264.5,1078C 1266.44,1077.26 1268.27,1077.42 1270,1078.5C 1279.69,1090.03 1288.02,1101.7 1295,1113.5C 1299.47,1125.82 1302.63,1138.48 1304.5,1151.5C 1302.54,1160.45 1300.71,1170.12 1299,1180.5C 1296.77,1184.46 1294.6,1189.46 1292.5,1195.5C 1279.09,1215.41 1262.76,1232.58 1243.5,1247C 1245.04,1248.11 1245.7,1249.61 1245.5,1251.5C 1254.41,1248.06 1263.41,1244.56 1272.5,1241C 1272.17,1240.67 1271.83,1240.33 1271.5,1240C 1277.62,1237.82 1283.96,1236.16 1290.5,1235C 1291.5,1234 1292.5,1233 1293.5,1232C 1302.82,1231.09 1311.82,1229.09 1320.5,1226C 1327.71,1225.58 1334.88,1224.75 1342,1223.5C 1348.79,1224.71 1355.62,1225.54 1362.5,1226C 1368.89,1228.85 1375.56,1231.02 1382.5,1232.5C 1382.83,1233.17 1383.17,1233.83 1383.5,1234.5C 1386.95,1235.26 1389.95,1236.76 1392.5,1239C 1394.11,1239.72 1395.61,1239.55 1397,1238.5C 1397.46,1239.74 1396.96,1240.58 1395.5,1241C 1410.01,1249.29 1421.67,1260.62 1430.5,1275C 1430.41,1276.11 1430.08,1277.11 1429.5,1278C 1428.06,1278.22 1426.73,1278.72 1425.5,1279.5C 1397.48,1303.53 1366.14,1322.36 1331.5,1336C 1326.66,1336.54 1321.99,1337.54 1317.5,1339C 1318.5,1339.33 1319.5,1339.67 1320.5,1340C 1300.5,1340.67 1280.5,1340.67 1260.5,1340C 1261.83,1339.33 1261.83,1338.67 1260.5,1338C 1257.17,1337.33 1253.83,1336.67 1250.5,1336C 1230.04,1325.54 1214.54,1310.04 1204,1289.5C 1203.51,1288.21 1203.34,1286.87 1203.5,1285.5C 1199.08,1286.44 1194.74,1287.77 1190.5,1289.5C 1186.83,1291.93 1182.83,1293.76 1178.5,1295C 1178.83,1295.33 1179.17,1295.67 1179.5,1296C 1175.64,1296.87 1171.98,1298.2 1168.5,1300C 1168.83,1300.33 1169.17,1300.67 1169.5,1301C 1164.35,1303.05 1159.01,1304.72 1153.5,1306C 1142.84,1310.3 1132.5,1314.97 1122.5,1320C 1115.97,1320.48 1109.97,1322.48 1104.5,1326C 1093.07,1329.46 1082.23,1332.96 1072,1336.5C 1069.85,1336.36 1068.18,1335.36 1067,1333.5C 1065.71,1327.62 1065.54,1321.79 1066.5,1316C 1078.7,1312.08 1091.03,1308.41 1103.5,1305C 1108.39,1303.12 1113.05,1300.78 1117.5,1298C 1120.83,1297.33 1124.17,1296.67 1127.5,1296C 1137.09,1291.9 1146.76,1287.9 1156.5,1284C 1156.17,1283.67 1155.83,1283.33 1155.5,1283C 1156.76,1281.89 1157.93,1281.72 1159,1282.5C 1160.71,1281.54 1162.54,1280.87 1164.5,1280.5C 1165.71,1280.25 1166.38,1279.59 1166.5,1278.5 Z"/></g>
<g><path style="opacity:0.004" fill="#e6c04b" d="M 484.5,1097.5 C 483.475,1097.1 483.308,1096.44 484,1095.5C 484.464,1096.09 484.631,1096.76 484.5,1097.5 Z"/></g>
<g><path style="opacity:0.934" fill="#e6c04b" d="M 397.5,1223.5 C 393.729,1225.81 389.729,1227.65 385.5,1229C 385.833,1229.33 386.167,1229.67 386.5,1230C 381.624,1231.89 376.624,1233.23 371.5,1234C 374.279,1234.15 374.779,1234.98 373,1236.5C 358.225,1236.97 343.392,1236.47 328.5,1235C 329.5,1234.67 330.5,1234.33 331.5,1234C 320.898,1232.97 311.231,1229.47 302.5,1223.5C 301.833,1223.83 301.167,1224.17 300.5,1224.5C 299.304,1224.15 299.304,1223.65 300.5,1223C 270.459,1206.38 244.126,1183.88 221.5,1155.5C 220.335,1154.42 219.002,1153.58 217.5,1153C 217.833,1152.67 218.167,1152.33 218.5,1152C 215.331,1149.18 212.998,1145.85 211.5,1142C 212.616,1138.58 214.949,1136.25 218.5,1135C 218.167,1134.67 217.833,1134.33 217.5,1134C 224.017,1129.91 230.35,1125.58 236.5,1121C 242.568,1117.9 248.902,1115.57 255.5,1114C 255.167,1113.67 254.833,1113.33 254.5,1113C 258.192,1113 261.525,1112 264.5,1110C 276.143,1108.68 287.809,1108.35 299.5,1109C 307.072,1109.28 314.406,1110.61 321.5,1113C 320.5,1113.33 319.5,1113.67 318.5,1114C 326.154,1115.61 333.487,1118.11 340.5,1121.5C 354.216,1128.68 367.549,1136.52 380.5,1145C 380.167,1145.33 379.833,1145.67 379.5,1146C 383.507,1147.44 386.84,1149.77 389.5,1153C 391.025,1154.01 392.692,1154.51 394.5,1154.5C 394.5,1155.5 394.5,1156.5 394.5,1157.5C 400.348,1160.66 405.681,1164.66 410.5,1169.5C 411.736,1170.25 413.07,1170.58 414.5,1170.5C 419.073,1176.73 424.739,1182.07 431.5,1186.5C 430.811,1188.44 430.311,1190.44 430,1192.5C 425.07,1198.35 420.57,1203.85 416.5,1209C 410.284,1214.06 403.951,1218.89 397.5,1223.5 Z"/></g>
<g><path style="opacity:0.935" fill="#e6c04b" d="M 1515.5,1112.5 C 1515.39,1113.12 1515.06,1113.62 1514.5,1114C 1530.62,1119.4 1544.95,1127.9 1557.5,1139.5C 1558.48,1141.1 1558.65,1142.76 1558,1144.5C 1534.99,1173.87 1508.49,1198.71 1478.5,1219C 1470.09,1222.43 1461.92,1226.26 1454,1230.5C 1449.12,1232.66 1443.96,1233.83 1438.5,1234C 1439.83,1234.33 1441.17,1234.67 1442.5,1235C 1426.83,1236.98 1411.16,1236.98 1395.5,1235C 1396.5,1234.67 1397.5,1234.33 1398.5,1234C 1393.38,1233.23 1388.38,1231.89 1383.5,1230C 1366.05,1221.55 1351.22,1208.38 1339,1190.5C 1338.51,1188.87 1338.34,1187.2 1338.5,1185.5C 1340.43,1185.27 1342.1,1184.44 1343.5,1183C 1353.46,1173.53 1364.13,1165.03 1375.5,1157.5C 1375.5,1156.5 1375.5,1155.5 1375.5,1154.5C 1377.31,1154.51 1378.98,1154.01 1380.5,1153C 1405.45,1133.56 1431.79,1119.22 1459.5,1110C 1474.83,1108.03 1490.17,1108.03 1505.5,1110C 1508.45,1112.16 1511.78,1113 1515.5,1112.5 Z"/></g>
<g><path style="opacity:0.004" fill="#e6c04b" d="M 1515.5,1111.5 C 1516.83,1112.17 1516.83,1112.17 1515.5,1111.5 Z"/></g>
<g><path style="opacity:0.004" fill="#e6c04b" d="M 994.5,1173.5 C 995.833,1174.17 995.833,1174.17 994.5,1173.5 Z"/></g>
<g><path style="opacity:0.004" fill="#e6c04b" d="M 397.5,1223.5 C 398.833,1224.17 398.833,1224.17 397.5,1223.5 Z"/></g>
<g><path style="opacity:0.004" fill="#e6c04b" d="M 397.5,1228.5 C 396.833,1227.17 396.833,1227.17 397.5,1228.5 Z"/></g>
<g><path style="opacity:0.004" fill="#e6c04b" d="M 1190.5,1267.5 C 1189.83,1266.17 1189.83,1266.17 1190.5,1267.5 Z"/></g>
<g><path style="opacity:0.004" fill="#e6c04b" d="M 603.5,1277.5 C 604.833,1278.17 604.833,1278.17 603.5,1277.5 Z"/></g>
<g><path style="opacity:0.004" fill="#e6c04b" d="M 1166.5,1278.5 C 1165.83,1277.17 1165.83,1277.17 1166.5,1278.5 Z"/></g>
<g><path style="opacity:0.004" fill="#e6c04b" d="M 672.5,1304.5 C 673.833,1305.17 673.833,1305.17 672.5,1304.5 Z"/></g>
<g><path style="opacity:0.004" fill="#e6c04b" d="M 433.5,1334.5 C 434.833,1335.17 434.833,1335.17 433.5,1334.5 Z"/></g>
</svg>
