<svg xmlns="http://www.w3.org/2000/svg" width="1934" height="1826" style="shape-rendering:geometricPrecision;text-rendering:geometricPrecision;image-rendering:optimizeQuality;fill-rule:evenodd;clip-rule:evenodd"><path style="opacity:.931" fill="#e6c04b" d="M293.5 327.5a88.309 88.309 0 0 1 16-4.5c13-.667 26-.667 39 0 10.868 2.63 20.868 5.964 30 10l-1 1 8 3a68.149 68.149 0 0 0 13 8.5c1.131 1.574 1.298 3.241.5 5l-1-2c-1.018 4.874-3.185 9.04-6.5 12.5l1 1a593.178 593.178 0 0 1-21 33.5 234.907 234.907 0 0 0-17.5 23 147.894 147.894 0 0 1-17 16c-6.35 7.45-13.517 12.95-21.5 16.5l1 1c-4.627 2.614-9.627 4.614-15 6l1 1a253.502 253.502 0 0 1-43.5 8.5 774.664 774.664 0 0 0-35.5-5.5 193.848 193.848 0 0 0-18-6.5c-.885-5.603.282-10.603 3.5-15a79.066 79.066 0 0 1 2-10 31.324 31.324 0 0 0 5.5-10.5l-1-1c2.238-2.104 3.238-4.438 3-7 2.383-1.8 4.05-4.133 5-7l-1-1a414.407 414.407 0 0 0 18.5-30.5 184.518 184.518 0 0 1 20.5-23c-1.951-.273-3.451.393-4.5 2l-1-1a94.738 94.738 0 0 1-17.5 11l-2-1c-1.562-3.474-2.395-7.14-2.5-11a1195.574 1195.574 0 0 1-2-26 230.53 230.53 0 0 1-3 32 456.653 456.653 0 0 0-8 37l-1-2a89.293 89.293 0 0 1-3 16c-4.907 15.654-10.074 30.487-15.5 44.5l-4 .5a129.807 129.807 0 0 1-21-5.5l1-1a89.692 89.692 0 0 1-18-8.5 6271.088 6271.088 0 0 1-14-11 986.62 986.62 0 0 1-18-20.5 3.647 3.647 0 0 0 1-1.5 45.89 45.89 0 0 0-6.5-11 116.413 116.413 0 0 0-5-16l-1 1a306.39 306.39 0 0 1 0-60l3-5a318.838 318.838 0 0 0 4-23l3-3a250.043 250.043 0 0 1 20.5-52 1523.03 1523.03 0 0 0 14.5-26c2.012-1.535 4.178-2.369 6.5-2.5 18.208 9.822 33.708 23.655 46.5 41.5a3344.932 3344.932 0 0 1 12.5 23 114.525 114.525 0 0 1 4.5 19l1 18c1.264-58.528 24.764-105.528 70.5-141 8.434-6.804 17.101-12.304 26-16.5-.951-.718-1.117-1.551-.5-2.5 1.049 1.017 2.216 1.184 3.5.5a156.637 156.637 0 0 1 22-10c-1.456-.423-1.956-1.256-1.5-2.5 1.726 1.076 3.559 1.243 5.5.5a168.91 168.91 0 0 1 17-5.5l2-2a91.123 91.123 0 0 1 19-1 60.931 60.931 0 0 1-.5 11 701.462 701.462 0 0 0-8 42l-1-2-3 16c-3.055 4.871-4.888 10.204-5.5 16-16.425 47.085-44.425 85.752-84 116Zm0 0c-.321 1.548-1.321 2.215-3 2 .473-1.406 1.473-2.073 3-2Zm-30 21c-.333 1-1 1.667-2 2 0-1.333.667-2 2-2Z"/><path style="opacity:.929" fill="#e6c04b" d="M1624.5 167.5c28 21.428 47.83 48.428 59.5 81l3 3c.08 6.246 1.75 11.913 5 17a264.108 264.108 0 0 1 3 39c.33-24.304 7.33-45.304 21-63 12.83-16.221 27.33-28.721 43.5-37.5 3.58.874 6.41 3.041 8.5 6.5a120.194 120.194 0 0 0 11.5 19 3.627 3.627 0 0 1-1 1.5 16.643 16.643 0 0 1 4 4c-.33.333-.67.667-1 1 3.76 5.887 6.76 12.054 9 18.5 2.12 4.645 4.12 8.645 6 12-.33.667-.67 1.333-1 2 2.95 7.222 5.95 14.388 9 21.5-.46.414-.79.914-1 1.5 2.18 4.038 3.34 8.371 3.5 13 .33-1 .67-2 1-3 2.53 9.775 3.86 19.775 4 30 .33-.333.67-.667 1-1 .67 10.333.67 20.667 0 31-.95 7.83-2.62 15.496-5 23-.33-.333-.67-.667-1-1-1.4 3.914-2.57 7.914-3.5 12-2.78-.411-3.44.422-2 2.5-18.52 29.696-43.85 46.863-76 51.5a474.49 474.49 0 0 0-8-21.5c1.25-2.639.58-4.806-2-6.5-.97-3.967-1.81-7.967-2.5-12a6.575 6.575 0 0 0-3-3 238.79 238.79 0 0 0-3-15c-.33.333-.67.667-1 1-2.47-11.59-4.47-22.59-6-33-.67-1.333-1.33-2.667-2-4a439.014 439.014 0 0 1-3-38 264.612 264.612 0 0 1-3 39c-1.19 2.347-3.02 3.18-5.5 2.5-7.95-4.429-15.29-8.929-22-13.5-.33.167-.67.333-1 .5 3.22 2.728 6.22 5.561 9 8.5 7.41 9.253 14.74 18.753 22 28.5-.95.718-1.12 1.551-.5 2.5 3.76 4.737 7.09 9.737 10 15 5.88 13.534 11.55 27.867 17 43 .5 2.982.66 5.982.5 9-6.69 1.395-12.69 3.395-18 6a7425.881 7425.881 0 0 1-35 6 4106.464 4106.464 0 0 1-35-5.5c-5.36-2.837-11.36-5.17-18-7-3.12-3.398-7.45-6.064-13-8 .33-.333.67-.667 1-1a73.98 73.98 0 0 1-12-8.5 292.489 292.489 0 0 1-23.5-25 299.86 299.86 0 0 1-24-34 467.637 467.637 0 0 0-15.5-27c-.97-2.243-1.31-4.576-1-7 1.7.16 3.37-.006 5-.5a59.328 59.328 0 0 1 17-10c-.33-.333-.67-.667-1-1 9.17-4.039 19.17-7.372 30-10 13-.667 26-.667 39 0a91.015 91.015 0 0 1 16 4.5c-19.31-15.481-36.48-32.481-51.5-51a157.277 157.277 0 0 1-15-25 3722.19 3722.19 0 0 0-14.5-32 219.024 219.024 0 0 1-5.5-20 7.239 7.239 0 0 0-2.5-2 154.84 154.84 0 0 1-2.5-15 444.817 444.817 0 0 1-5-13 558.372 558.372 0 0 0-2-20c-3.21-6.507-4.38-13.507-3.5-21 6.37-.33 12.7.004 19 1a23.01 23.01 0 0 0 9 4.5c4.92 1.627 9.92 2.96 15 4-.33.333-.67.667-1 1l12 4c-.33.333-.67.667-1 1a817.908 817.908 0 0 1 23 11c-.33.333-.67.667-1 1 2.45.727 4.79 1.727 7 3a96.26 96.26 0 0 0 11 8.5Zm9 160c1.53-.073 2.53.594 3 2-1.68.215-2.68-.452-3-2Z"/><path style="opacity:.959" fill="#e6c04b" d="M1049.5 274.5a491.733 491.733 0 0 0 36 37 278.279 278.279 0 0 0 27 21.5c-.33.333-.67.667-1 1a23.776 23.776 0 0 0 6 2.5v3a47.567 47.567 0 0 1 11 5.5c-.33.333-.67.667-1 1 5.71 3.416 11.21 7.25 16.5 11.5.33-.333.67-.667 1-1 2.84 2.511 5.68 5.011 8.5 7.5 5.18 3.74 10.84 6.74 17 9 2.62 3.004 5.95 4.837 10 5.5a149.746 149.746 0 0 0 17 10c4.92 1.113 9.26 3.28 13 6.5 2.38.511 4.71 1.178 7 2-.33.333-.67.667-1 1 14.99 5.64 29.99 11.306 45 17a340.457 340.457 0 0 0 20 5c.67.667 1.33 1.333 2 2a152.79 152.79 0 0 0 16 3 7.32 7.32 0 0 0 3 2c10.88 1.67 22.22 4.003 34 7l12 1c-.33.333-.67.667-1 1 7.82-.033 15.49.967 23 3l24 1-5 1c30 .667 60 .667 90 0l-4-1c7.69-.268 15.35-.768 23-1.5 1.27.07 2.44.403 3.5 1 .88 46.012.55 92.012-1 138a1707.124 1707.124 0 0 0-4.5 86 782.62 782.62 0 0 0-5.5 58c-3.64 19.719-5.64 39.719-6 60l-3 5a707.929 707.929 0 0 0-4 39l-3 8a427.817 427.817 0 0 1-6 41c-4.38 21.34-9.04 42.674-14 64a47.259 47.259 0 0 0-4 11c-1.53 6.94-2.87 13.94-4 21-.33-.667-.67-1.333-1-2a404.481 404.481 0 0 1-15.5 50.5c1.32 1.54.99 2.71-1 3.5-1.92 6.89-4.25 13.55-7 20-2.14 3.25-3.64 7.58-4.5 13l-1-1c-.98 3.4-2.15 7.07-3.5 11-27.55 57.2-65.88 107.37-115 150.5l1 1a31.49 31.49 0 0 1-7 4c-5.68 6.57-13.01 12.91-22 19l1 1a1184.27 1184.27 0 0 0-31 22.5c-.91.83-1.58 1.83-2 3-4.43 3.68-9.43 6.68-15 9-1.76 3.05-4.43 4.89-8 5.5-.67 1-1.33 2-2 3-6.75 3.03-12.75 7.03-18 12a3579.052 3579.052 0 0 0-71 41c-17.02 8.05-33.36 16.21-49 24.5-6.58 2.75-13.25 5.25-20 7.5a21.64 21.64 0 0 0-7 4.5c-4.71.4-8.71 2.23-12 5.5l-10 3 1 1c-2 .33-4 .67-6 1-3.31 2.2-6.98 3.53-11 4a8.95 8.95 0 0 1-4 3c-13.161 4.56-27.494 9.39-43 14.5a401.117 401.117 0 0 0-34-10.5c.667-.33 1.333-.67 2-1l-12-3-3-3a94.76 94.76 0 0 1-17-5c.333-.33.667-.67 1-1-4.973-.87-9.307-2.87-13-6-6.089-.77-11.422-3.1-16-7-5.113-.3-9.447-2.13-13-5.5a33.316 33.316 0 0 1-7-2 737.474 737.474 0 0 0-31-16.5 54.79 54.79 0 0 1-7-2c.333-.33.667-.67 1-1-4.651-2-9.318-4-14-6 .333-.33.667-.67 1-1-8.281-3.65-15.947-7.32-23-11 .333-.33.667-.67 1-1-4.645-1.56-8.979-3.56-13-6 .333-.33.667-.67 1-1a525.82 525.82 0 0 1-10-4c.333-.33.667-.67 1-1-7.054-3.71-14.054-7.38-21-11 .333-.33.667-.67 1-1a209.028 209.028 0 0 0-15-8.5 7.239 7.239 0 0 0-2-2.5c-39.205-24.91-74.538-52.74-106-83.5-46.319-43.96-81.985-93.79-107-149.5.457-.41.791-.91 1-1.5a859.777 859.777 0 0 1-9-20.5l-1.5-7.5a6.575 6.575 0 0 0-3-3 68.805 68.805 0 0 0-3-14c-.654 1.2-1.154 1.2-1.5 0 1.243-3.21.41-5.88-2.5-8-.116-5.911-1.783-11.244-5-16a3039.446 3039.446 0 0 0-10-41 7.293 7.293 0 0 0-2-3c-3.064-12.855-5.731-26.522-8-41a7.293 7.293 0 0 1-2 3c1.18-5.522.513-10.856-2-16-1.123-9.526-2.79-18.193-5-26a160.813 160.813 0 0 1-3-24l-1 2a969.5 969.5 0 0 1-6-51l-1 1a2269.68 2269.68 0 0 1-18-223l-1 1c-.817-42.696-.65-85.362.5-128 34.577 3.006 71.91 3.84 112 2.5l-6-1 24-1c16.273-2.933 33.273-5.6 51-8 18.459-4.317 38.125-9.65 59-16 132.56-46.89 230.894-135.39 295-265.5 2.292-.256 4.459.077 6.5 1 21.678 44.969 49.18 86.303 82.5 124Zm225 785a440.327 440.327 0 0 1-36 44c-3.69 4.36-7.69 8.36-12 12-29.1 27-59.44 50.83-91 71.5-13.08 7.87-26.08 15.7-39 23.5-5.96 2.93-11.96 5.93-18 9-1.9 2.67-4.56 4.17-8 4.5-1.5.83-2.67 2-3.5 3.5-1.61-1.12-2.78-.62-3.5 1.5-17.36 8.77-35.03 17.11-53 25-1.04 1.98-2.38 2.48-4 1.5-9.763 5.68-20.763 10.18-33 13.5.667.33 1.333.67 2 1a78.875 78.875 0 0 1-12 2.5c-2-.33-4-.67-6-1a168.925 168.925 0 0 1-24-10.5l-11-3c.333-.33.667-.67 1-1-71.153-30.89-136.153-69.73-195-116.5-4.654-4.32-9.321-8.65-14-13-24.4-20.74-45.733-44.41-64-71a542.416 542.416 0 0 0-14.5-22 717.89 717.89 0 0 1-19.5-44.5c-20.196-58.376-34.863-118.876-44-181.5a4.457 4.457 0 0 1-1.5-2c-.629-5.831-.963-11.498-1-17l-1 3a708.2 708.2 0 0 0-7-55c.389-10.687-.945-21.021-4-31a2012.532 2012.532 0 0 0-5.5-86c-.79-1.109-1.29-2.442-1.5-4a561.55 561.55 0 0 0-2.5-51.5c28.194-3.012 54.194-6.679 78-11l-1-1c14.425-1.801 28.425-5.134 42-10l8-1-1-1a241.69 241.69 0 0 1 15-3l2-2c12.038-3.367 23.371-6.7 34-10l2-3 10-2 3-3c6.454-1.578 12.454-4.078 18-7.5 58.665-25.51 112.665-60.176 162-104l43-42a976.353 976.353 0 0 1 38 37.5c11.07 8.709 22.07 18.209 33 28.5 10.99 8.162 21.99 16.329 33 24.5l6 3c22.4 15.848 47.07 30.182 74 43-.33.333-.67.667-1 1 5.66.999 10.66 3.332 15 7 4.51.028 8.17 1.695 11 5 4.9.723 9.56 2.056 14 4 3.59 3.235 7.92 4.901 13 5 .67 1 1.33 2 2 3 11.37 3.348 22.71 6.682 34 10 .67.667 1.33 1.333 2 2l16 3c-.33.333-.67.667-1 1 6.09 2.085 12.42 3.419 19 4-.33.333-.67.667-1 1l9 1c.67.667 1.33 1.333 2 2a581.425 581.425 0 0 0 47 8l-3 1c17.66 2.08 35.33 4.246 53 6.5a39.374 39.374 0 0 0-1.5 7 1052.2 1052.2 0 0 1-3 73c-.33-3.333-.67-6.667-1-10-.8 14.994-1.47 29.994-2 45a259.091 259.091 0 0 1-5.5 41c.05 1.6.38 3.1 1 4.5-1.63 6.342-2.46 12.842-2.5 19.5-1.11 3.623-2.11 7.29-3 11-.19 16.816-2.52 33.15-7 49-.43 6.506-.93 13.006-1.5 19.5-.06 3.604-1.23 6.77-3.5 9.5a77.89 77.89 0 0 1-2.5 17c1.03 2.243.86 4.243-.5 6-.56-2.095-1.06-2.262-1.5-.5 1.81 5.359.98 10.192-2.5 14.5-.05 7.806-1.72 15.139-5 22a111.97 111.97 0 0 1-3 18c-.33-1-.67-2-1-3-.52 8.701-2.35 17.034-5.5 25 .73 2.94-.1 5.607-2.5 8-5.23 20.045-12.06 41.045-20.5 63-.9-1.01-1.56-1.01-2 0 .98 1.6 1.15 3.26.5 5-7.95 17.66-17.45 34.33-28.5 50Z"/><path style="opacity:.004" fill="#e6c04b" d="M302.5 167.5c-.667-1.333-.667-1.333 0 0ZM1624.5 166.5c1.33.667 1.33.667 0 0ZM1552.5 219.5c.13.739-.04 1.406-.5 2-.69-.937-.53-1.603.5-2ZM1790.5 257.5c-.13-.739.04-1.406.5-2 .69.937.53 1.603-.5 2ZM226.5 271.5a2.428 2.428 0 0 1 .5-2c.692.937.525 1.603-.5 2Z"/><path style="opacity:.008" fill="#e6c04b" d="M1049.5 273.5c1.33.667 1.33.667 0 0ZM325.5 321.5c2.128-1.129 4.461-1.296 7-.5-2.31.497-4.643.663-7 .5Z"/><path style="opacity:.009" fill="#e6c04b" d="M1594.5 321.5c2.13-1.129 4.46-1.296 7-.5-2.31.497-4.64.663-7 .5Z"/><path style="opacity:.004" fill="#e6c04b" d="M1672.5 356.5c1.33.667 1.33.667 0 0ZM226.5 371.5c1.025.397 1.192 1.063.5 2a2.428 2.428 0 0 1-.5-2Z"/><path style="opacity:.93" fill="#e6c04b" d="M77.5 393.5c3.35-.165 6.683.002 10 .5 25.763 8.907 47.096 24.241 64 46l-1 1c2.297 3.106 4.63 6.273 7 9.5a57.696 57.696 0 0 0 6.5 13 56.661 56.661 0 0 0 3 12l1-2c.498 2.027.331 4.027-.5 6 2.185 6.251 3.518 12.751 4 19.5 3.127 40.493 1.627 80.659-4.5 120.5l-1.5 1.5a90.455 90.455 0 0 1-19 0l-2-2c-39.381-6.557-66.381-28.557-81-66-1.836-7.55-3.669-15.05-5.5-22.5-3.845-47.542 2.655-93.208 19.5-137Z"/><path style="opacity:.928" fill="#e6c04b" d="M1839.5 393.5h10a190.667 190.667 0 0 1 6 19c2.62 1.705 3.29 3.872 2 6.5 1.9 6.444 3.74 12.944 5.5 19.5a513.99 513.99 0 0 0 7 37c2.06 25.406.06 50.406-6 75a79.363 79.363 0 0 1-6.5 14.5c.33.333.67.667 1 1a143.43 143.43 0 0 0-11.5 16.5 574.12 574.12 0 0 1-20.5 20c-3.9 1.348-7.23 3.515-10 6.5a54.628 54.628 0 0 0-7 2c-.54 2.109-1.54 2.609-3 1.5a22.193 22.193 0 0 1-6 3 382.044 382.044 0 0 0-29.5 6c-3.55-.037-7.05-.37-10.5-1-5.38-32.99-7.88-66.323-7.5-100 .33.333.67.667 1 1 .03-21.442 3.7-42.109 11-62 .33.333.67.667 1 1a36.476 36.476 0 0 1 3-10c5.1-8.015 10.93-16.015 17.5-24a157.67 157.67 0 0 1 12-9.5c4.61-5.075 10.61-9.075 18-12-.33-.333-.67-.667-1-1a400.703 400.703 0 0 0 24-10.5Z"/><path style="opacity:.004" fill="#e6c04b" d="M672.5 409.5c1.333.667 1.333.667 0 0Z"/><path style="opacity:.925" fill="#e6c04b" d="M304.5 469.5c.111.617.444 1.117 1 1.5 5.389.507 10.723 1.34 16 2.5a7.248 7.248 0 0 0 2 2.5 51.274 51.274 0 0 0 12 3c1.126 3.744 1.293 7.577.5 11.5-4.3 12.568-8.3 24.568-12 36a95.724 95.724 0 0 0-8 18l-1-1c-8.991 21.529-22.491 40.529-40.5 57-2.301 2.767-5.301 4.601-9 5.5l-2 3a44.7 44.7 0 0 0-14 6.5 383.511 383.511 0 0 0-24 7.5c-9.821.4-18.821 1.234-27 2.5-8.079-1.038-16.746-1.871-26-2.5-1.167-.5-2-1.333-2.5-2.5l-.5-5.5c2.633-19.775 6.799-39.941 12.5-60.5 6.23-17.657 15.23-34.657 27-51 19.645-23.127 44.312-35.127 74-36 7.178 1.432 14.344 2.099 21.5 2Z"/><path style="opacity:.926" fill="#e6c04b" d="M1671.5 612.5c-2.17-2.011-4.83-3.178-8-3.5-.67-1-1.33-2-2-3-4.8-2.971-9.47-6.138-14-9.5a275.557 275.557 0 0 1-27.5-35c-.48-3.323-1.98-5.99-4.5-8-10.89-23.53-19.89-47.03-27-70.5 1.73-3.807 4.73-5.474 9-5a20.878 20.878 0 0 0 8-4.5c5.28-1.16 10.61-1.993 16-2.5a9.246 9.246 0 0 0 1.5-2.5 202.74 202.74 0 0 1 35.5 0c6.39 2.371 13.06 3.871 20 4.5 3.47 3.046 7.47 5.213 12 6.5 21.34 13.818 36.5 32.485 45.5 56 .33-.333.67-.667 1-1 9.8 25.213 16.47 51.213 20 78 .74 3.062.57 6.062-.5 9a6.845 6.845 0 0 1-3 1.5l-13 1 3 1c-9.33.667-18.67.667-28 0 .33-.333.67-.667 1-1-8.54-.12-16.87-1.12-25-3-2.95-3.038-6.62-4.538-11-4.5-3.05-1.345-6.05-2.678-9-4Z"/><path style="opacity:.004" fill="#e6c04b" d="M304.5 468.5c1.333.667 1.333.667 0 0Z"/><path style="opacity:.992" fill="#e6c04b" d="M968.5 536.5c63.33-1.239 122.33 13.927 177 45.5 27.14 17.135 50.47 38.468 70 64a16931.414 16931.414 0 0 1-116 103.5c-17.66-22.499-39.33-39.999-65-52.5-33.29-12.832-66.961-13.832-101-3-44.864 18.563-70.697 52.063-77.5 100.5-5.316 34.788-.316 68.122 15 100 24.528 41.194 61.028 61.527 109.5 61 36.08-.216 67.41-12.383 94-36.5a311.419 311.419 0 0 0 25-26.5c38.82 34.315 77.48 68.815 116 103.5-42.11 53.42-96.78 87.09-164 101-68.508 13.98-135.841 9.65-202-13-96.798-37.8-155.631-107.635-176.5-209.5-13.383-78.427 1.617-150.761 45-217 48.133-63.845 111.966-102.345 191.5-115.5 19.714-3.002 39.381-4.836 59-5.5Z"/><path style="opacity:.938" fill="#e6c04b" d="M35.5 585.5c9.962 1.975 20.629 3.808 32 5.5 33.867 10.989 58.367 32.489 73.5 64.5a590.534 590.534 0 0 0 11 29c.957 9.308 2.957 18.308 6 27a1200.871 1200.871 0 0 1 3.5 27 32.448 32.448 0 0 0 2.5 6 1274.25 1274.25 0 0 1 1.5 46 57.657 57.657 0 0 0-13 2.5c-8.333.667-16.667.667-25 0a276.745 276.745 0 0 1-28-6.5 48.802 48.802 0 0 0-13-6.5l1-1c-4.204-1.917-7.871-3.917-11-6l1-1c-10.522-7.694-19.188-17.194-26-28.5-4.047-6.866-7.714-14.533-11-23a632.093 632.093 0 0 0-7.5-29 2652.367 2652.367 0 0 1 0-103 10.51 10.51 0 0 0 2.5-3Z"/><path style="opacity:.931" fill="#e6c04b" d="M1890.5 704.5c-2.08 5.649-3.58 11.649-4.5 18-1.02-1.134-1.68-.801-2 1-7.35 21.528-20.18 39.028-38.5 52.5l-6 3c.33.333.67.667 1 1-4.99 1.15-9.32 3.317-13 6.5-4.75.784-9.08 2.117-13 4-9.02 2.03-18.19 3.03-27.5 3a87.778 87.778 0 0 1-25.5-3c-.17-9.006 0-18.006.5-27 .89-14.519 2.55-28.186 5-41 3.18-11.386 5.51-22.386 7-33 3.17-6.903 5.67-14.736 7.5-23.5 14.43-37.433 40.43-62.433 78-75a373.01 373.01 0 0 0 27.5-5.5c2.38-.018 4.55.649 6.5 2 .55 5.478 1.38 10.811 2.5 16 .67 23.333.67 46.667 0 70-.8 10.447-2.64 20.78-5.5 31Z"/><path style="opacity:.004" fill="#e6c04b" d="M274.5 600.5c1.333.667 1.333.667 0 0ZM1671.5 612.5c-.67.667-.67.667 0 0ZM297.5 617.5c.577-1.273 1.243-1.273 2 0-.47.963-1.137.963-2 0ZM1629.5 617.5c-.86.963-1.53.963-2 0 .76-1.273 1.42-1.273 2 0ZM249.5 617.5c1.333.667 1.333.667 0 0Z"/><path style="opacity:.927" fill="#e6c04b" d="M297.5 617.5c-.763.768-1.763 1.268-3 1.5l11 1a37.138 37.138 0 0 1 2 4.5 19.95 19.95 0 0 0-2.5 8 525.144 525.144 0 0 1-3 33l-10 40-1-1c-6.164 19.738-16.331 37.238-30.5 52.5-11.786 9.949-24.286 17.782-37.5 23.5-6.306 1.105-12.139 3.272-17.5 6.5a290.122 290.122 0 0 1-21 2c-.556.383-.889.883-1 1.5a43.117 43.117 0 0 1-13-1 27.013 27.013 0 0 0-2.5-7c-1.141-24.174-.474-48.174 2-72a7.293 7.293 0 0 1 2-3c5.519-40.159 26.019-68.326 61.5-84.5a63.988 63.988 0 0 1 20-4l-2-1c15.33-.5 30.663-.667 46-.5Z"/><path style="opacity:.926" fill="#e6c04b" d="M1629.5 617.5c15.34-.167 30.67 0 46 .5-.67.333-1.33.667-2 1 6.8.719 13.46 2.053 20 4-.33.333-.67.667-1 1l10 3a60.595 60.595 0 0 0 13 8c-.33.333-.67.667-1 1 4.53 3.042 8.86 6.375 13 10 2.87 4.798 6.03 8.631 9.5 11.5 9.05 17.31 15.72 35.644 20 55 2.46 22.217 3.12 44.55 2 67-.93 3.513-1.76 7.013-2.5 10.5-4.33.667-8.67.667-13 0a213.309 213.309 0 0 0-23-3 7.248 7.248 0 0 1-2-2.5c-28.12-6.936-50.46-22.269-67-46-4.21-5.759-7.38-12.092-9.5-19l-3-3a577.446 577.446 0 0 1-11.5-37 688.956 688.956 0 0 1-8-55c.15-1.82.82-3.32 2-4.5l11-1c-1.24-.232-2.24-.732-3-1.5Z"/><path style="opacity:.004" fill="#e6c04b" d="M1676.5 617.5c1.33.667 1.33.667 0 0ZM1890.5 704.5c1.03.397 1.19 1.063.5 2-.46-.594-.63-1.261-.5-2ZM1651.5 738.5c-.67.667-.67.667 0 0Z"/><path style="opacity:.922" fill="#e6c04b" d="M288.5 761.5a84.902 84.902 0 0 1 13 .5 4.457 4.457 0 0 0 2 1.5 182.468 182.468 0 0 1 1.5 19c.29 2.452.956 4.785 2 7 .667 15 .667 30 0 45a22.508 22.508 0 0 0-2 7c-.713 20.235-6.546 39.569-17.5 58a10.756 10.756 0 0 1-3 2.5l1 1c-3.923 3.092-6.923 6.926-9 11.5-18.766 18.864-41.433 32.03-68 39.5-2.079.808-4.079.641-6-.5-3.74-5.322-5.406-11.155-5-17.5-3.227-4.235-4.727-9.068-4.5-14.5l-1 1c-1.979-8.184-2.979-17.851-3-29-2.466-10.165-3.133-20.499-2-31a91.906 91.906 0 0 0 3-23c10.944-39.753 37.11-64.42 78.5-74a12.403 12.403 0 0 1 4-2.5c5.516-.173 10.849-.673 16-1.5Z"/><path style="opacity:.923" fill="#e6c04b" d="M1625.5 761.5c9.67.363 19.34.863 29 1.5 57.39 14.932 85.73 52.098 85 111.5-.91 16.156-2.41 31.49-4.5 46a265.214 265.214 0 0 0-7 27 20.445 20.445 0 0 0-3.5 6.5c-2 .667-4 .667-6 0-15.64-5.374-30.31-11.707-44-19-13.75-9.591-25.75-21.758-36-36.5a218.762 218.762 0 0 1-14-36.5 3.92 3.92 0 0 1 1-2 23.21 23.21 0 0 1-3-6.5c-4.09-29.684-3.92-59.351.5-89 1.04-.873 1.88-1.873 2.5-3Z"/><path style="opacity:.933" fill="#e6c04b" d="M112.5 795.5c6.298 5.212 13.298 10.712 21 16.5a591.955 591.955 0 0 1 11 13.5 74.707 74.707 0 0 0 7 9 2535.16 2535.16 0 0 0 19.5 35c4.204 12.728 8.704 24.728 13.5 36a442.55 442.55 0 0 1 10.5 33 72.995 72.995 0 0 0 3.5 16 82.22 82.22 0 0 1-7 4.5c-51.414 16.67-92.58 3.837-123.5-38.5-11.378-17.483-19.71-36.816-25-58a75.774 75.774 0 0 0-3.5-5.5 3.942 3.942 0 0 1 1-2 5065.014 5065.014 0 0 1-7.5-29.5c-.5-14.663-.667-29.33-.5-44 20.066-2.382 39.066-.882 57 4.5a474.222 474.222 0 0 1 23 9.5Z"/><path style="opacity:.93" fill="#e6c04b" d="M1861.5 780.5c11.38-.326 22.71.174 34 1.5 1.81 18.204.14 36.037-5 53.5 1.06 2.603 1.23 5.27.5 8-.33-1-.67-2-1-3a44.682 44.682 0 0 1-3.5 14.5c.46.414.79.914 1 1.5-.45 2.065-1.45 3.732-3 5-.97 3.967-1.81 7.967-2.5 12-3.15 3.706-4.82 8.04-5 13-7.49 17.299-17.33 33.299-29.5 48-26.7 27.817-59.03 37.484-97 29a260.366 260.366 0 0 1-21-7.5c-1.08-1.726-1.24-3.559-.5-5.5a273.154 273.154 0 0 1 10.5-34.5 3.92 3.92 0 0 1-1-2c3.73-6.309 6.23-13.142 7.5-20.5.33.333.67.667 1 1 8.1-24.769 19.26-47.103 33.5-67 20.74-26.857 47.74-42.524 81-47Z"/><path style="opacity:.004" fill="#e6c04b" d="M84.5 782.5c1.333.667 1.333.667 0 0ZM183.5 790.5a2.428 2.428 0 0 1 2 .5c-.937.692-1.603.525-2-.5ZM1814.5 790.5c.74-.131 1.41.036 2 .5-.94.692-1.6.525-2-.5ZM112.5 794.5c1.333.667 1.333.667 0 0ZM144.5 824.5c1.333.667 1.333.667 0 0ZM1476.5 836.5c1.03.397 1.19 1.063.5 2-.46-.594-.63-1.261-.5-2Z"/><path style="opacity:.927" fill="#e6c04b" d="M310.5 1080.5a192.803 192.803 0 0 0-18 15 376.16 376.16 0 0 1-16.5 10 35.524 35.524 0 0 1-8.5 3c-1.333-.33-2.667-.67-4-1-11.924-22.99-21.091-46.66-27.5-71-3.974-21.72-3.974-43.382 0-65 5.911-16.162 15.078-30.162 27.5-42 17.883-14.774 38.216-24.441 61-29 2.424-.352 3.924.648 4.5 3a608.816 608.816 0 0 1 12 44 1038.256 1038.256 0 0 1 4 29c1.494 18.902.161 37.57-4 56-7.216 18.01-17.382 34.01-30.5 48Z"/><path style="opacity:.924" fill="#e6c04b" d="M1667.5 1099.5c-1.83 2.33-3.16 4.99-4 8-1.33.33-2.67.67-4 1-2.96-.64-5.8-1.64-8.5-3-6.2-3.89-12.37-7.72-18.5-11.5-.67-1-1.33-2-2-3-3.77-2.41-7.44-4.91-11-7.5-5.05-4.22-9.22-9.22-12.5-15l-1 1c-3.3-4.64-6.63-9.31-10-14-3.58-6.26-6.24-12.93-8-20l-1 1c-5.43-20.54-7.09-42.87-5-67 .33.333.67.667 1 1 .29-8.437 1.29-16.77 3-25 5.12-15.079 9.28-29.745 12.5-44 1.17-.333 2.33-.667 3.5-1 19.05 4.268 37.22 12.101 54.5 23.5 25.6 20.126 38.27 46.459 38 79 .2 10.63-.64 21.13-2.5 31.5-3.13 5.86-4.8 12.19-5 19-3.73 6.49-6.06 13.49-7 21-3.09 2.7-4.59 5.86-4.5 9.5a91.96 91.96 0 0 0-8 15.5Z"/><path style="opacity:.004" fill="#e6c04b" d="M184.5 905.5a2.428 2.428 0 0 1 .5-2c.692.937.525 1.603-.5 2Z"/><path style="opacity:.933" fill="#e6c04b" d="M213.5 1027.5c16.561 21.65 30.728 45.65 42.5 72 4.097 3.51 5.264 8.17 3.5 14-26.475 18.16-56.142 23.66-89 16.5-4.716-2.35-9.383-4.68-14-7-1.612-.72-3.112-.55-4.5.5-.617-.95-.451-1.78.5-2.5-15.001-8.02-27.668-19.52-38-34.5a74.3 74.3 0 0 0-6-5.5c.333-.33.667-.67 1-1-7.85-9.21-14.016-19.38-18.5-30.5-.333.33-.667.67-1 1a674.823 674.823 0 0 1-22-55 65.96 65.96 0 0 1-3-21 215.934 215.934 0 0 1 48-9 684.895 684.895 0 0 1 35.5 6.5c26.302 11.346 47.969 29.85 65 55.5ZM1810.5 965.5c6.59.795 13.25 1.295 20 1.5-.33.333-.67.667-1 1a94.228 94.228 0 0 1 22 3 95.018 95.018 0 0 1 8.5 3.5c2.89-1.115 4.06.052 3.5 3.5a1989.44 1989.44 0 0 0-6 19c1.45 2.493.78 4.33-2 5.5-11.16 37.23-30.16 70.9-57 101-13.88 13.87-30.88 23.2-51 28a166.266 166.266 0 0 1-45-1.5c-7.31-2.88-14.65-5.55-22-8l1-1c-5.21-1.81-9.54-3.97-13-6.5-1.93-2.72-2.43-5.72-1.5-9 13.93-28.61 29.77-55.61 47.5-81 3.22-2.38 5.88-5.21 8-8.5 14.99-20.417 34.66-35.417 59-45 9.78-1.45 19.45-3.283 29-5.5Z"/><path style="opacity:.004" fill="#e6c04b" d="M230.5 993.5c1.073.751 1.24 1.751.5 3a4.934 4.934 0 0 1-.5-3ZM230.5 998.5c1.025.397 1.192 1.063.5 2a2.428 2.428 0 0 1-.5-2ZM230.5 1005.5c1.073.75 1.24 1.75.5 3a4.939 4.939 0 0 1-.5-3ZM213.5 1026.5c1.333.67 1.333.67 0 0Z"/><path style="opacity:.926" fill="#e6c04b" d="M376.5 1031.5c3.057 3.76 5.89 7.76 8.5 12 4.434 10.2 9.1 19.54 14 28 1.074 4.46 2.407 8.8 4 13 .333-.33.667-.67 1-1a446.302 446.302 0 0 1 10 34c3.269 16.47 3.935 33.81 2 52-.333-.33-.667-.67-1-1-.132 5.25-1.132 10.25-3 15a568.402 568.402 0 0 0-8.5 18 375.19 375.19 0 0 1-16 24c-4.345 3.17-8.345 7-12 11.5a53.027 53.027 0 0 1-11 8.5c-1.353 1.02-2.02 2.36-2 4-2.091.18-4.091-.15-6-1a371.96 371.96 0 0 1-38-57 21499.23 21499.23 0 0 1-12.5-31 205.73 205.73 0 0 0-3-20c-.333.33-.667.67-1 1-2.43-31.9 7.736-59.06 30.5-81.5 4.829-4.33 9.829-8.49 15-12.5a8528.99 8528.99 0 0 0 29-16Z"/><path style="opacity:.927" fill="#e6c04b" d="M1612.5 1082.5c4.31 8.24 7.64 16.91 10 26a211.15 211.15 0 0 1 0 41c-3.36 15.07-7.86 29.07-13.5 42-1.01.84-2.18 1.17-3.5 1-.18 2.72-.68 5.38-1.5 8-6.63 9.23-12.8 18.9-18.5 29-5 6.33-10 12.67-15 19-1.6.98-3.26 1.15-5 .5-27.36-21.77-45.53-47.6-54.5-77.5-2.05-19.86-1.38-38.86 2-57 3.25-7.26 5.58-14.92 7-23 2.8-2.21 3.8-4.88 3-8 6.41-14.07 13.58-28.57 21.5-43.5l-1-1 3-1.5c.51-2.35 1.51-4.35 3-6 26.89 11.37 47.89 28.37 63 51Z"/><path style="opacity:.004" fill="#e6c04b" d="M1422.5 1042.5c1.33.67 1.33.67 0 0ZM310.5 1080.5c1.333.67 1.333.67 0 0ZM1612.5 1081.5c1.33.67 1.33.67 0 0ZM1667.5 1099.5c1.33.67 1.33.67 0 0ZM1624.5 1121.5c1.15 4.48 1.32 9.15.5 14-.5-4.65-.67-9.32-.5-14Z"/><path style="opacity:.932" fill="#e6c04b" d="M279.5 1168.5a350.738 350.738 0 0 1 31 30 305.781 305.781 0 0 1 20.5 22c6.675 9.01 13.342 18.01 20 27 1.011.84 2.178 1.17 3.5 1 .268 2.62-.065 5.12-1 7.5-1 .33-2 .67-3 1-7.254 7.96-15.754 14.13-25.5 18.5-2.892 3.53-6.725 5.36-11.5 5.5a7.239 7.239 0 0 0-2 2.5 70.066 70.066 0 0 1-17 3.5c2.621.91 2.454 1.41-.5 1.5-1.107-.09-2.107-.42-3-1a68.491 68.491 0 0 1-11.5 2c-6.265-.83-11.932-1.5-17-2-6.064-.57-11.397-1.74-16-3.5a6.575 6.575 0 0 1-3-3c-4.437-.2-8.103-1.87-11-5a96.164 96.164 0 0 1-8.5-3.5c-37.025-27.78-65.692-63.11-86-106a7.32 7.32 0 0 1-2-3c-.333.33-.667.67-1 1a32.465 32.465 0 0 1-.5-8c1.478.26 2.811-.07 4-1 7.383-5.64 15.716-9.47 25-11.5-.333-.33-.667-.67-1-1a609.838 609.838 0 0 0 31-7c5-.67 10-.67 15 0a209.075 209.075 0 0 0 25 6 118.33 118.33 0 0 0 15 6 2907.49 2907.49 0 0 1 23 14c-.333.33-.667.67-1 1 3.226 1.66 6.226 3.49 9 5.5ZM1664.5 1287.5c-9.52 2.21-19.02 2.21-28.5 0-1.39 1.05-2.89 1.22-4.5.5l1-1c-5.74-.61-11.4-1.61-17-3-.67-1-1.33-2-2-3-4.77-.14-8.61-1.97-11.5-5.5-9.7-4.37-18.2-10.54-25.5-18.5-4.33-1.56-5.16-4.39-2.5-8.5 4.69-6.72 9.86-13.05 15.5-19 .93-1.19 1.26-2.52 1-4 4.97-3.3 8.97-7.64 12-13 8.94-8.56 16.94-17.39 24-26.5 6.79-5.57 13.79-10.9 21-16l-1-1c9.72-7.03 19.72-13.69 30-20 10.32-5.73 21.32-9.06 33-10 7.58-3.48 15.58-4.31 24-2.5 10.37 2.13 20.71 4.3 31 6.5l-1 1c5.75 1.62 11.42 3.62 17 6l-1 1c4.56 1.7 8.89 3.53 13 5.5.16 2.03 0 4.03-.5 6-14.6 28.07-32.1 54.07-52.5 78-11.19 11.21-22.86 21.55-35 31a73.618 73.618 0 0 1-9.5 4c-2.89 3.53-6.73 5.36-11.5 5.5a6.603 6.603 0 0 1-3 3c-5.47 1.16-10.8 2.33-16 3.5Z"/><path style="opacity:.927" fill="#e6c04b" d="M452.5 1151.5a408.058 408.058 0 0 1 16 17.5c2.499 4.1 5.832 8.1 10 12-.333.33-.667.67-1 1 1.667 1.33 3.333 2.67 5 4-.78 1.07-.613 2.24.5 3.5 17.301 22.25 28.635 47.25 34 75 .333-.67.667-1.33 1-2a116.97 116.97 0 0 1 0 37c-.333-.67-.667-1.33-1-2-.277 5.88-1.277 11.54-3 17a148.565 148.565 0 0 0-5 14c-4.389 9.81-9.389 18.47-15 26a96.75 96.75 0 0 0-9.5 12.5c-2.923 1.71-5.923 1.88-9 .5-28.813-22.37-51.98-50.03-69.5-83-.517-4.23-2.184-7.9-5-11a252.772 252.772 0 0 0-3-18c-.333.67-.667 1.33-1 2-2.905-42.87 13.929-76.7 50.5-101.5-.333-.33-.667-.67-1-1 2.379-.72 4.379-1.88 6-3.5ZM1472.5 1152.5c2.06.19 4.06.69 6 1.5 14.6 11.37 26.93 24.21 37 38.5 19.25 32.22 19.92 64.72 2 97.5 1.33 1.84 1.17 2.34-.5 1.5-16.08 29.03-37.91 54.36-65.5 76-2.67 1.33-5.33 1.33-8 0-19.34-21.75-31.17-46.41-35.5-74-.67-8-.67-16 0-24a169.08 169.08 0 0 1 12-41c2.4-.98 3.24-2.48 2.5-4.5 4.42-8.61 9.42-16.95 15-25l-1-1c10.85-14.98 22.85-30.15 36-45.5Z"/><path style="opacity:.004" fill="#e6c04b" d="M279.5 1167.5c1.333.67 1.333.67 0 0Z"/><path style="opacity:.008" fill="#e6c04b" d="M310.5 1197.5c1.333.67 1.333.67 0 0ZM615.5 1204.5c-.667.67-.667.67 0 0Z"/><path style="opacity:.926" fill="#e6c04b" d="M508.5 1417.5c.111.62.444 1.12 1 1.5 5.011.58 10.011 1.25 15 2 3.59 3.23 7.924 4.9 13 5a2976.392 2976.392 0 0 0 39 15.5c-.273-1.95.393-3.45 2-4.5a238.846 238.846 0 0 1-47-46.5 982.694 982.694 0 0 1-11.5-21c-1.861-9.12-3.861-17.45-6-25a72.464 72.464 0 0 1 0-17c1.928-9.01 3.928-18.01 6-27 .333.33.667.67 1 1 2.944-9.03 7.11-17.37 12.5-25a457.962 457.962 0 0 1 16-20.5c2-.67 4-.67 6 0 18.141 13.74 35.474 29.24 52 46.5 11.243 12.85 21.243 26.51 30 41l3.5 11a7.248 7.248 0 0 0 2.5 2c.723 5.61 2.223 10.95 4.5 16 1.98 15.33 1.98 30.66 0 46-.667-1.33-1.333-1.33-2 0a91.393 91.393 0 0 1-2.5 16c-3.293 8-6.96 15.83-11 23.5 7.783 3.22 15.783 7.22 24 12 1.667.33 3.333.67 5 1-.333.33-.667.67-1 1 3.932 1.51 7.932 2.84 12 4-.333.33-.667.67-1 1a324.02 324.02 0 0 0 32 11c-.333.33-.667.67-1 1l11 3 3 3c11.826 3.06 22.492 6.06 32 9l2 3a59.175 59.175 0 0 1 19 4.5c.577 1.61.91 3.27 1 5a80.368 80.368 0 0 0-3 15c-1.699.12-3.365.45-5 1a1842.777 1842.777 0 0 1-56-18.5c.333-.33.667-.67 1-1a230.892 230.892 0 0 1-21-6c.667-.33 1.333-.67 2-1a694.339 694.339 0 0 1-30-11c.333-.33.667-.67 1-1-4.029-2.06-8.029-3.39-12-4 .333-.33.667-.67 1-1a60.468 60.468 0 0 1-10-3.5 108.187 108.187 0 0 1-15.5-9c-12.665 29.82-33.832 49.48-63.5 59 .209.59.543 1.09 1 1.5-21.333.67-42.667.67-64 0a4.486 4.486 0 0 0 2-1.5 130.915 130.915 0 0 1-19-4.5 2990.283 2990.283 0 0 0-37-17c.333-.33.667-.67 1-1a217.944 217.944 0 0 1-38-22.5 103.857 103.857 0 0 0-17-12.5c.333-.33.667-.67 1-1-3-1.05-5.333-2.88-7-5.5-1.189-.93-2.522-1.26-4-1-.252-2.82.248-5.49 1.5-8 13.415-17.59 29.915-31.26 49.5-41a750.478 750.478 0 0 0 17-4.5 32.065 32.065 0 0 1 4-2.5c15.327-2.53 30.661-2.53 46 0 3.53 2.62 7.53 3.62 12 3ZM1486.5 1417.5c7.62 2.42 14.96 5.75 22 10 6.62 3.36 12.62 7.52 18 12.5l-1 1c4.78 2.78 8.94 6.28 12.5 10.5 2.98 4.14 6.14 8.14 9.5 12a15.45 15.45 0 0 1 1 7c-1.48-.26-2.81.07-4 1-29.81 25.85-62.48 45.69-98 59.5a88.514 88.514 0 0 1-18 4.5c.53.69 1.19 1.19 2 1.5-21 .5-42 .67-63 .5v-3c-4.94-.03-9.6-1.2-14-3.5-20.31-10.95-36.14-27.12-47.5-48.5-.33-1.67-.67-3.33-1-5-4.24 2.32-9.07 4.15-14.5 5.5-.86.69-1.52 1.52-2 2.5-7.05 2.87-14.05 5.7-21 8.5l1 1c-2.81.02-5.14 1.02-7 3-6.81 3.06-14.47 5.72-23 8 .67.33 1.33.67 2 1-3.46-.09-6.46.91-9 3l-12 3c1.13 1.02.8 1.68-1 2-16.37 5.23-33.37 10.9-51 17-2.97.9-5.63.4-8-1.5a86.169 86.169 0 0 1-2-20c5.86-1.39 11.86-2.56 18-3.5a6.603 6.603 0 0 0 3-3c4.82-.52 9.49-1.52 14-3-1.39-.89-1.22-1.39.5-1.5 2.64 1.25 4.81.58 6.5-2 3.65-.88 7.32-1.71 11-2.5l3-3c13.57-4.42 27.57-9.42 42-15-.67-.33-1.33-.67-2-1 4.52-.8 8.85-2.13 13-4l-1-1c1.67-.33 3.33-.67 5-1 7.62-4.76 15.62-8.76 24-12-4.25-6.66-7.58-13.83-10-21.5-1.91-7.63-3.75-15.3-5.5-23l-1 1c-.67-13-.67-26 0-39a94.358 94.358 0 0 0 6-20 167.97 167.97 0 0 1 24-39c.48-.95.65-1.95.5-3 2.89.28 4.39-1.05 4.5-4 5.03-5.53 10.2-10.87 15.5-16 12.65-13.48 26.65-25.32 42-35.5l-1-1c2.2-1.37 4.53-1.71 7-1 14.16 15.18 24.83 32.02 32 50.5.79 8.65 2.62 16.98 5.5 25 .88 6-.12 11.66-3 17-.67 5.33-1.33 10.67-2 16-1.95 2.64-2.95 5.64-3 9-.67-1.33-1.33-1.33-2 0-4.41 12.5-11.91 23.34-22.5 32.5l1 1c-11.4 11.13-23.07 21.13-35 30 1.94.91 2.94 2.41 3 4.5 12.93-4.97 25.93-10.14 39-15.5 5.08-.1 9.41-1.77 13-5 9.85-.39 19.18-2.55 28-6.5 15.34-2.53 30.67-2.53 46 0 2.85 2.48 6.18 3.48 10 3Z"/><path style="opacity:.004" fill="#e6c04b" d="M533.5 1276.5c-1.025-.4-1.192-1.06-.5-2 .464.59.631 1.26.5 2ZM1697.5 1275.5c1.33.67 1.33.67 0 0ZM258.5 1288.5c.397-1.03 1.063-1.19 2-.5-.594.46-1.261.63-2 .5ZM262.5 1287.5c-.667.67-.667.67 0 0Z"/><path style="opacity:.933" fill="#e6c04b" d="M335.5 1412.5c-36.205-22.25-67.705-50.58-94.5-85a12.494 12.494 0 0 1 0-7c8.8-5.81 17.3-11.97 25.5-18.5 13.678-6.78 28.011-11.28 43-13.5a113.062 113.062 0 0 1 26-.5c-.333.33-.667.67-1 1 8.23.27 16.23 1.61 24 4-1 .33-2 .67-3 1a131.86 131.86 0 0 1 15 4c-.333.33-.667.67-1 1 1.667.33 3.333.67 5 1-.333.33-.667.67-1 1 1.667.33 3.333.67 5 1a98.816 98.816 0 0 1 16 10c3.979.54 7.146 2.37 9.5 5.5 5.295 2.8 10.461 5.8 15.5 9 20.248 15.4 39.248 30.73 57 46-.379 3.04-1.712 5.54-4 7.5-20.302 29.91-47.802 45.41-82.5 46.5-7.496-.76-14.996-1.6-22.5-2.5.333-.33.667-.67 1-1-5.95-1.23-11.95-2.56-18-4 .333-.33.667-.67 1-1a208.053 208.053 0 0 1-16-5.5ZM1542.5 1305.5c5.05-2.59 10.22-5.25 15.5-8 4.39-1.57 8.89-2.73 13.5-3.5-.67-.33-1.33-.67-2-1 3.97-.08 7.64-1.08 11-3 29.48-5.03 56.15-.86 80 12.5 5.98 3.97 11.98 7.97 18 12 2.6 2.55 5.1 5.22 7.5 8l1-1c.81 2.08.64 4.08-.5 6a176.48 176.48 0 0 0-17.5 21c-8.18 8.42-16.35 16.75-24.5 25-8.68 7.67-17.68 15-27 22-15.94 11.05-32.94 19.88-51 26.5-2.67.33-5.33.67-8 1 1.46.42 1.96 1.26 1.5 2.5-1.4-.62-2.9-.95-4.5-1-13.98 2.18-27.98 2.01-42-.5.67-.33 1.33-.67 2-1-4.91-.19-9.58-1.19-14-3-12.73-6.38-24.39-14.38-35-24-.72-2.67-2.39-4.17-5-4.5.15-1.05-.02-2.05-.5-3-3.8-3.59-7.13-7.59-10-12-.5-1.97-.66-3.97-.5-6 1.48.26 2.81-.07 4-1 25.61-23.76 54.95-45.1 88-64Z"/><path style="opacity:.004" fill="#e6c04b" d="M1664.5 1287.5c1.33.67 1.33.67 0 0ZM1666.5 1287.5c1.33.67 1.33.67 0 0ZM1328.5 1293.5c-.67-1.33-.67-1.33 0 0ZM1542.5 1305.5c-.67-1.33-.67-1.33 0 0ZM335.5 1412.5c-.667.67-.667.67 0 0ZM508.5 1417.5c.397-1.03 1.063-1.19 2-.5-.594.46-1.261.63-2 .5ZM1486.5 1416.5c1.33.67 1.33.67 0 0ZM414.5 1424.5c1.333.67 1.333.67 0 0ZM1512.5 1428.5c1.33.67 1.33.67 0 0Z"/></svg>